<?xml version="1.0" encoding="UTF-8"?>
<!DOCTYPE svg PUBLIC "-//W3C//DTD SVG 1.1//EN" "http://www.w3.org/Graphics/SVG/1.1/DTD/svg11.dtd">
<svg xmlns="http://www.w3.org/2000/svg" version="1.1" width="16px" height="16px" style="shape-rendering:geometricPrecision; text-rendering:geometricPrecision; image-rendering:optimizeQuality; fill-rule:evenodd; clip-rule:evenodd" xmlns:xlink="http://www.w3.org/1999/xlink">
<g><path style="opacity:1" fill="#888988" d="M 10.5,8.5 C 8.5,9.83333 6.5,9.83333 4.5,8.5C 0.263694,6.02685 0.597027,4.69352 5.5,4.5C 5.5,3.16667 5.5,1.83333 5.5,0.5C 6.83333,0.5 8.16667,0.5 9.5,0.5C 9.5,1.83333 9.5,3.16667 9.5,4.5C 14.403,4.69352 14.7363,6.02685 10.5,8.5 Z"/></g>
<g><path style="opacity:1" fill="#babbba" d="M 6.5,1.5 C 8.17649,2.18342 8.84316,3.51676 8.5,5.5C 9.55198,5.35055 10.552,5.51722 11.5,6C 10.0337,6.63547 8.70034,7.46881 7.5,8.5C 6.29966,7.46881 4.96632,6.63547 3.5,6C 4.44802,5.51722 5.44802,5.35055 6.5,5.5C 6.5,4.16667 6.5,2.83333 6.5,1.5 Z"/></g>
<g><path style="opacity:1" fill="#888988" d="M 4.5,8.5 C 4.97041,9.69348 5.97041,10.3601 7.5,10.5C 9.02959,10.3601 10.0296,9.69348 10.5,8.5C 11.8333,8.5 13.1667,8.5 14.5,8.5C 14.5,10.5 14.5,12.5 14.5,14.5C 9.83333,14.5 5.16667,14.5 0.5,14.5C 0.5,12.5 0.5,10.5 0.5,8.5C 1.83333,8.5 3.16667,8.5 4.5,8.5 Z M 4.5,8.5 C 6.5,9.83333 8.5,9.83333 10.5,8.5C 10.0296,9.69348 9.02959,10.3601 7.5,10.5C 5.97041,10.3601 4.97041,9.69348 4.5,8.5 Z"/></g>
<g><path style="opacity:1" fill="#babbba" d="M 1.5,9.5 C 5.17766,12.005 8.84433,12.005 12.5,9.5C 13.4287,10.6888 13.762,12.0222 13.5,13.5C 9.5,13.5 5.5,13.5 1.5,13.5C 1.5,12.1667 1.5,10.8333 1.5,9.5 Z"/></g>
</svg>
