<?xml version="1.0" encoding="UTF-8"?>
<!DOCTYPE svg PUBLIC "-//W3C//DTD SVG 1.1//EN" "http://www.w3.org/Graphics/SVG/1.1/DTD/svg11.dtd">
<svg xmlns="http://www.w3.org/2000/svg" version="1.1" width="16px" height="16px" style="shape-rendering:geometricPrecision; text-rendering:geometricPrecision; image-rendering:optimizeQuality; fill-rule:evenodd; clip-rule:evenodd" xmlns:xlink="http://www.w3.org/1999/xlink">
<g><path style="opacity:1" fill="#080808" d="M 6.5,0.5 C 7.64697,4.64631 7.81364,8.97964 7,13.5C 5.00146,11.7468 2.83479,10.4135 0.5,9.5C 0.5,7.83333 0.5,6.16667 0.5,4.5C 2.87975,3.74658 4.87975,2.41324 6.5,0.5 Z"/></g>
<g><path style="opacity:1" fill="#000000" d="M 8.5,1.5 C 12.0624,1.56382 13.7291,3.39715 13.5,7C 13.6853,10.9974 12.0187,12.4974 8.5,11.5C 10.5053,10.6628 11.5053,9.16275 11.5,7C 11.0315,4.80437 10.0315,2.97104 8.5,1.5 Z"/></g>
<g><path style="opacity:1" fill="#575757" d="M 4.5,8.5 C 5.83333,7.5 5.83333,6.5 4.5,5.5C 6.03726,2.99937 6.70392,3.49937 6.5,7C 6.70392,10.5006 6.03726,11.0006 4.5,8.5 Z"/></g>
<g><path style="opacity:1" fill="#000000" d="M 8.5,4.5 C 10.898,5.8823 11.0647,7.54897 9,9.5C 8.50649,7.86586 8.33982,6.19919 8.5,4.5 Z"/></g>
<g><path style="opacity:1" fill="#888988" d="M 4.5,5.5 C 5.83333,6.5 5.83333,7.5 4.5,8.5C 3.73747,7.73209 2.73747,7.23209 1.5,7C 2.73747,6.76791 3.73747,6.26791 4.5,5.5 Z"/></g>
</svg>
