<svg id="svg" version="1.1" xmlns="http://www.w3.org/2000/svg" xmlns:xlink="http://www.w3.org/1999/xlink" width="400" height="400" viewBox="0, 0, 400,400"><g id="svgg"><path id="path0" d="M150.322 69.011 C 150.206 69.127,149.119 69.282,147.906 69.356 C 144.461 69.566,144.052 70.307,144.079 76.302 C 144.088 78.226,144.073 80.107,144.047 80.482 C 143.989 81.329,142.394 81.658,137.689 81.795 C 132.008 81.960,131.960 82.008,131.795 87.689 C 131.658 92.394,131.329 93.989,130.482 94.047 C 130.107 94.073,128.226 94.088,126.302 94.079 C 120.461 94.053,119.557 94.507,119.378 97.554 C 119.318 98.569,119.149 99.940,119.002 100.600 C 118.788 101.564,118.828 101.682,119.205 101.200 C 119.595 100.703,119.622 100.738,119.364 101.400 C 119.193 101.840,118.979 103.145,118.889 104.300 C 118.728 106.379,118.713 106.400,117.396 106.400 C 116.665 106.400,115.976 106.625,115.865 106.900 C 115.704 107.300,115.657 107.300,115.632 106.900 C 115.612 106.582,114.980 106.402,113.900 106.406 C 112.655 106.411,112.361 106.516,112.800 106.800 C 113.130 107.013,113.211 107.191,112.980 107.194 C 112.749 107.197,112.348 106.988,112.089 106.729 C 111.729 106.369,111.414 106.439,110.741 107.029 C 110.258 107.453,109.994 107.575,110.155 107.300 C 110.340 106.983,110.203 106.800,109.781 106.800 C 109.320 106.800,109.190 107.016,109.358 107.500 C 109.577 108.130,109.545 108.126,109.033 107.468 C 108.486 106.763,108.432 106.768,107.600 107.600 C 106.768 108.432,106.763 108.486,107.468 109.033 C 108.126 109.545,108.130 109.577,107.500 109.358 C 107.016 109.190,106.800 109.320,106.800 109.781 C 106.800 110.203,106.983 110.340,107.300 110.155 C 107.575 109.994,107.453 110.258,107.029 110.741 C 106.439 111.414,106.369 111.729,106.729 112.089 C 106.988 112.348,107.197 112.749,107.194 112.980 C 107.191 113.211,107.013 113.130,106.800 112.800 C 106.515 112.360,106.411 112.643,106.406 113.867 C 106.403 114.831,106.611 115.618,106.900 115.735 C 107.298 115.896,107.298 115.943,106.897 115.968 C 106.495 115.994,106.396 131.930,106.403 195.420 C 106.409 247.495,106.547 274.756,106.806 274.596 C 107.310 274.285,107.321 274.919,106.821 275.420 C 106.308 275.933,107.266 280.184,107.909 280.250 C 108.179 280.278,108.445 280.345,108.500 280.401 C 108.555 280.456,109.469 280.555,110.531 280.620 C 111.592 280.685,112.719 280.837,113.034 280.958 C 113.349 281.079,114.066 281.003,114.626 280.790 C 115.316 280.528,115.564 280.535,115.392 280.813 C 115.114 281.262,263.949 281.159,265.400 280.709 C 265.840 280.573,266.440 280.447,266.733 280.431 C 267.027 280.414,267.184 280.175,267.083 279.900 C 266.983 279.625,266.667 279.455,266.382 279.523 C 265.959 279.623,265.959 279.531,266.381 279.023 C 266.992 278.287,267.238 278.228,267.100 278.850 C 267.045 279.098,267.195 279.373,267.433 279.461 C 267.672 279.550,267.888 279.392,267.915 279.111 C 267.941 278.830,268.079 277.902,268.221 277.048 C 268.404 275.951,268.321 275.396,267.940 275.154 C 267.540 274.901,267.530 274.811,267.900 274.806 C 268.488 274.799,268.579 272.958,268.008 272.605 C 267.764 272.454,267.755 272.106,267.984 271.681 C 268.186 271.307,268.452 270.520,268.575 269.933 C 268.823 268.751,271.337 267.908,273.425 268.307 C 274.082 268.433,274.619 268.299,274.836 267.955 C 275.122 267.504,275.189 267.500,275.194 267.937 C 275.198 268.342,275.621 268.413,276.900 268.224 C 277.835 268.086,278.830 267.949,279.111 267.920 C 279.392 267.891,279.550 267.672,279.461 267.433 C 279.373 267.195,279.098 267.045,278.850 267.100 C 278.214 267.241,278.291 266.986,279.077 266.349 C 279.462 266.036,279.632 266.003,279.470 266.272 C 279.197 266.727,279.870 267.464,280.229 267.104 C 280.326 267.007,280.500 266.134,280.615 265.164 C 280.730 264.194,280.916 262.770,281.027 262.000 C 281.186 260.899,281.133 260.728,280.777 261.200 C 280.409 261.688,280.382 261.651,280.636 261.000 C 280.807 260.560,281.021 259.255,281.111 258.100 C 281.235 256.503,281.433 255.989,281.937 255.953 C 282.302 255.927,284.200 255.913,286.155 255.922 C 289.820 255.939,291.281 255.612,292.509 254.502 C 293.059 254.004,293.104 253.786,292.709 253.536 C 292.310 253.282,292.308 253.211,292.700 253.206 C 292.975 253.203,293.200 252.919,293.200 252.576 C 293.200 252.188,293.011 252.063,292.700 252.245 C 292.425 252.406,292.502 252.191,292.872 251.769 C 293.385 251.180,293.444 250.822,293.121 250.245 C 292.819 249.705,292.823 249.567,293.135 249.760 C 293.436 249.946,293.567 249.084,293.556 246.978 C 293.536 243.275,293.275 243.536,296.978 243.556 C 299.084 243.567,299.946 243.436,299.760 243.135 C 299.567 242.823,299.705 242.819,300.245 243.121 C 300.822 243.444,301.180 243.385,301.769 242.872 C 302.191 242.502,302.406 242.425,302.245 242.700 C 302.063 243.011,302.188 243.200,302.576 243.200 C 302.919 243.200,303.203 242.975,303.206 242.700 C 303.211 242.308,303.282 242.310,303.536 242.709 C 303.937 243.343,304.934 242.351,305.565 240.691 C 306.095 239.298,306.145 74.158,305.617 71.851 C 305.136 69.753,304.818 69.522,302.181 69.361 C 300.927 69.285,299.518 69.116,299.051 68.985 C 298.346 68.788,298.303 68.827,298.800 69.212 C 299.290 69.591,299.254 69.614,298.600 69.338 C 297.554 68.896,152.446 68.896,151.400 69.338 C 150.773 69.603,150.730 69.582,151.200 69.244 C 151.728 68.864,151.724 68.812,151.167 68.806 C 150.818 68.803,150.438 68.895,150.322 69.011 M244.343 87.800 C 244.558 88.680,244.933 90.840,245.176 92.600 C 245.795 97.082,246.714 100.116,247.813 101.301 C 248.330 101.858,248.628 102.438,248.476 102.590 C 248.324 102.742,248.380 102.832,248.600 102.790 C 249.256 102.665,250.800 103.266,250.800 103.647 C 250.800 103.841,250.935 103.979,251.100 103.953 C 251.265 103.927,251.490 103.942,251.600 103.986 C 251.710 104.030,252.160 104.130,252.600 104.208 C 253.040 104.286,253.850 104.432,254.400 104.532 C 254.950 104.632,257.245 105.031,259.500 105.418 C 261.755 105.806,263.600 106.279,263.600 106.469 C 263.600 108.841,256.405 114.708,255.807 112.823 C 255.354 111.394,252.756 109.284,250.847 108.794 C 244.215 107.090,226.532 107.526,224.618 109.439 C 224.278 109.779,224.000 109.923,224.000 109.759 C 224.000 108.971,222.012 111.458,221.466 112.929 C 220.720 114.939,220.012 118.739,219.968 120.973 C 219.950 121.868,219.725 123.373,219.468 124.318 L 219.000 126.037 187.551 126.216 L 156.102 126.395 155.673 124.697 C 155.437 123.764,155.123 122.010,154.976 120.800 C 154.829 119.590,154.625 118.060,154.523 117.400 C 154.420 116.740,154.284 115.840,154.219 115.400 C 154.155 114.960,154.057 114.555,154.001 114.500 C 153.861 114.362,153.710 113.714,153.650 113.001 C 153.539 111.668,150.731 109.202,148.651 108.611 C 147.093 108.169,137.447 106.400,136.593 106.400 C 136.514 106.400,136.483 105.815,136.524 105.100 C 136.591 103.961,137.283 102.849,139.081 100.992 C 139.345 100.719,139.480 100.384,139.381 100.248 C 139.281 100.111,139.308 100.078,139.440 100.173 C 139.571 100.268,140.355 99.994,141.181 99.563 C 142.974 98.629,143.519 98.785,144.677 100.568 C 146.803 103.841,151.949 104.972,163.332 104.665 C 170.827 104.462,171.545 104.399,173.600 103.764 C 174.150 103.594,174.690 103.447,174.800 103.438 C 174.910 103.428,175.321 103.146,175.713 102.810 C 176.105 102.475,176.645 102.192,176.913 102.182 C 177.181 102.172,177.353 101.942,177.296 101.671 C 177.239 101.400,177.463 101.074,177.794 100.947 C 178.125 100.820,178.296 100.555,178.174 100.358 C 178.052 100.161,178.154 100.000,178.400 100.000 C 178.646 100.000,178.744 99.832,178.617 99.628 C 178.491 99.423,178.573 99.140,178.800 99.000 C 179.027 98.860,179.109 98.577,178.983 98.372 C 178.856 98.168,178.890 97.778,179.057 97.507 C 179.401 96.952,179.450 96.683,179.777 93.600 C 180.076 90.789,180.732 87.542,181.131 86.905 C 181.459 86.382,193.464 86.200,227.676 86.200 L 243.951 86.200 244.343 87.800 M170.389 88.391 C 171.216 89.046,172.398 90.547,173.016 91.727 L 174.138 93.872 173.042 95.309 C 170.441 98.720,169.970 98.876,162.488 98.819 C 154.961 98.761,154.209 98.527,151.042 95.256 L 149.483 93.647 150.591 91.382 C 152.351 87.786,153.974 87.209,162.342 87.204 L 168.885 87.200 170.389 88.391 M269.943 87.971 C 271.571 88.801,274.166 91.448,274.872 92.999 C 275.696 94.807,270.032 100.805,268.042 100.232 C 267.689 100.131,264.970 99.829,262.000 99.561 C 255.967 99.018,254.930 98.614,252.607 95.900 C 250.635 93.596,251.316 91.193,254.763 88.292 C 256.503 86.828,267.258 86.601,269.943 87.971 M189.800 95.748 C 186.722 96.523,183.555 98.956,184.221 100.034 C 184.345 100.235,184.257 100.400,184.024 100.400 C 183.791 100.400,183.621 100.535,183.647 100.700 C 183.673 100.865,183.660 101.090,183.617 101.200 C 181.986 105.383,182.896 112.069,185.442 114.615 C 187.867 117.040,201.498 118.535,208.000 117.089 C 208.770 116.917,209.939 116.695,210.598 116.595 C 211.257 116.495,211.857 116.229,211.932 116.004 C 212.007 115.779,212.233 115.697,212.434 115.821 C 212.635 115.945,212.800 115.846,212.800 115.600 C 212.800 115.354,212.952 115.247,213.139 115.362 C 213.579 115.634,215.697 113.430,215.339 113.072 C 215.189 112.923,215.277 112.800,215.533 112.800 C 215.790 112.800,215.979 112.665,215.953 112.500 C 215.927 112.335,215.949 112.065,216.003 111.900 C 216.056 111.735,216.145 111.420,216.200 111.200 C 216.255 110.980,216.336 110.755,216.381 110.700 C 216.998 109.935,216.995 102.496,216.378 101.700 C 216.335 101.645,216.269 101.465,216.230 101.300 C 215.909 99.916,215.359 98.838,214.511 97.932 C 213.654 97.016,213.106 96.735,211.100 96.183 C 210.935 96.137,210.755 96.055,210.700 95.999 C 209.997 95.289,192.460 95.078,189.800 95.748 M204.899 101.155 C 207.275 101.451,208.896 102.572,210.828 105.252 L 211.586 106.305 210.293 107.937 C 207.525 111.431,207.050 111.600,199.982 111.600 L 193.720 111.600 192.113 110.436 C 190.713 109.422,189.599 108.163,188.671 106.548 C 188.350 105.989,190.248 103.551,192.231 101.976 C 193.820 100.712,198.784 100.391,204.899 101.155 M283.200 112.042 C 285.058 113.156,286.671 114.701,287.683 116.335 C 288.530 117.705,289.299 192.744,288.569 202.883 C 288.273 206.994,288.377 206.919,282.000 207.591 C 274.595 208.370,271.554 210.290,270.960 214.560 C 270.896 215.022,270.738 215.850,270.609 216.400 C 270.329 217.598,270.344 232.323,270.628 234.600 C 271.151 238.793,272.976 242.279,275.112 243.163 C 276.206 243.617,276.583 244.750,275.875 245.459 C 275.724 245.610,275.600 246.074,275.600 246.490 C 275.600 246.961,275.425 247.139,275.138 246.962 C 274.856 246.788,274.785 246.852,274.955 247.127 C 275.367 247.793,273.996 249.684,273.296 249.416 C 272.882 249.257,272.784 249.381,272.960 249.840 C 273.135 250.297,273.037 250.423,272.630 250.267 C 272.312 250.145,271.988 250.235,271.911 250.468 C 271.018 253.145,264.190 249.492,261.976 245.153 C 261.176 243.584,260.784 178.666,261.473 161.748 L 261.703 156.096 263.151 155.676 C 263.948 155.445,265.860 155.150,267.400 155.020 C 278.227 154.110,280.049 151.582,279.957 137.600 C 279.884 126.471,279.102 123.065,275.972 120.251 C 273.625 118.141,273.648 118.312,275.373 115.750 C 277.912 111.981,280.808 110.609,283.200 112.042 M138.598 113.007 C 144.570 113.669,145.562 114.101,147.773 117.000 C 149.294 118.994,148.657 120.991,145.628 123.727 L 143.998 125.200 137.459 125.200 C 130.074 125.200,129.156 124.887,126.422 121.434 C 124.677 119.229,124.575 118.418,125.749 116.100 C 127.613 112.422,129.413 111.989,138.598 113.007 M246.022 114.748 C 247.000 115.379,248.391 116.520,249.114 117.282 L 250.428 118.667 249.114 120.620 C 248.391 121.695,247.021 123.164,246.069 123.887 L 244.338 125.200 237.660 125.200 L 230.982 125.200 229.578 124.042 C 225.721 120.863,225.496 118.530,228.752 115.483 L 230.766 113.600 237.505 113.600 L 244.243 113.600 246.022 114.748 M270.902 126.737 C 273.884 129.925,274.000 130.325,274.000 137.459 C 274.000 144.480,273.690 145.416,270.581 147.787 C 268.881 149.084,268.277 149.061,266.019 147.613 C 262.533 145.375,262.400 144.995,262.400 137.288 L 262.400 130.544 263.876 128.819 C 265.282 127.177,268.197 124.800,268.805 124.800 C 268.962 124.800,269.906 125.672,270.902 126.737 M220.521 137.063 C 222.129 137.894,224.636 140.510,225.558 142.319 C 226.786 144.726,224.371 148.169,219.838 150.473 C 218.539 151.134,216.604 152.570,215.538 153.664 L 213.600 155.653 213.600 162.563 C 213.600 166.363,213.716 172.246,213.858 175.636 L 214.115 181.800 216.197 183.900 C 218.740 186.466,218.627 186.465,221.368 183.960 L 223.600 181.920 223.600 175.320 C 223.600 166.794,225.031 163.845,230.299 161.515 C 231.320 161.063,233.020 159.806,234.078 158.720 L 236.000 156.747 236.004 150.273 C 236.008 142.878,236.696 140.839,239.995 138.450 C 243.526 135.892,245.323 136.110,248.617 139.497 C 251.414 142.371,251.213 138.695,251.207 187.037 L 251.201 230.889 250.122 232.872 C 248.856 235.198,247.117 236.823,244.442 238.179 C 243.382 238.716,241.678 240.085,240.657 241.221 L 238.800 243.287 238.800 249.683 C 238.800 256.880,238.587 257.687,235.972 260.381 C 231.314 265.181,218.686 265.181,214.028 260.381 C 211.090 257.354,211.200 258.255,211.200 237.147 L 211.200 218.215 208.673 215.798 C 205.000 212.283,205.090 212.961,204.823 186.800 L 204.600 165.000 203.400 162.600 C 201.143 158.086,200.155 157.876,181.200 157.873 C 157.835 157.869,157.737 157.940,157.887 174.800 C 157.925 179.090,158.049 183.140,158.161 183.800 C 158.640 186.608,158.868 187.408,159.226 187.534 C 159.434 187.608,159.513 187.818,159.400 188.001 C 159.006 188.638,161.612 190.740,163.698 191.467 C 165.453 192.079,167.066 192.200,173.457 192.200 C 183.806 192.200,182.739 190.592,182.739 206.200 C 182.739 221.467,183.703 219.857,174.400 220.134 C 168.229 220.317,165.400 220.519,165.400 220.777 C 165.400 220.820,164.896 220.921,164.280 221.002 C 161.628 221.351,159.297 223.675,158.302 226.960 C 157.574 229.364,157.675 246.937,158.422 247.900 C 158.465 247.955,158.545 248.180,158.600 248.400 C 158.655 248.620,158.736 248.845,158.781 248.900 C 158.825 248.955,158.925 249.342,159.004 249.760 C 159.083 250.178,159.384 250.670,159.673 250.854 C 159.963 251.037,160.037 251.191,159.838 251.194 C 159.639 251.197,159.787 251.543,160.167 251.963 C 161.315 253.232,164.371 254.292,168.800 254.960 C 176.895 256.179,176.643 256.061,175.339 258.011 C 172.137 262.798,170.325 263.600,162.702 263.600 C 154.873 263.600,152.642 262.702,149.958 258.469 L 148.800 256.643 148.800 249.923 L 148.800 243.202 147.338 241.585 C 146.535 240.695,145.368 239.604,144.745 239.161 L 143.614 238.355 141.565 240.271 C 140.439 241.325,139.007 243.198,138.383 244.434 C 134.526 252.075,129.294 252.780,125.087 246.225 L 123.800 244.218 123.657 212.777 C 123.516 181.639,123.523 181.319,124.342 179.714 C 125.510 177.424,127.314 175.754,130.151 174.337 C 131.519 173.653,133.463 172.205,134.555 171.057 L 136.510 169.000 136.243 162.707 C 135.887 154.324,136.883 152.244,142.800 149.000 C 145.980 147.257,147.518 145.724,148.979 142.842 C 150.345 140.146,151.802 138.529,153.995 137.276 L 155.880 136.200 187.640 136.342 C 214.393 136.461,219.577 136.575,220.521 137.063 M196.563 165.711 L 198.674 167.821 198.960 185.047 C 199.118 194.521,199.137 202.711,199.002 203.248 C 198.868 203.785,199.127 207.896,199.579 212.382 C 200.202 218.571,200.400 223.353,200.400 232.199 L 200.400 243.859 199.041 245.771 C 198.294 246.822,196.822 248.294,195.771 249.041 L 193.859 250.400 188.030 250.383 C 166.694 250.319,163.600 248.691,163.600 237.527 C 163.600 227.352,164.946 226.000,175.072 226.000 C 182.353 226.000,183.043 225.791,185.828 222.744 C 188.506 219.813,188.400 220.488,188.400 206.398 C 188.400 191.923,188.403 191.942,185.253 189.095 C 182.397 186.515,181.943 186.400,174.629 186.400 L 168.017 186.400 165.809 184.191 L 163.600 181.983 163.600 175.035 L 163.600 168.087 165.843 165.843 L 168.087 163.600 181.270 163.600 L 194.452 163.600 196.563 165.711 M283.143 214.371 C 283.974 214.795,285.317 215.876,286.127 216.772 L 287.600 218.402 287.600 225.447 C 287.600 233.562,287.201 234.862,284.169 236.639 C 281.426 238.247,279.840 237.498,277.213 233.356 L 276.000 231.443 276.000 224.858 L 276.000 218.272 278.336 215.936 C 280.950 213.322,281.034 213.295,283.143 214.371 " stroke="none" fill="#7c0c2c" fill-rule="evenodd"></path><path id="path1" d="M135.600 81.353 C 135.600 81.438,136.050 81.593,136.600 81.698 C 137.150 81.803,137.600 81.734,137.600 81.545 C 137.600 81.355,137.150 81.200,136.600 81.200 C 136.050 81.200,135.600 81.269,135.600 81.353 M131.200 86.600 C 131.200 87.150,131.355 87.600,131.545 87.600 C 131.734 87.600,131.803 87.150,131.698 86.600 C 131.593 86.050,131.438 85.600,131.353 85.600 C 131.269 85.600,131.200 86.050,131.200 86.600 M195.500 92.700 L 181.200 92.810 181.177 93.705 C 180.913 103.932,180.435 105.067,176.157 105.619 C 172.817 106.049,151.466 106.064,147.000 105.639 C 145.240 105.471,143.575 105.413,143.300 105.510 C 141.959 105.981,143.198 106.311,147.276 106.569 C 154.817 107.047,155.377 107.618,155.837 115.308 L 156.114 119.938 187.457 119.869 L 218.801 119.800 218.982 118.600 C 219.082 117.940,219.237 115.774,219.326 113.787 C 219.528 109.316,220.202 107.820,222.301 107.180 C 224.385 106.544,242.848 106.246,250.200 106.729 C 255.199 107.058,256.298 107.030,256.786 106.562 C 257.291 106.077,256.989 105.999,254.586 105.992 C 245.270 105.965,244.018 104.606,244.003 94.500 L 244.000 92.400 226.900 92.495 C 217.495 92.547,203.365 92.639,195.500 92.700 M215.646 94.865 C 217.663 95.770,218.049 97.132,218.291 104.200 C 218.793 118.843,219.257 118.519,198.079 118.324 C 180.544 118.163,181.883 119.001,181.667 108.044 C 181.440 96.539,181.812 95.104,185.200 94.419 C 188.547 93.744,213.977 94.116,215.646 94.865 M280.448 118.142 C 280.126 118.531,280.113 119.286,280.403 120.815 C 281.012 124.026,281.332 142.268,280.886 148.342 C 280.362 155.473,279.707 156.000,271.369 156.000 C 269.542 156.000,267.965 156.135,267.865 156.300 C 267.765 156.465,267.557 176.158,267.404 200.063 L 267.125 243.525 268.006 244.406 C 269.542 245.942,270.131 244.796,269.591 241.318 C 269.315 239.540,269.199 233.251,269.276 224.347 C 269.436 206.061,268.899 207.144,278.100 206.557 L 282.400 206.282 282.466 201.041 C 282.606 189.870,282.331 118.212,282.147 117.914 C 281.844 117.424,280.944 117.544,280.448 118.142 M155.420 143.200 C 155.133 143.530,154.776 144.700,154.628 145.800 C 153.793 151.980,152.020 153.786,145.992 154.593 C 142.408 155.072,142.400 155.090,142.397 162.762 C 142.391 176.090,141.153 178.530,133.872 179.561 C 132.372 179.774,130.890 180.159,130.578 180.418 C 129.623 181.211,129.927 243.941,130.889 244.547 C 131.924 245.200,132.481 244.392,132.842 241.715 C 133.844 234.303,135.953 232.582,144.000 232.616 C 153.543 232.655,154.822 234.415,155.103 247.884 C 155.316 258.161,154.555 257.250,162.820 257.110 C 170.950 256.973,172.117 256.227,164.714 255.901 C 156.201 255.526,156.599 256.405,156.602 238.000 C 156.604 217.916,155.415 219.490,170.800 219.200 L 181.400 219.000 181.506 206.300 L 181.611 193.600 173.106 193.582 C 162.770 193.561,159.014 193.192,157.909 192.087 C 156.773 190.951,156.288 183.624,156.489 170.600 C 156.664 159.196,156.832 158.299,159.004 157.204 C 160.640 156.378,200.938 156.294,203.241 157.112 C 205.864 158.043,205.787 157.287,205.920 183.486 L 206.041 207.171 207.520 207.412 C 217.332 209.007,217.628 209.868,217.545 236.576 C 217.497 251.725,217.595 256.112,217.991 256.589 C 218.665 257.401,231.261 257.502,231.901 256.700 C 232.120 256.425,232.398 252.960,232.520 249.000 C 232.899 236.630,234.295 233.986,241.109 232.733 C 244.754 232.062,244.568 232.379,244.855 226.358 C 245.507 212.657,245.149 143.678,244.423 143.021 C 242.874 141.619,242.494 143.116,242.301 151.400 C 242.024 163.252,240.812 165.501,233.984 166.841 C 229.847 167.654,229.980 167.349,230.014 175.969 C 230.045 183.780,229.684 186.593,228.373 188.748 C 226.266 192.213,217.065 193.324,211.724 190.757 C 208.166 189.047,207.549 185.649,207.463 167.261 C 207.374 148.187,208.172 146.303,216.903 144.994 C 219.024 144.676,220.021 143.861,219.243 143.083 C 218.439 142.280,156.122 142.394,155.420 143.200 M274.800 268.455 C 274.800 268.645,275.250 268.800,275.800 268.800 C 276.350 268.800,276.800 268.731,276.800 268.647 C 276.800 268.562,276.350 268.407,275.800 268.302 C 275.250 268.197,274.800 268.266,274.800 268.455 M268.302 275.800 C 268.407 276.350,268.562 276.800,268.647 276.800 C 268.731 276.800,268.800 276.350,268.800 275.800 C 268.800 275.250,268.645 274.800,268.455 274.800 C 268.266 274.800,268.197 275.250,268.302 275.800 " stroke="none" fill="#9c0434" fill-rule="evenodd"></path><path id="path2" d="M144.349 69.500 C 143.872 70.109,143.878 70.140,144.400 69.743 C 144.730 69.492,145.360 69.198,145.800 69.089 C 146.560 68.903,146.557 68.890,145.749 68.846 C 145.281 68.821,144.651 69.115,144.349 69.500 M304.200 69.089 C 304.640 69.198,305.270 69.492,305.600 69.743 C 306.122 70.140,306.128 70.109,305.651 69.500 C 305.349 69.115,304.719 68.821,304.251 68.846 C 303.443 68.890,303.440 68.903,304.200 69.089 M143.737 78.200 C 143.739 79.960,143.809 80.630,143.893 79.689 C 143.978 78.749,143.977 77.309,143.891 76.489 C 143.805 75.670,143.736 76.440,143.737 78.200 M306.196 156.400 C 306.196 201.170,306.243 219.485,306.300 197.100 C 306.357 174.715,306.357 138.085,306.300 115.700 C 306.243 93.315,306.196 111.630,306.196 156.400 M133.700 81.476 C 134.085 81.576,134.715 81.576,135.100 81.476 C 135.485 81.375,135.170 81.293,134.400 81.293 C 133.630 81.293,133.315 81.375,133.700 81.476 M131.293 84.400 C 131.293 85.170,131.375 85.485,131.476 85.100 C 131.576 84.715,131.576 84.085,131.476 83.700 C 131.375 83.315,131.293 83.630,131.293 84.400 M153.750 88.162 C 151.988 88.983,151.543 89.436,150.591 91.382 L 149.483 93.647 151.042 95.256 C 154.209 98.527,154.961 98.761,162.488 98.819 C 169.970 98.876,170.441 98.720,173.042 95.309 L 174.138 93.872 173.016 91.727 C 172.398 90.547,171.216 89.046,170.389 88.391 L 168.885 87.200 162.342 87.204 C 156.291 87.208,155.646 87.279,153.750 88.162 M254.763 88.292 C 251.316 91.193,250.635 93.596,252.607 95.900 C 254.930 98.614,255.967 99.018,262.000 99.561 C 264.970 99.829,267.689 100.131,268.042 100.232 C 270.032 100.805,275.696 94.807,274.872 92.999 C 274.166 91.448,271.571 88.801,269.943 87.971 C 267.258 86.601,256.503 86.828,254.763 88.292 M126.711 93.893 C 127.651 93.978,129.091 93.977,129.911 93.891 C 130.730 93.805,129.960 93.736,128.200 93.737 C 126.440 93.739,125.770 93.809,126.711 93.893 M119.280 94.480 C 119.016 94.744,118.821 95.329,118.846 95.780 C 118.892 96.583,118.897 96.584,119.089 95.800 C 119.198 95.360,119.469 94.775,119.692 94.500 C 120.210 93.862,119.912 93.848,119.280 94.480 M192.231 101.976 C 190.248 103.551,188.350 105.989,188.671 106.548 C 189.599 108.163,190.713 109.422,192.113 110.436 L 193.720 111.600 199.982 111.600 C 207.050 111.600,207.525 111.431,210.293 107.937 L 211.586 106.305 210.828 105.252 C 208.040 101.384,206.647 100.898,198.155 100.834 C 193.816 100.801,193.675 100.828,192.231 101.976 M128.481 113.252 C 124.984 114.983,124.099 118.499,126.422 121.434 C 129.156 124.887,130.074 125.200,137.459 125.200 L 143.998 125.200 145.628 123.727 C 148.657 120.991,149.294 118.994,147.773 117.000 C 145.562 114.101,144.570 113.669,138.598 113.007 C 131.459 112.215,130.529 112.238,128.481 113.252 M228.752 115.483 C 225.496 118.530,225.721 120.863,229.578 124.042 L 230.982 125.200 237.660 125.200 L 244.338 125.200 246.069 123.887 C 247.021 123.164,248.391 121.695,249.114 120.620 L 250.428 118.667 249.114 117.282 C 248.391 116.520,247.000 115.379,246.022 114.748 L 244.243 113.600 237.505 113.600 L 230.766 113.600 228.752 115.483 M266.936 125.947 C 266.065 126.578,264.688 127.871,263.876 128.819 L 262.400 130.544 262.400 137.288 C 262.400 144.995,262.533 145.375,266.019 147.613 C 268.277 149.061,268.881 149.084,270.581 147.787 C 273.690 145.416,274.000 144.480,274.000 137.459 C 274.000 130.325,273.884 129.925,270.902 126.737 C 268.769 124.456,268.946 124.491,266.936 125.947 M165.843 165.843 L 163.600 168.087 163.600 175.035 L 163.600 181.983 165.809 184.191 L 168.017 186.400 174.629 186.400 C 181.943 186.400,182.397 186.515,185.253 189.095 C 188.403 191.942,188.400 191.923,188.400 206.398 C 188.400 220.488,188.506 219.813,185.828 222.744 C 183.043 225.791,182.353 226.000,175.072 226.000 C 164.946 226.000,163.600 227.352,163.600 237.527 C 163.600 248.691,166.694 250.319,188.030 250.383 L 193.859 250.400 195.771 249.041 C 196.822 248.294,198.294 246.822,199.041 245.771 L 200.400 243.859 200.400 232.199 C 200.400 223.353,200.202 218.571,199.579 212.382 C 199.127 207.896,198.868 203.785,199.002 203.248 C 199.137 202.711,199.118 194.521,198.960 185.047 L 198.674 167.821 196.563 165.711 L 194.452 163.600 181.270 163.600 L 168.087 163.600 165.843 165.843 M278.336 215.936 L 276.000 218.272 276.000 224.858 L 276.000 231.443 277.213 233.356 C 279.840 237.498,281.426 238.247,284.169 236.639 C 287.201 234.862,287.600 233.562,287.600 225.447 L 287.600 218.402 286.127 216.772 C 284.726 215.221,282.184 213.600,281.152 213.600 C 280.888 213.600,279.621 214.651,278.336 215.936 M282.700 256.293 C 283.635 256.377,285.165 256.377,286.100 256.293 C 287.035 256.209,286.270 256.140,284.400 256.140 C 282.530 256.140,281.765 256.209,282.700 256.293 M280.800 266.653 C 280.800 267.086,280.584 267.656,280.320 267.920 C 279.955 268.285,279.953 268.400,280.312 268.400 C 280.834 268.400,281.442 266.509,281.048 266.115 C 280.912 265.978,280.800 266.221,280.800 266.653 M277.300 268.676 C 277.685 268.776,278.315 268.776,278.700 268.676 C 279.085 268.575,278.770 268.493,278.000 268.493 C 277.230 268.493,276.915 268.575,277.300 268.676 M268.493 278.000 C 268.493 278.770,268.575 279.085,268.676 278.700 C 268.776 278.315,268.776 277.685,268.676 277.300 C 268.575 276.915,268.493 277.230,268.493 278.000 M267.773 280.368 C 267.568 280.563,267.040 280.809,266.600 280.915 L 265.800 281.107 266.600 281.147 C 267.491 281.192,268.697 280.563,268.362 280.228 C 268.243 280.110,267.979 280.173,267.773 280.368 " stroke="none" fill="#040404" fill-rule="evenodd"></path><path id="path3" d="M148.305 69.083 C 148.802 69.179,149.522 69.175,149.905 69.075 C 150.287 68.975,149.880 68.896,149.000 68.901 C 148.120 68.905,147.807 68.987,148.305 69.083 M299.900 69.082 C 300.395 69.178,301.205 69.178,301.700 69.082 C 302.195 68.987,301.790 68.909,300.800 68.909 C 299.810 68.909,299.405 68.987,299.900 69.082 M144.623 70.089 C 144.280 70.578,144.016 71.343,144.036 71.789 C 144.059 72.309,144.209 72.126,144.452 71.281 C 144.670 70.526,145.210 69.810,145.716 69.606 C 146.369 69.344,146.423 69.244,145.923 69.225 C 145.550 69.211,144.965 69.600,144.623 70.089 M304.288 69.608 C 304.788 69.809,305.284 70.453,305.423 71.083 C 305.819 72.873,305.935 73.066,305.968 71.989 C 306.008 70.714,304.967 69.192,304.077 69.225 C 303.579 69.244,303.635 69.345,304.288 69.608 M137.695 81.429 C 137.821 81.554,138.948 81.657,140.200 81.657 C 141.452 81.657,142.579 81.554,142.705 81.429 C 142.830 81.303,141.703 81.200,140.200 81.200 C 138.697 81.200,137.570 81.303,137.695 81.429 M132.262 82.331 C 131.898 82.734,131.614 83.409,131.632 83.831 C 131.655 84.410,131.760 84.335,132.057 83.525 C 132.273 82.933,132.933 82.273,133.525 82.057 C 134.436 81.723,134.473 81.658,133.762 81.632 C 133.301 81.614,132.626 81.929,132.262 82.331 M131.200 90.200 C 131.200 91.703,131.303 92.830,131.429 92.705 C 131.554 92.579,131.657 91.452,131.657 90.200 C 131.657 88.948,131.554 87.821,131.429 87.695 C 131.303 87.570,131.200 88.697,131.200 90.200 M120.089 94.623 C 119.600 94.965,119.211 95.550,119.225 95.923 C 119.244 96.423,119.344 96.369,119.606 95.716 C 119.810 95.210,120.526 94.670,121.281 94.452 C 122.126 94.209,122.309 94.059,121.789 94.036 C 121.343 94.016,120.578 94.280,120.089 94.623 M118.901 99.000 C 118.905 99.880,118.987 100.193,119.083 99.695 C 119.179 99.198,119.175 98.478,119.075 98.095 C 118.975 97.713,118.896 98.120,118.901 99.000 M247.291 101.137 C 247.841 101.947,249.608 103.469,249.596 103.123 C 249.593 103.055,248.931 102.370,248.123 101.600 C 247.211 100.731,246.896 100.555,247.291 101.137 M176.494 102.012 C 175.775 102.665,175.337 103.200,175.519 103.200 C 175.701 103.200,176.368 102.660,177.000 102.000 C 178.470 100.465,178.186 100.472,176.494 102.012 M109.300 106.676 C 109.685 106.776,110.315 106.776,110.700 106.676 C 111.085 106.575,110.770 106.493,110.000 106.493 C 109.230 106.493,108.915 106.575,109.300 106.676 M240.500 107.891 C 241.325 107.978,242.675 107.978,243.500 107.891 C 244.325 107.805,243.650 107.734,242.000 107.734 C 240.350 107.734,239.675 107.805,240.500 107.891 M106.493 110.000 C 106.493 110.770,106.575 111.085,106.676 110.700 C 106.776 110.315,106.776 109.685,106.676 109.300 C 106.575 108.915,106.493 109.230,106.493 110.000 M179.116 157.897 C 180.499 157.975,182.659 157.974,183.916 157.895 C 185.172 157.816,184.040 157.752,181.400 157.753 C 178.760 157.753,177.732 157.818,179.116 157.897 M157.731 179.400 C 157.733 180.940,157.805 181.521,157.892 180.691 C 157.979 179.861,157.977 178.601,157.889 177.891 C 157.800 177.181,157.729 177.860,157.731 179.400 M177.500 192.289 C 178.215 192.378,179.385 192.378,180.100 192.289 C 180.815 192.201,180.230 192.128,178.800 192.128 C 177.370 192.128,176.785 192.201,177.500 192.289 M270.163 225.200 C 270.163 228.830,270.223 230.315,270.298 228.500 C 270.372 226.685,270.372 223.715,270.298 221.900 C 270.223 220.085,270.163 221.570,270.163 225.200 M305.646 240.700 C 305.621 241.195,305.240 241.960,304.800 242.400 C 304.166 243.034,304.127 243.200,304.610 243.200 C 305.300 243.200,306.120 241.389,305.863 240.432 C 305.757 240.038,305.675 240.139,305.646 240.700 M301.700 243.476 C 302.085 243.576,302.715 243.576,303.100 243.476 C 303.485 243.375,303.170 243.293,302.400 243.293 C 301.630 243.293,301.315 243.375,301.700 243.476 M293.293 252.400 C 293.293 253.170,293.375 253.485,293.476 253.100 C 293.576 252.715,293.576 252.085,293.476 251.700 C 293.375 251.315,293.293 251.630,293.293 252.400 M292.692 254.504 C 292.552 254.869,291.844 255.354,291.119 255.582 L 289.800 255.997 291.188 255.791 C 292.761 255.557,293.368 255.105,293.118 254.355 C 292.997 253.991,292.872 254.035,292.692 254.504 M280.901 263.400 C 280.905 264.280,280.987 264.593,281.083 264.095 C 281.179 263.598,281.175 262.878,281.075 262.495 C 280.975 262.113,280.896 262.520,280.901 263.400 M280.195 266.887 C 279.978 267.375,279.350 267.897,278.800 268.047 C 277.890 268.296,277.879 268.324,278.671 268.360 C 279.650 268.405,280.800 267.439,280.800 266.571 C 280.800 265.779,280.654 265.855,280.195 266.887 M271.000 268.416 C 270.082 268.637,270.402 268.716,272.367 268.753 C 273.778 268.779,274.858 268.736,274.767 268.657 C 274.348 268.299,272.085 268.154,271.000 268.416 M268.400 270.576 C 268.400 271.113,268.211 271.669,267.981 271.812 C 267.712 271.978,267.698 272.238,267.942 272.536 C 268.152 272.791,268.406 273.450,268.507 274.000 C 268.608 274.550,268.716 273.785,268.746 272.300 C 268.775 270.815,268.710 269.600,268.600 269.600 C 268.490 269.600,268.400 270.039,268.400 270.576 M267.928 278.890 C 267.858 279.379,267.350 280.007,266.800 280.284 C 266.116 280.629,266.012 280.790,266.471 280.794 C 267.372 280.802,268.400 279.724,268.400 278.771 C 268.400 277.718,268.085 277.797,267.928 278.890 M106.825 279.251 C 106.793 280.074,107.810 280.941,108.487 280.669 C 108.804 280.542,108.728 280.451,108.287 280.432 C 107.895 280.414,107.411 279.995,107.212 279.500 C 106.968 278.891,106.843 278.810,106.825 279.251 M260.800 280.312 C 260.800 280.914,262.364 281.313,263.852 281.091 C 264.761 280.955,264.663 280.907,263.380 280.860 C 262.489 280.827,261.544 280.584,261.280 280.320 C 260.915 279.955,260.800 279.953,260.800 280.312 M110.700 281.082 C 111.195 281.178,112.005 281.178,112.500 281.082 C 112.995 280.987,112.590 280.909,111.600 280.909 C 110.610 280.909,110.205 280.987,110.700 281.082 " stroke="none" fill="#80081c" fill-rule="evenodd"></path><path id="path4" d="M196.337 86.305 L 181.275 86.410 180.824 87.702 C 180.577 88.413,180.198 90.706,179.983 92.797 C 178.905 103.277,177.342 104.436,163.925 104.704 C 151.839 104.945,146.819 103.867,144.677 100.568 C 143.519 98.785,142.974 98.629,141.181 99.563 C 140.355 99.994,139.571 100.268,139.440 100.173 C 139.308 100.078,139.281 100.111,139.381 100.248 C 139.480 100.384,139.345 100.719,139.081 100.992 C 137.283 102.849,136.591 103.961,136.524 105.100 C 136.483 105.815,136.514 106.400,136.593 106.400 C 137.434 106.400,147.080 108.165,148.606 108.598 C 152.480 109.698,154.004 112.276,154.785 119.051 C 155.036 121.223,155.434 123.764,155.672 124.697 L 156.102 126.395 187.551 126.216 L 219.000 126.037 219.468 124.318 C 219.725 123.373,219.957 121.790,219.983 120.800 C 220.270 109.760,222.956 107.800,237.800 107.800 C 250.272 107.800,254.596 109.006,255.807 112.823 C 256.408 114.714,263.600 108.839,263.600 106.458 C 263.600 106.261,261.035 105.701,257.900 105.214 C 247.496 103.598,245.854 101.917,244.994 92.000 C 244.851 90.350,244.554 88.370,244.333 87.600 L 243.933 86.200 227.666 86.200 C 218.720 86.200,204.622 86.247,196.337 86.305 M244.003 94.500 C 244.018 104.606,245.270 105.965,254.586 105.992 C 256.989 105.999,257.291 106.077,256.786 106.562 C 256.298 107.030,255.199 107.058,250.200 106.729 C 242.848 106.246,224.385 106.544,222.301 107.180 C 220.202 107.820,219.528 109.316,219.326 113.787 C 219.237 115.774,219.082 117.940,218.982 118.600 L 218.801 119.800 187.457 119.869 L 156.114 119.938 155.837 115.308 C 155.377 107.618,154.817 107.047,147.276 106.569 C 143.198 106.311,141.959 105.981,143.300 105.510 C 143.575 105.413,145.240 105.471,147.000 105.639 C 151.466 106.064,172.817 106.049,176.157 105.619 C 180.435 105.067,180.913 103.932,181.177 93.705 L 181.200 92.810 195.500 92.700 C 203.365 92.639,217.495 92.547,226.900 92.495 L 244.000 92.400 244.003 94.500 M185.200 94.419 C 181.812 95.104,181.440 96.539,181.667 108.044 C 181.883 119.001,180.544 118.163,198.079 118.324 C 219.257 118.519,218.793 118.843,218.291 104.200 C 217.931 93.693,218.898 94.243,200.600 94.136 C 193.120 94.092,186.190 94.220,185.200 94.419 M211.600 96.174 C 218.864 99.184,219.144 113.177,212.000 116.138 C 205.546 118.812,188.651 117.824,185.409 114.582 C 181.271 110.444,182.230 99.276,186.943 96.717 C 190.082 95.012,207.853 94.621,211.600 96.174 M278.642 112.455 C 276.970 113.563,274.000 117.196,274.000 118.134 C 274.000 118.323,274.887 119.276,275.972 120.251 C 279.102 123.065,279.983 126.920,279.985 137.800 C 279.987 151.623,278.166 154.115,267.400 155.020 C 265.860 155.150,263.948 155.445,263.151 155.676 L 261.703 156.096 261.473 161.748 C 260.784 178.666,261.176 243.584,261.976 245.153 C 264.190 249.492,271.018 253.145,271.911 250.468 C 271.988 250.235,272.312 250.145,272.630 250.267 C 273.037 250.423,273.135 250.297,272.960 249.840 C 272.784 249.381,272.882 249.257,273.296 249.416 C 273.996 249.684,275.367 247.793,274.955 247.127 C 274.785 246.852,274.856 246.788,275.138 246.962 C 275.425 247.139,275.600 246.961,275.600 246.490 C 275.600 246.074,275.724 245.610,275.875 245.459 C 276.583 244.750,276.206 243.617,275.112 243.163 C 271.934 241.847,270.450 237.179,270.117 227.449 C 269.581 211.781,271.422 208.704,282.000 207.591 C 288.377 206.919,288.273 206.994,288.569 202.883 C 289.299 192.744,288.530 117.705,287.683 116.335 C 284.925 111.879,281.640 110.469,278.642 112.455 M282.147 117.914 C 282.331 118.212,282.606 189.870,282.466 201.041 L 282.400 206.282 278.100 206.557 C 268.899 207.144,269.436 206.061,269.276 224.347 C 269.199 233.251,269.315 239.540,269.591 241.318 C 270.131 244.796,269.542 245.942,268.006 244.406 L 267.125 243.525 267.404 200.063 C 267.557 176.158,267.765 156.465,267.865 156.300 C 267.965 156.135,269.542 156.000,271.369 156.000 C 279.707 156.000,280.362 155.473,280.886 148.342 C 281.332 142.268,281.012 124.026,280.403 120.815 C 279.932 118.334,281.152 116.305,282.147 117.914 M153.995 137.276 C 151.802 138.529,150.345 140.146,148.979 142.842 C 147.518 145.724,145.980 147.257,142.800 149.000 C 136.883 152.244,135.887 154.324,136.243 162.707 L 136.510 169.000 134.555 171.057 C 133.463 172.205,131.519 173.653,130.151 174.337 C 127.314 175.754,125.510 177.424,124.342 179.714 C 123.523 181.319,123.516 181.639,123.657 212.777 L 123.800 244.218 125.087 246.225 C 129.294 252.780,134.526 252.075,138.383 244.434 C 139.007 243.198,140.439 241.325,141.565 240.271 L 143.614 238.355 144.745 239.161 C 145.368 239.604,146.535 240.695,147.338 241.585 L 148.800 243.202 148.800 249.923 L 148.800 256.643 149.958 258.469 C 152.642 262.702,154.873 263.600,162.702 263.600 C 169.842 263.600,170.946 263.229,173.931 259.821 C 176.955 256.369,176.892 256.250,171.600 255.412 C 162.215 253.925,160.761 253.332,159.307 250.400 C 157.956 247.675,157.600 244.957,157.600 237.365 C 157.600 222.157,159.174 220.481,173.800 220.108 C 183.804 219.854,182.739 221.510,182.739 206.200 C 182.739 190.848,183.870 192.531,173.400 192.298 C 158.800 191.973,157.800 190.852,157.800 174.800 C 157.800 158.035,157.949 157.918,179.664 157.694 C 198.873 157.495,201.075 157.950,203.400 162.600 L 204.600 165.000 204.823 186.800 C 205.090 212.961,205.000 212.283,208.673 215.798 L 211.200 218.215 211.200 237.147 C 211.200 258.255,211.090 257.354,214.028 260.381 C 218.686 265.181,231.314 265.181,235.972 260.381 C 238.587 257.687,238.800 256.880,238.800 249.683 L 238.800 243.287 240.657 241.221 C 241.678 240.085,243.382 238.716,244.442 238.179 C 247.117 236.823,248.856 235.198,250.122 232.872 L 251.201 230.889 251.207 187.037 C 251.213 138.695,251.414 142.371,248.617 139.497 C 245.323 136.110,243.526 135.892,239.995 138.450 C 236.696 140.839,236.008 142.878,236.004 150.273 L 236.000 156.747 234.078 158.720 C 233.020 159.806,231.320 161.063,230.299 161.515 C 225.031 163.845,223.600 166.794,223.600 175.320 L 223.600 181.920 221.368 183.960 C 218.627 186.465,218.740 186.466,216.197 183.900 L 214.115 181.800 213.858 175.636 C 213.716 172.246,213.600 166.363,213.600 162.563 L 213.600 155.653 215.538 153.664 C 216.604 152.570,218.539 151.134,219.838 150.473 C 222.326 149.208,224.181 147.503,225.535 145.235 C 226.530 143.570,225.874 141.874,223.205 139.205 C 220.299 136.299,222.775 136.498,187.640 136.342 L 155.880 136.200 153.995 137.276 M219.243 143.083 C 220.021 143.861,219.024 144.676,216.903 144.994 C 208.172 146.303,207.374 148.187,207.463 167.261 C 207.549 185.649,208.166 189.047,211.724 190.757 C 217.065 193.324,226.266 192.213,228.373 188.748 C 229.684 186.593,230.045 183.780,230.014 175.969 C 229.980 167.349,229.847 167.654,233.984 166.841 C 240.812 165.501,242.024 163.252,242.301 151.400 C 242.494 143.116,242.874 141.619,244.423 143.021 C 245.149 143.678,245.507 212.657,244.855 226.358 C 244.568 232.379,244.754 232.062,241.109 232.733 C 234.295 233.986,232.899 236.630,232.520 249.000 C 232.398 252.960,232.120 256.425,231.901 256.700 C 231.261 257.502,218.665 257.401,217.991 256.589 C 217.595 256.112,217.497 251.725,217.545 236.576 C 217.628 209.868,217.332 209.007,207.520 207.412 L 206.041 207.171 205.920 183.486 C 205.787 157.287,205.864 158.043,203.241 157.112 C 200.938 156.294,160.640 156.378,159.004 157.204 C 156.832 158.299,156.664 159.196,156.489 170.600 C 156.288 183.624,156.773 190.951,157.909 192.087 C 159.014 193.192,162.770 193.561,173.106 193.582 L 181.611 193.600 181.506 206.300 L 181.400 219.000 170.800 219.200 C 155.415 219.490,156.604 217.916,156.602 238.000 C 156.599 256.405,156.201 255.526,164.714 255.901 C 172.117 256.227,170.950 256.973,162.820 257.110 C 154.555 257.250,155.316 258.161,155.103 247.884 C 154.822 234.415,153.543 232.655,144.000 232.616 C 135.953 232.582,133.844 234.303,132.842 241.715 C 132.481 244.392,131.924 245.200,130.889 244.547 C 129.927 243.941,129.623 181.211,130.578 180.418 C 130.890 180.159,132.372 179.774,133.872 179.561 C 141.153 178.530,142.391 176.090,142.397 162.762 C 142.400 155.090,142.408 155.072,145.992 154.593 C 152.020 153.786,153.793 151.980,154.628 145.800 C 155.100 142.303,152.066 142.600,187.351 142.600 C 211.356 142.600,218.873 142.714,219.243 143.083 " stroke="none" fill="#900838" fill-rule="evenodd"></path></g></svg>