<?xml version="1.0" encoding="UTF-8"?>
<!DOCTYPE svg PUBLIC "-//W3C//DTD SVG 1.1//EN" "http://www.w3.org/Graphics/SVG/1.1/DTD/svg11.dtd">
<svg xmlns="http://www.w3.org/2000/svg" version="1.1" width="16px" height="16px" style="shape-rendering:geometricPrecision; text-rendering:geometricPrecision; image-rendering:optimizeQuality; fill-rule:evenodd; clip-rule:evenodd" xmlns:xlink="http://www.w3.org/1999/xlink">
<g><path style="opacity:1" fill="#dd141e" d="M 3.5,2.5 C 8.15782,1.51424 11.8245,2.84757 14.5,6.5C 14,6.83333 13.5,7.16667 13,7.5C 11.527,5.95375 9.69364,4.95375 7.5,4.5C 5.34028,4.766 3.67361,5.766 2.5,7.5C 1.69194,7.19238 1.02527,6.69238 0.5,6C 1.7101,4.9609 2.7101,3.79423 3.5,2.5 Z"/></g>
<g><path style="opacity:1" fill="#ba0611" d="M 5.5,6.5 C 9.00437,6.25398 11.671,7.92065 13.5,11.5C 9.5,12.8333 5.5,12.8333 1.5,11.5C 2.50764,9.50083 3.84097,7.83416 5.5,6.5 Z"/></g>
<g><path style="opacity:1" fill="#f9faf9" d="M 6.5,9.5 C 7.30225,8.1153 7.96892,8.28197 8.5,10C 8.16667,10.5 7.83333,11 7.5,11.5C 7.21285,10.7997 6.87952,10.1331 6.5,9.5 Z"/></g>
</svg>
