<?xml version="1.0" encoding="UTF-8"?>
<!DOCTYPE svg PUBLIC "-//W3C//DTD SVG 1.1//EN" "http://www.w3.org/Graphics/SVG/1.1/DTD/svg11.dtd">
<svg xmlns="http://www.w3.org/2000/svg" version="1.1" width="16px" height="16px" style="shape-rendering:geometricPrecision; text-rendering:geometricPrecision; image-rendering:optimizeQuality; fill-rule:evenodd; clip-rule:evenodd" xmlns:xlink="http://www.w3.org/1999/xlink">
<g><path style="opacity:1" fill="#aeafae" d="M 13.5,2.5 C 12.8333,2.5 12.1667,2.5 11.5,2.5C 8.83333,1.16667 6.16667,1.16667 3.5,2.5C 2.83333,2.5 2.16667,2.5 1.5,2.5C 3.04775,1.20574 5.04775,0.539075 7.5,0.5C 9.95225,0.539075 11.9522,1.20574 13.5,2.5 Z"/></g>
<g><path style="opacity:1" fill="#ba0611" d="M 1.5,2.5 C 2.16667,2.5 2.83333,2.5 3.5,2.5C 4.79974,3.10787 6.13307,3.77453 7.5,4.5C 8.86693,3.77453 10.2003,3.10787 11.5,2.5C 12.1667,2.5 12.8333,2.5 13.5,2.5C 13.9382,2.43456 14.2716,2.60123 14.5,3C 13.4258,3.73869 12.7591,4.73869 12.5,6C 14.9381,11.457 13.2715,14.2903 7.5,14.5C 1.58499,14.8042 -0.0816719,12.1375 2.5,6.5C 2.47116,4.97065 1.80449,3.80399 0.5,3C 0.728446,2.60123 1.06178,2.43456 1.5,2.5 Z"/></g>
<g><path style="opacity:1" fill="#000000" d="M 3.5,6.5 C 3.84171,5.66175 4.50838,5.32842 5.5,5.5C 5.59121,7.69772 4.92454,8.03105 3.5,6.5 Z"/></g>
<g><path style="opacity:1" fill="#f9faf9" d="M 5.5,5.5 C 5.83333,5.5 6.16667,5.5 6.5,5.5C 6.33982,7.19919 6.50649,8.86586 7,10.5C 8.49022,9.27207 9.99022,9.27207 11.5,10.5C 11.5,10.8333 11.5,11.1667 11.5,11.5C 9.30228,11.4088 8.96895,12.0755 10.5,13.5C 9.83333,13.5 9.16667,13.5 8.5,13.5C 8.63088,12.6236 8.29755,11.9569 7.5,11.5C 6.53705,11.9698 6.53705,12.6365 7.5,13.5C 6.83333,13.5 6.16667,13.5 5.5,13.5C 5.59121,11.3023 4.92454,10.9689 3.5,12.5C 3.5,11.5 3.5,10.5 3.5,9.5C 4.3635,10.463 5.03017,10.463 5.5,9.5C 5.04311,8.70245 4.37644,8.36912 3.5,8.5C 3.5,7.83333 3.5,7.16667 3.5,6.5C 4.92454,8.03105 5.59121,7.69772 5.5,5.5 Z"/></g>
<g><path style="opacity:1" fill="#000000" d="M 6.5,5.5 C 7.16667,5.5 7.83333,5.5 8.5,5.5C 7.43311,7.87946 8.43311,8.87946 11.5,8.5C 11.5,9.16667 11.5,9.83333 11.5,10.5C 9.99022,9.27207 8.49022,9.27207 7,10.5C 6.50649,8.86586 6.33982,7.19919 6.5,5.5 Z"/></g>
<g><path style="opacity:1" fill="#f9faf9" d="M 8.5,5.5 C 9.16667,5.5 9.83333,5.5 10.5,5.5C 8.96895,6.92454 9.30228,7.59121 11.5,7.5C 11.5,7.83333 11.5,8.16667 11.5,8.5C 8.43311,8.87946 7.43311,7.87946 8.5,5.5 Z"/></g>
<g><path style="opacity:1" fill="#000000" d="M 10.5,5.5 C 11.3382,5.84171 11.6716,6.50838 11.5,7.5C 9.30228,7.59121 8.96895,6.92454 10.5,5.5 Z"/></g>
<g><path style="opacity:1" fill="#000000" d="M 3.5,9.5 C 3.5,9.16667 3.5,8.83333 3.5,8.5C 4.37644,8.36912 5.04311,8.70245 5.5,9.5C 5.03017,10.463 4.3635,10.463 3.5,9.5 Z"/></g>
<g><path style="opacity:1" fill="#000000" d="M 5.5,13.5 C 4.50838,13.6716 3.84171,13.3382 3.5,12.5C 4.92454,10.9689 5.59121,11.3023 5.5,13.5 Z"/></g>
<g><path style="opacity:1" fill="#000000" d="M 8.5,13.5 C 8.16667,13.5 7.83333,13.5 7.5,13.5C 6.53705,12.6365 6.53705,11.9698 7.5,11.5C 8.29755,11.9569 8.63088,12.6236 8.5,13.5 Z"/></g>
<g><path style="opacity:1" fill="#000000" d="M 11.5,11.5 C 11.6716,12.4916 11.3382,13.1583 10.5,13.5C 8.96895,12.0755 9.30228,11.4088 11.5,11.5 Z"/></g>
</svg>
