<?xml version="1.0" encoding="UTF-8"?>
<!DOCTYPE svg PUBLIC "-//W3C//DTD SVG 1.1//EN" "http://www.w3.org/Graphics/SVG/1.1/DTD/svg11.dtd">
<svg xmlns="http://www.w3.org/2000/svg" version="1.1" width="16px" height="16px" style="shape-rendering:geometricPrecision; text-rendering:geometricPrecision; image-rendering:optimizeQuality; fill-rule:evenodd; clip-rule:evenodd" xmlns:xlink="http://www.w3.org/1999/xlink">
<g><path style="opacity:1" fill="#000000" d="M 8.5,0.5 C 8.5,2.5 8.5,4.5 8.5,6.5C 7.77842,6.08247 7.27842,5.4158 7,4.5C 6.09748,5.70143 4.93081,6.53476 3.5,7C 4.66667,8.16667 5.83333,9.33333 7,10.5C 7.27842,9.5842 7.77842,8.91753 8.5,8.5C 8.5,10.1667 8.5,11.8333 8.5,13.5C 6.16667,13.5 3.83333,13.5 1.5,13.5C 1.5,9.16667 1.5,4.83333 1.5,0.5C 3.83333,0.5 6.16667,0.5 8.5,0.5 Z"/></g>
<g><path style="opacity:1" fill="#434443" d="M 8.5,0.5 C 10.3079,1.91791 10.9746,3.91791 10.5,6.5C 9.83333,6.5 9.16667,6.5 8.5,6.5C 8.5,4.5 8.5,2.5 8.5,0.5 Z"/></g>
<g><path style="opacity:1" fill="#95002a" d="M 8.5,6.5 C 9.16667,6.5 9.83333,6.5 10.5,6.5C 14.5,7.16667 14.5,7.83333 10.5,8.5C 9.83333,8.5 9.16667,8.5 8.5,8.5C 7.77842,8.91753 7.27842,9.5842 7,10.5C 5.83333,9.33333 4.66667,8.16667 3.5,7C 4.93081,6.53476 6.09748,5.70143 7,4.5C 7.27842,5.4158 7.77842,6.08247 8.5,6.5 Z"/></g>
<g><path style="opacity:1" fill="#434443" d="M 8.5,8.5 C 9.16667,8.5 9.83333,8.5 10.5,8.5C 10.5,10.5 10.5,12.5 10.5,14.5C 7.2869,14.81 4.2869,14.4767 1.5,13.5C 3.83333,13.5 6.16667,13.5 8.5,13.5C 8.5,11.8333 8.5,10.1667 8.5,8.5 Z"/></g>
</svg>
