<?xml version="1.0" encoding="UTF-8"?>
<!DOCTYPE svg PUBLIC "-//W3C//DTD SVG 1.1//EN" "http://www.w3.org/Graphics/SVG/1.1/DTD/svg11.dtd">
<svg xmlns="http://www.w3.org/2000/svg" version="1.1" width="16px" height="16px" style="shape-rendering:geometricPrecision; text-rendering:geometricPrecision; image-rendering:optimizeQuality; fill-rule:evenodd; clip-rule:evenodd" xmlns:xlink="http://www.w3.org/1999/xlink">
<g><path style="opacity:1" fill="#000000" d="M 9.5,14.5 C 9.5,13.5 9.5,12.5 9.5,11.5C 8.16667,11.5 6.83333,11.5 5.5,11.5C 5.5,12.5 5.5,13.5 5.5,14.5C 4.19837,13.1931 2.86503,13.1931 1.5,14.5C 0.506709,9.88035 0.173375,5.21369 0.5,0.5C 5.16667,0.5 9.83333,0.5 14.5,0.5C 14.8266,5.21369 14.4933,9.88035 13.5,14.5C 12.135,13.1931 10.8016,13.1931 9.5,14.5 Z M 2.5,2.5 C 4.33702,2.63945 4.67036,3.30612 3.5,4.5C 2.70245,4.04311 2.36912,3.37644 2.5,2.5 Z M 10.5,2.5 C 12.337,2.63945 12.6704,3.30612 11.5,4.5C 10.7025,4.04311 10.3691,3.37644 10.5,2.5 Z M 2.5,6.5 C 4.33702,6.63945 4.67036,7.30612 3.5,8.5C 2.70245,8.04311 2.36912,7.37644 2.5,6.5 Z M 10.5,6.5 C 12.337,6.63945 12.6704,7.30612 11.5,8.5C 10.7025,8.04311 10.3691,7.37644 10.5,6.5 Z M 2.5,10.5 C 4.33702,10.6395 4.67036,11.3061 3.5,12.5C 2.70245,12.0431 2.36912,11.3764 2.5,10.5 Z M 10.5,10.5 C 12.337,10.6395 12.6704,11.3061 11.5,12.5C 10.7025,12.0431 10.3691,11.3764 10.5,10.5 Z"/></g>
<g><path style="opacity:1" fill="#aeafae" d="M 5.5,1.5 C 6.83333,1.5 8.16667,1.5 9.5,1.5C 9.5,2.5 9.5,3.5 9.5,4.5C 8.16667,4.5 6.83333,4.5 5.5,4.5C 5.5,3.5 5.5,2.5 5.5,1.5 Z"/></g>
<g><path style="opacity:1" fill="#aeafae" d="M 5.5,6.5 C 6.83333,6.5 8.16667,6.5 9.5,6.5C 9.5,7.5 9.5,8.5 9.5,9.5C 8.16667,9.5 6.83333,9.5 5.5,9.5C 5.5,8.5 5.5,7.5 5.5,6.5 Z"/></g>
<g><path style="opacity:1" fill="#aeafae" d="M 9.5,14.5 C 8.16667,14.5 6.83333,14.5 5.5,14.5C 5.5,13.5 5.5,12.5 5.5,11.5C 6.83333,11.5 8.16667,11.5 9.5,11.5C 9.5,12.5 9.5,13.5 9.5,14.5 Z"/></g>
</svg>
