<svg id="svg" version="1.1" xmlns="http://www.w3.org/2000/svg" xmlns:xlink="http://www.w3.org/1999/xlink" width="400" height="400" viewBox="0, 0, 400,400"><g id="svgg"><path id="path0" d="M95.301 69.082 C 94.123 69.309,93.960 70.140,94.091 75.262 C 94.152 77.606,94.066 79.441,93.900 79.338 C 93.735 79.236,93.600 82.493,93.600 86.576 C 93.600 90.659,93.735 93.960,93.900 93.910 C 94.548 93.716,98.242 94.998,98.961 95.665 C 99.379 96.054,99.853 96.291,100.015 96.191 C 100.442 95.927,101.235 97.003,101.305 97.940 C 101.339 98.383,101.549 98.712,101.774 98.672 C 101.998 98.633,102.248 99.050,102.331 99.600 C 102.413 100.150,102.632 100.694,102.816 100.809 C 103.143 101.012,103.388 101.942,103.869 104.800 C 104.209 106.827,105.729 108.257,108.148 108.825 C 114.486 110.314,115.948 112.993,116.377 123.907 L 116.665 131.215 117.807 132.407 C 118.436 133.063,119.269 133.600,119.660 133.600 C 121.349 133.600,124.797 135.299,126.153 136.801 C 128.660 139.576,128.717 140.171,128.655 163.000 L 128.600 183.400 127.469 185.703 C 126.086 188.519,124.642 189.668,121.000 190.849 C 119.460 191.348,117.604 192.217,116.875 192.778 L 115.551 193.800 115.780 202.000 C 116.436 225.442,116.476 232.760,115.979 238.312 L 115.467 244.025 116.775 245.374 C 117.532 246.155,119.097 247.093,120.494 247.602 C 123.700 248.771,126.135 251.046,127.185 253.852 C 128.993 258.685,129.745 275.212,128.723 287.698 C 128.106 295.241,127.975 294.994,134.132 297.872 C 140.227 300.720,141.254 304.452,141.433 324.400 C 141.499 331.770,141.638 338.175,141.741 338.634 C 141.844 339.093,141.781 339.707,141.601 339.999 C 141.402 340.321,141.506 340.763,141.866 341.123 C 142.308 341.565,142.338 341.791,141.984 342.010 C 141.631 342.228,141.649 342.359,142.055 342.520 C 142.400 342.657,142.307 342.751,141.800 342.775 C 141.131 342.806,141.098 342.877,141.600 343.211 C 142.465 343.785,160.110 343.633,160.494 343.048 C 160.702 342.731,160.790 342.747,160.794 343.100 C 160.797 343.375,161.070 343.600,161.400 343.600 C 161.730 343.600,162.003 343.375,162.006 343.100 C 162.010 342.746,162.098 342.731,162.306 343.049 C 163.355 344.652,168.385 343.368,168.432 341.486 L 168.463 340.200 168.885 341.400 C 169.537 343.252,169.974 343.600,171.649 343.600 C 172.761 343.600,173.200 343.430,173.200 343.000 C 173.200 342.290,173.833 342.206,174.238 342.862 C 174.415 343.148,174.348 343.215,174.062 343.038 C 173.808 342.881,173.600 342.943,173.600 343.176 C 173.600 343.778,176.690 343.707,176.935 343.100 C 177.093 342.709,177.144 342.708,177.168 343.094 C 177.215 343.818,284.649 343.818,285.543 343.094 C 286.029 342.701,286.092 342.702,285.853 343.100 C 285.652 343.435,285.824 343.600,286.376 343.600 C 286.829 343.600,287.203 343.375,287.206 343.100 C 287.211 342.700,287.276 342.700,287.530 343.100 C 287.953 343.767,292.278 343.665,292.971 342.971 C 293.665 342.278,293.767 337.953,293.100 337.530 C 292.700 337.276,292.700 337.211,293.100 337.206 C 293.375 337.203,293.600 336.829,293.600 336.376 C 293.600 335.824,293.435 335.652,293.100 335.853 C 292.706 336.090,292.702 336.027,293.083 335.557 C 293.348 335.229,293.522 334.191,293.469 333.250 C 293.358 331.261,293.614 331.021,295.716 331.145 C 296.570 331.195,297.172 331.078,297.052 330.885 C 296.933 330.692,297.089 330.533,297.400 330.533 C 297.711 330.533,297.872 330.683,297.759 330.867 C 297.350 331.528,299.325 331.183,299.857 330.500 C 300.376 329.833,300.390 329.833,300.158 330.500 C 299.947 331.108,300.187 331.200,301.981 331.200 C 303.154 331.200,303.948 331.039,303.817 330.828 C 303.691 330.623,303.798 330.325,304.055 330.166 C 304.348 329.985,304.416 330.050,304.238 330.338 C 304.058 330.630,304.254 330.800,304.769 330.800 C 305.859 330.800,306.031 329.884,305.905 324.738 C 305.847 322.393,305.952 320.570,306.138 320.685 C 306.324 320.800,306.374 319.748,306.249 318.347 C 306.125 316.946,306.005 315.125,305.984 314.300 C 305.962 313.439,305.744 312.797,305.472 312.794 C 305.122 312.789,305.126 312.708,305.488 312.478 C 306.171 312.044,305.993 306.961,305.300 307.100 C 305.025 307.155,304.800 307.020,304.800 306.800 C 304.800 306.578,303.733 306.400,302.400 306.400 C 300.750 306.400,299.998 306.556,299.994 306.900 C 299.989 307.271,299.900 307.262,299.647 306.862 C 299.397 306.468,298.595 306.372,296.641 306.505 C 293.339 306.728,293.652 307.598,293.565 297.970 C 293.515 292.489,293.344 289.703,293.045 289.506 C 292.733 289.300,292.749 289.210,293.100 289.206 C 293.375 289.203,293.600 288.930,293.600 288.600 C 293.600 288.270,293.375 287.997,293.100 287.994 C 292.746 287.990,292.731 287.902,293.049 287.694 C 294.652 286.645,293.368 281.615,291.486 281.568 L 290.200 281.537 291.400 281.115 C 293.679 280.313,294.544 277.779,292.939 276.605 C 292.416 276.222,292.387 276.055,292.801 275.799 C 293.146 275.586,293.227 275.633,293.038 275.938 C 292.881 276.192,292.943 276.400,293.176 276.400 C 293.778 276.400,293.707 273.310,293.100 273.065 C 292.712 272.908,292.710 272.856,293.093 272.832 C 293.809 272.786,293.805 200.552,293.089 200.261 C 292.712 200.108,292.714 200.056,293.100 200.032 C 293.712 199.993,293.811 195.200,293.200 195.200 C 292.980 195.200,292.845 194.975,292.900 194.700 C 293.039 194.007,287.956 193.829,287.522 194.512 C 287.292 194.874,287.211 194.878,287.206 194.528 C 287.203 194.253,286.573 194.047,285.700 194.037 C 284.875 194.027,283.525 193.905,282.700 193.766 L 281.200 193.512 281.142 143.256 C 281.110 115.615,281.126 92.394,281.178 91.654 C 281.231 90.909,281.108 90.410,280.903 90.536 C 280.700 90.662,280.533 90.511,280.533 90.200 C 280.533 89.889,280.683 89.728,280.867 89.841 C 281.050 89.955,281.200 89.587,281.200 89.024 C 281.200 88.461,280.975 87.997,280.700 87.994 C 280.338 87.989,280.352 87.891,280.751 87.639 C 281.411 87.221,281.215 82.655,280.508 81.948 C 279.789 81.229,271.360 80.972,270.532 81.644 C 270.051 82.034,269.938 82.048,270.153 81.690 C 270.400 81.279,267.812 81.201,256.903 81.290 L 243.345 81.400 243.471 79.422 C 243.550 78.159,243.416 77.330,243.098 77.128 C 242.701 76.877,242.702 76.811,243.100 76.806 C 243.416 76.802,243.600 76.210,243.600 75.200 C 243.600 74.320,243.409 73.600,243.176 73.600 C 242.943 73.600,242.881 73.808,243.038 74.062 C 243.215 74.348,243.148 74.415,242.862 74.238 C 242.206 73.833,242.290 73.200,243.000 73.200 C 243.773 73.200,243.815 70.847,243.060 69.814 C 242.352 68.846,238.095 68.407,237.563 69.247 C 237.310 69.646,237.211 69.661,237.206 69.300 C 237.203 69.021,236.706 68.800,236.080 68.800 C 235.464 68.800,234.718 69.025,234.421 69.300 C 233.996 69.695,233.942 69.695,234.163 69.302 C 234.387 68.907,220.989 68.805,168.600 68.805 C 132.386 68.805,102.848 68.954,102.960 69.136 C 103.073 69.318,102.911 69.467,102.600 69.467 C 102.289 69.467,102.128 69.317,102.241 69.133 C 102.355 68.950,102.006 68.800,101.466 68.800 C 100.927 68.800,100.382 69.070,100.255 69.400 C 100.129 69.730,99.794 69.986,99.513 69.968 C 99.111 69.944,99.108 69.893,99.500 69.735 C 101.275 69.019,98.151 68.533,95.301 69.082 M98.342 70.175 C 97.760 70.690,96.328 70.819,96.494 70.342 C 96.598 70.044,96.979 69.853,97.341 69.918 C 97.704 69.982,98.014 69.802,98.032 69.518 C 98.057 69.102,98.105 69.103,98.273 69.525 C 98.389 69.814,98.420 70.106,98.342 70.175 M241.379 70.417 C 240.506 70.734,239.879 70.519,240.194 70.010 C 240.308 69.826,240.796 69.778,241.279 69.905 C 242.114 70.123,242.119 70.148,241.379 70.417 M242.500 71.263 C 242.364 71.780,242.433 72.027,242.670 71.880 C 242.888 71.745,243.067 71.887,243.067 72.195 C 243.067 72.503,242.872 72.721,242.633 72.678 C 241.893 72.545,241.639 71.875,242.042 71.122 C 242.564 70.147,242.774 70.212,242.500 71.263 M278.552 83.277 C 278.445 83.450,278.117 83.369,277.823 83.096 C 277.443 82.744,277.418 82.519,277.734 82.321 C 278.221 82.016,278.866 82.770,278.552 83.277 M31.293 103.200 C 31.293 103.970,31.375 104.285,31.476 103.900 C 31.576 103.515,31.576 102.885,31.476 102.500 C 31.375 102.115,31.293 102.430,31.293 103.200 M246.742 109.839 C 249.973 111.062,252.125 113.606,253.151 117.416 C 253.734 119.583,255.682 121.297,258.545 122.161 C 267.352 124.820,267.893 136.165,259.400 140.079 C 256.318 141.499,243.653 141.476,240.485 140.044 C 237.758 138.812,235.520 136.269,234.606 133.365 C 234.217 132.125,233.362 130.501,232.707 129.756 L 231.517 128.400 212.433 128.400 L 193.350 128.400 192.301 129.500 C 191.725 130.105,190.814 131.813,190.278 133.295 C 187.923 139.806,185.584 141.000,175.193 141.000 L 167.785 141.000 165.057 139.657 C 162.056 138.181,160.372 136.134,159.495 132.900 C 158.879 130.628,156.785 128.722,153.976 127.876 C 144.608 125.057,144.545 112.783,153.882 109.645 C 156.827 108.655,244.096 108.837,246.742 109.839 M31.293 122.000 C 31.293 122.770,31.375 123.085,31.476 122.700 C 31.576 122.315,31.576 121.685,31.476 121.300 C 31.375 120.915,31.293 121.230,31.293 122.000 M44.367 142.145 C 44.900 142.801,46.400 143.793,46.400 143.489 C 46.400 143.413,45.815 142.922,45.100 142.399 C 44.296 141.810,44.016 141.713,44.367 142.145 M197.703 147.732 C 200.459 149.083,201.665 150.558,202.983 154.194 C 204.756 159.082,202.686 158.631,224.709 158.930 C 245.054 159.206,245.604 159.260,248.670 161.311 C 254.934 165.499,254.096 174.090,247.117 177.243 L 245.000 178.200 212.938 178.309 L 180.877 178.418 179.438 180.010 C 178.647 180.886,178.000 181.892,178.000 182.245 C 178.000 182.599,177.441 183.937,176.758 185.219 C 172.849 192.552,163.892 192.217,160.182 184.600 C 158.804 181.770,158.699 168.548,160.031 165.600 C 161.422 162.525,165.549 159.220,168.019 159.204 C 169.040 159.197,171.504 156.313,171.957 154.594 C 172.936 150.880,175.544 148.180,179.330 146.960 C 182.714 145.870,194.953 146.384,197.703 147.732 M157.862 196.996 C 161.693 198.134,165.598 202.485,165.600 205.619 C 165.600 205.959,166.275 206.896,167.100 207.700 L 168.600 209.163 212.600 209.182 C 262.650 209.205,259.424 208.995,262.876 212.442 C 266.640 216.198,266.744 221.109,263.143 225.016 C 260.023 228.400,260.022 228.400,237.826 228.400 L 218.483 228.400 217.241 229.814 L 216.000 231.228 216.000 243.935 L 216.000 256.643 217.400 258.000 L 218.800 259.357 220.140 258.058 C 221.039 257.187,221.689 256.007,222.116 254.473 C 224.902 244.450,237.019 244.220,240.225 254.129 C 240.602 255.295,241.522 256.856,242.330 257.701 L 243.764 259.202 245.214 257.787 C 246.147 256.875,246.914 255.574,247.370 254.128 C 249.162 248.444,252.625 246.800,262.807 246.800 L 269.872 246.800 272.342 248.034 C 280.544 252.133,279.420 262.693,270.509 265.255 C 267.805 266.033,265.973 268.022,265.088 271.137 C 264.131 274.508,261.852 276.842,258.545 277.835 C 257.174 278.247,255.667 279.051,254.917 279.770 L 253.635 281.000 253.383 287.800 C 252.990 298.408,251.095 301.812,244.731 303.343 C 242.910 303.780,241.298 305.471,240.676 307.594 C 239.360 312.082,237.005 314.501,232.895 315.584 C 230.236 316.285,228.662 317.930,227.847 320.860 C 225.994 327.525,223.474 328.400,206.141 328.400 C 188.746 328.400,186.864 327.720,184.553 320.600 C 183.678 317.905,181.944 316.157,179.418 315.423 C 175.932 314.409,172.020 310.018,172.004 307.100 C 171.998 305.957,169.077 303.441,167.151 302.919 C 161.088 301.275,159.483 298.329,159.200 288.322 L 159.000 281.244 157.703 279.906 C 156.961 279.141,155.675 278.369,154.703 278.106 C 150.720 277.026,146.802 272.766,146.800 269.514 C 146.800 268.116,144.458 266.073,142.078 265.393 C 130.085 261.969,132.523 247.223,145.200 246.507 C 157.941 245.788,163.778 248.092,165.587 254.555 C 165.875 255.582,166.652 256.875,167.441 257.640 L 168.800 258.957 170.163 257.636 C 170.982 256.842,171.698 255.636,171.954 254.616 C 173.485 248.536,179.646 245.188,184.642 247.720 C 187.734 249.287,188.928 250.870,190.814 255.908 C 191.083 256.628,191.847 257.673,192.511 258.232 L 193.718 259.247 195.259 257.743 L 196.800 256.238 196.800 243.800 L 196.800 231.362 195.298 229.896 L 193.796 228.429 173.998 228.315 L 154.200 228.200 152.031 227.000 C 149.511 225.606,147.838 223.498,146.992 220.650 C 146.194 217.960,144.429 216.208,141.639 215.336 C 131.783 212.255,132.153 200.137,142.200 196.960 C 144.561 196.213,155.309 196.238,157.862 196.996 M293.067 277.849 C 293.067 278.133,292.917 278.272,292.733 278.159 C 292.550 278.045,292.400 278.154,292.400 278.400 C 292.400 278.646,292.228 278.741,292.017 278.611 C 291.503 278.293,291.904 277.333,292.551 277.333 C 292.834 277.333,293.067 277.565,293.067 277.849 M179.600 279.800 L 178.243 281.200 179.600 282.600 L 180.957 284.000 187.400 284.000 L 193.843 284.000 195.200 282.600 L 196.557 281.200 195.200 279.800 L 193.843 278.400 187.400 278.400 L 180.957 278.400 179.600 279.800 M217.200 279.800 L 215.843 281.200 217.200 282.600 L 218.557 284.000 224.989 284.000 C 231.811 284.000,232.635 283.803,233.634 281.937 C 234.007 281.239,233.874 280.908,232.759 279.757 L 231.443 278.400 225.000 278.400 L 218.557 278.400 217.200 279.800 M291.379 280.017 C 290.506 280.334,289.879 280.119,290.194 279.610 C 290.308 279.426,290.796 279.378,291.279 279.505 C 292.114 279.723,292.119 279.748,291.379 280.017 M81.293 334.400 C 81.293 335.170,81.375 335.485,81.476 335.100 C 81.576 334.715,81.576 334.085,81.476 333.700 C 81.375 333.315,81.293 333.630,81.293 334.400 M118.493 334.400 C 118.493 335.170,118.575 335.485,118.676 335.100 C 118.776 334.715,118.776 334.085,118.676 333.700 C 118.575 333.315,118.493 333.630,118.493 334.400 M170.495 341.279 C 170.277 342.114,170.252 342.119,169.983 341.379 C 169.666 340.506,169.881 339.879,170.390 340.194 C 170.574 340.308,170.622 340.796,170.495 341.279 M172.667 342.551 C 172.667 342.834,172.435 343.067,172.151 343.067 C 171.867 343.067,171.745 342.888,171.880 342.670 C 172.030 342.428,171.752 342.368,171.163 342.517 C 170.268 342.743,170.252 342.721,170.939 342.208 C 171.767 341.588,172.667 341.767,172.667 342.551 " stroke="none" fill="#f4e49c" fill-rule="evenodd"></path><path id="path1" d="M36.200 93.947 C 35.320 94.102,34.347 94.385,34.038 94.576 C 33.654 94.813,33.567 94.777,33.762 94.462 C 33.919 94.208,33.857 94.000,33.624 94.000 C 33.391 94.000,33.200 94.191,33.200 94.424 C 33.200 94.657,33.040 94.748,32.844 94.627 C 32.648 94.506,32.179 94.877,31.802 95.453 C 31.425 96.028,31.335 96.364,31.601 96.199 C 31.935 95.993,32.021 96.133,31.876 96.650 C 31.402 98.342,31.160 102.000,31.523 102.000 C 31.762 102.000,31.760 102.671,31.517 103.811 C 30.875 106.819,31.270 122.348,32.000 122.809 C 32.507 123.129,32.488 123.189,31.875 123.194 C 31.238 123.199,31.186 123.428,31.439 125.100 C 31.781 127.356,31.780 127.598,31.417 128.469 C 31.226 128.928,31.409 129.284,32.000 129.600 C 32.545 129.892,32.774 130.291,32.622 130.687 C 32.449 131.138,32.524 131.212,32.891 130.950 C 33.343 130.628,34.232 130.554,34.800 130.791 C 34.910 130.837,36.972 130.955,39.383 131.054 C 44.500 131.263,44.087 131.056,43.990 133.367 C 43.776 138.490,44.020 141.279,44.760 142.169 C 45.112 142.592,45.187 142.814,44.928 142.662 C 44.668 142.511,44.348 142.560,44.217 142.773 C 44.082 142.991,44.355 143.086,44.847 142.991 C 45.324 142.899,45.914 142.948,46.157 143.100 C 46.892 143.559,49.379 143.519,49.694 143.044 C 49.899 142.734,49.990 142.750,49.994 143.100 C 49.998 143.458,50.910 143.600,53.200 143.600 L 56.400 143.600 56.442 190.500 C 56.489 242.147,56.479 241.012,56.898 241.431 C 57.060 241.593,56.989 241.972,56.740 242.272 C 56.377 242.709,56.432 242.763,57.013 242.540 C 57.595 242.316,57.684 242.405,57.460 242.987 C 57.231 243.583,57.284 243.628,57.755 243.237 C 58.071 242.975,58.418 242.906,58.528 243.083 C 58.637 243.260,60.944 243.459,63.654 243.527 C 66.365 243.594,68.620 243.687,68.666 243.733 C 68.712 243.779,68.785 251.373,68.829 260.608 C 68.872 269.844,69.056 277.799,69.238 278.286 C 69.427 278.792,69.411 279.270,69.199 279.400 C 68.996 279.526,69.138 279.954,69.515 280.350 C 69.920 280.777,70.379 280.936,70.637 280.739 C 70.877 280.556,71.196 280.529,71.345 280.679 C 71.587 280.920,72.770 280.989,79.500 281.158 L 81.200 281.200 81.210 306.900 C 81.215 321.035,81.376 333.275,81.567 334.100 C 81.793 335.072,81.774 335.600,81.512 335.600 C 81.256 335.600,81.218 336.292,81.408 337.500 C 81.771 339.811,81.771 340.017,81.407 340.894 C 81.192 341.413,81.383 341.689,82.159 341.985 C 82.732 342.202,83.200 342.584,83.200 342.833 C 83.200 343.082,83.479 343.178,83.821 343.047 C 84.162 342.916,84.353 342.952,84.246 343.126 C 84.138 343.300,84.713 343.462,85.524 343.485 C 86.335 343.508,87.131 343.318,87.293 343.063 C 87.509 342.723,87.589 342.733,87.594 343.100 C 87.599 343.489,90.350 343.600,100.000 343.600 C 109.650 343.600,112.401 343.489,112.406 343.100 C 112.411 342.733,112.491 342.723,112.707 343.063 C 112.869 343.318,113.665 343.508,114.476 343.485 C 115.287 343.462,115.862 343.300,115.754 343.126 C 115.647 342.952,115.838 342.916,116.179 343.047 C 116.521 343.178,116.800 343.082,116.800 342.833 C 116.800 342.584,117.250 342.209,117.800 342.000 C 118.350 341.791,118.797 341.390,118.794 341.110 C 118.790 340.756,118.673 340.782,118.411 341.196 C 118.139 341.626,118.077 341.459,118.189 340.596 C 118.275 339.938,118.357 338.995,118.372 338.500 C 118.388 338.005,118.594 337.600,118.832 337.600 C 119.093 337.600,119.171 338.034,119.029 338.700 C 118.895 339.327,119.038 340.263,119.362 340.877 C 119.868 341.839,119.857 341.974,119.265 342.131 C 118.708 342.279,118.721 342.315,119.343 342.354 C 119.860 342.386,120.009 342.600,119.834 343.057 C 119.635 343.575,119.696 343.618,120.128 343.260 C 120.428 343.011,120.786 342.919,120.923 343.056 C 121.446 343.579,124.800 343.621,124.806 343.104 C 124.811 342.740,124.910 342.755,125.167 343.160 C 125.583 343.817,134.660 343.576,136.400 342.861 L 137.400 342.451 136.400 342.419 C 135.625 342.395,135.532 342.304,135.987 342.016 C 136.543 341.665,136.936 337.600,136.415 337.600 C 136.297 337.600,136.195 332.605,136.189 326.500 C 136.171 308.161,135.145 304.454,129.521 302.403 C 126.416 301.271,124.373 299.388,123.049 296.438 L 121.985 294.066 122.992 287.333 C 124.346 278.286,124.359 270.911,123.036 262.455 C 121.899 255.193,121.148 254.009,116.655 252.390 C 110.450 250.155,108.751 246.381,110.291 238.257 C 111.967 229.414,111.991 222.545,110.380 212.921 C 107.597 196.294,109.322 189.588,117.044 187.015 C 118.861 186.410,119.930 185.694,121.717 183.887 L 124.034 181.544 123.889 174.472 C 123.798 170.044,123.429 165.307,122.901 161.800 L 122.057 156.200 123.028 149.861 L 123.999 143.522 123.206 142.408 C 122.132 140.901,119.731 138.830,118.525 138.372 C 116.572 137.629,114.068 135.588,112.846 133.744 L 111.600 131.863 111.600 125.391 L 111.600 118.920 110.427 117.301 C 109.120 115.496,107.393 114.091,105.000 112.885 C 102.012 111.379,99.351 108.082,98.635 105.000 C 98.159 102.953,95.556 96.220,95.141 95.963 C 94.924 95.829,94.697 95.378,94.635 94.960 C 94.527 94.223,93.709 94.197,67.683 94.108 C 52.921 94.058,40.158 93.938,39.321 93.841 C 38.485 93.745,37.080 93.793,36.200 93.947 M154.972 115.200 C 154.255 115.750,153.202 116.769,152.630 117.464 L 151.590 118.727 152.695 120.064 C 154.390 122.114,155.223 122.765,157.491 123.815 C 160.167 125.053,162.347 127.242,163.660 130.011 C 164.245 131.244,165.586 133.030,166.732 134.100 L 168.766 136.000 175.000 136.000 L 181.234 136.000 183.173 134.186 C 184.325 133.109,185.598 131.354,186.311 129.862 C 187.667 127.023,189.377 125.134,191.630 123.985 C 193.976 122.788,230.787 122.767,233.116 123.961 C 235.293 125.077,237.398 127.368,238.606 129.938 C 239.212 131.227,240.534 133.017,241.680 134.100 L 243.691 136.000 250.037 136.000 L 256.383 136.000 258.597 133.785 C 260.492 131.891,260.751 131.457,260.391 130.784 C 259.582 129.272,257.113 127.148,255.003 126.149 C 252.268 124.854,250.142 122.742,248.918 120.104 C 247.945 118.007,244.751 114.400,243.868 114.400 C 243.611 114.401,223.797 114.356,199.837 114.300 L 156.274 114.200 154.972 115.200 M182.749 151.892 C 180.272 152.090,178.115 153.950,176.427 157.345 C 174.809 160.599,173.092 162.316,169.801 163.970 C 168.317 164.715,166.593 165.982,165.797 166.912 L 164.400 168.544 164.400 174.910 C 164.400 181.993,164.518 182.374,167.378 184.556 L 168.786 185.630 170.643 183.918 C 171.686 182.956,173.009 181.156,173.660 179.812 C 177.043 172.827,174.859 173.200,212.377 173.200 L 243.962 173.200 245.981 171.181 C 248.444 168.718,248.442 168.804,246.085 166.447 L 244.171 164.533 235.385 164.267 C 230.553 164.121,221.868 164.002,216.084 164.001 C 203.005 164.000,201.636 163.454,198.601 157.039 C 197.997 155.762,196.781 154.147,195.721 153.214 L 193.887 151.600 189.244 151.672 C 186.690 151.712,183.767 151.811,182.749 151.892 M141.234 204.042 L 139.224 206.084 140.270 207.457 C 141.472 209.032,143.147 210.309,145.271 211.270 C 147.558 212.304,150.212 214.991,151.189 217.262 C 151.672 218.386,152.944 220.182,154.015 221.253 L 155.962 223.200 175.099 223.200 L 194.235 223.200 196.396 224.500 C 197.658 225.259,199.148 226.626,199.979 227.786 L 201.400 229.773 201.515 243.273 C 201.624 256.086,201.590 256.852,200.834 258.333 C 196.889 266.066,190.182 265.663,186.052 257.444 C 184.887 255.126,182.142 252.000,181.271 252.000 C 180.351 252.000,177.603 255.041,176.195 257.617 C 171.677 265.879,165.502 265.722,161.218 257.235 C 160.557 255.926,159.218 254.179,158.164 253.252 L 156.287 251.600 149.935 251.600 L 143.582 251.600 141.765 253.275 C 138.945 255.875,138.905 256.098,140.888 258.251 C 141.895 259.345,143.629 260.602,145.098 261.305 C 147.994 262.689,150.106 264.848,151.407 267.750 C 152.537 270.273,155.182 272.890,157.675 273.952 C 162.647 276.069,163.958 278.762,164.263 287.490 L 164.498 294.200 166.149 295.936 C 167.057 296.891,168.909 298.202,170.264 298.848 C 173.132 300.217,175.205 302.344,176.655 305.407 C 177.847 307.924,180.116 310.135,182.600 311.200 C 185.174 312.303,187.427 314.556,188.744 317.345 C 189.430 318.797,190.670 320.516,191.748 321.509 L 193.582 323.200 206.200 323.200 L 218.818 323.200 220.646 321.515 C 221.652 320.588,222.980 318.833,223.597 317.615 C 225.071 314.707,227.007 312.835,230.199 311.230 C 233.033 309.807,235.209 307.595,236.380 304.951 C 237.410 302.623,239.730 300.199,241.925 299.156 C 247.667 296.427,248.524 294.832,248.183 287.513 C 247.811 279.537,249.274 276.563,254.876 273.911 C 257.778 272.536,259.740 270.550,261.228 267.477 C 262.692 264.456,264.437 262.568,266.800 261.451 C 269.301 260.269,270.902 259.066,272.145 257.437 L 273.207 256.045 271.184 254.022 L 269.162 252.000 262.582 252.000 L 256.002 252.000 254.396 253.451 C 253.513 254.249,252.134 256.150,251.333 257.675 C 247.065 265.796,239.980 265.710,236.227 257.491 C 235.270 255.396,234.325 254.171,232.333 252.446 L 231.266 251.523 229.395 253.248 C 228.320 254.238,226.952 256.106,226.183 257.633 C 223.679 262.605,219.765 265.113,216.838 263.619 C 211.273 260.780,210.819 259.296,210.809 243.896 C 210.799 229.603,210.855 229.285,213.924 226.203 C 217.042 223.073,216.041 223.200,237.565 223.200 L 256.762 223.200 258.781 221.181 C 261.256 218.706,261.256 218.793,258.773 216.374 L 256.747 214.400 220.673 214.300 C 200.833 214.245,181.087 214.265,176.792 214.345 C 166.538 214.537,163.604 213.249,161.029 207.428 C 160.505 206.243,159.318 204.537,158.390 203.637 L 156.704 202.000 149.974 202.000 L 143.244 202.000 141.234 204.042 M196.401 274.500 C 202.984 278.451,202.984 283.949,196.401 287.900 L 194.235 289.200 187.502 289.200 C 179.936 289.200,178.964 288.937,176.160 286.133 C 172.696 282.669,172.742 279.772,176.316 276.282 C 179.151 273.514,180.183 273.234,187.618 273.216 L 194.235 273.200 196.401 274.500 M232.691 273.812 C 240.537 277.090,240.955 284.440,233.513 288.237 C 230.798 289.623,219.454 289.700,216.587 288.352 C 209.352 284.951,209.554 277.847,217.000 273.873 C 218.707 272.961,230.546 272.916,232.691 273.812 M118.951 334.500 C 119.140 335.286,119.061 335.600,118.677 335.600 C 118.304 335.600,118.194 335.225,118.317 334.381 C 118.523 332.980,118.590 332.992,118.951 334.500 M81.817 342.772 C 81.544 343.214,82.175 343.692,82.544 343.322 C 82.925 342.942,82.854 342.400,82.424 342.400 C 82.217 342.400,81.944 342.568,81.817 342.772 M117.260 342.780 C 117.432 343.296,117.981 343.388,118.030 342.910 C 118.046 342.750,117.844 342.548,117.580 342.460 C 117.316 342.372,117.172 342.516,117.260 342.780 " stroke="none" fill="#c5b57b" fill-rule="evenodd"></path><path id="path2" d="M96.531 70.112 C 96.415 70.300,96.391 70.524,96.477 70.611 C 96.715 70.848,98.400 70.347,98.400 70.039 C 98.400 69.648,96.778 69.711,96.531 70.112 M241.907 71.266 C 241.649 71.938,242.182 73.087,242.500 72.543 C 242.610 72.354,242.574 71.853,242.420 71.429 C 242.191 70.800,242.097 70.770,241.907 71.266 M93.600 77.110 C 93.600 78.233,93.747 79.244,93.927 79.355 C 94.246 79.552,94.087 75.564,93.763 75.233 C 93.673 75.142,93.600 75.986,93.600 77.110 M277.684 82.958 C 277.968 83.265,278.338 83.432,278.507 83.330 C 278.964 83.053,278.440 82.400,277.761 82.400 C 277.274 82.400,277.261 82.500,277.684 82.958 M39.677 93.811 C 39.943 94.076,93.273 94.060,93.538 93.795 C 93.646 93.688,81.523 93.600,66.600 93.600 C 51.677 93.600,39.562 93.695,39.677 93.811 M94.288 94.136 C 94.447 94.391,94.616 94.852,94.662 95.160 C 94.709 95.468,94.924 95.829,95.141 95.963 C 95.556 96.220,98.159 102.953,98.635 105.000 C 99.351 108.082,102.012 111.379,105.000 112.885 C 107.393 114.091,109.120 115.496,110.427 117.301 L 111.600 118.920 111.600 125.391 L 111.600 131.863 112.846 133.744 C 114.068 135.588,116.572 137.629,118.525 138.372 C 119.731 138.830,122.132 140.901,123.206 142.408 L 123.999 143.522 123.028 149.861 L 122.057 156.200 122.901 161.800 C 123.429 165.307,123.798 170.044,123.889 174.472 L 124.034 181.544 121.717 183.887 C 119.930 185.694,118.861 186.410,117.044 187.015 C 109.322 189.588,107.597 196.294,110.380 212.921 C 111.991 222.545,111.967 229.414,110.291 238.257 C 108.751 246.381,110.450 250.155,116.655 252.390 C 121.148 254.009,121.899 255.193,123.036 262.455 C 124.359 270.911,124.346 278.286,122.992 287.333 L 121.985 294.066 123.049 296.438 C 124.373 299.388,126.416 301.271,129.521 302.403 C 135.145 304.454,136.171 308.161,136.189 326.500 C 136.195 332.605,136.297 337.600,136.415 337.600 C 136.936 337.600,136.543 341.665,135.987 342.016 C 135.531 342.305,135.616 342.389,136.367 342.394 C 137.851 342.403,137.098 342.818,134.939 343.181 C 133.347 343.448,133.823 343.513,137.600 343.547 C 140.702 343.574,142.005 343.461,141.600 343.200 C 141.102 342.878,141.136 342.810,141.800 342.800 C 142.405 342.791,142.467 342.704,142.055 342.442 C 141.636 342.177,141.626 342.058,142.008 341.931 C 142.381 341.806,142.351 341.608,141.890 341.147 C 141.513 340.770,141.400 340.323,141.601 339.999 C 141.781 339.707,141.844 339.093,141.741 338.634 C 141.638 338.175,141.499 331.770,141.433 324.400 C 141.254 304.452,140.227 300.720,134.132 297.872 C 127.975 294.994,128.106 295.241,128.723 287.698 C 129.745 275.212,128.993 258.685,127.185 253.852 C 126.135 251.046,123.700 248.771,120.494 247.602 C 119.097 247.093,117.532 246.155,116.775 245.374 L 115.467 244.025 115.979 238.312 C 116.476 232.760,116.436 225.442,115.780 202.000 L 115.551 193.800 116.875 192.778 C 117.604 192.217,119.460 191.348,121.000 190.849 C 124.642 189.668,126.086 188.519,127.469 185.703 L 128.600 183.400 128.655 163.000 C 128.717 140.171,128.660 139.576,126.153 136.801 C 124.797 135.299,121.349 133.600,119.660 133.600 C 119.269 133.600,118.436 133.063,117.807 132.407 L 116.665 131.215 116.377 123.907 C 115.948 112.993,114.486 110.314,108.148 108.825 C 105.729 108.257,104.209 106.827,103.869 104.800 C 103.388 101.942,103.143 101.012,102.816 100.809 C 102.632 100.694,102.413 100.150,102.331 99.600 C 102.248 99.050,101.998 98.633,101.774 98.672 C 101.549 98.712,101.339 98.383,101.305 97.940 C 101.235 97.003,100.442 95.927,100.015 96.191 C 99.853 96.291,99.379 96.062,98.961 95.683 C 98.027 94.837,93.864 93.459,94.288 94.136 M31.293 97.600 C 31.293 98.370,31.375 98.685,31.476 98.300 C 31.576 97.915,31.576 97.285,31.476 96.900 C 31.375 96.515,31.293 96.830,31.293 97.600 M153.882 109.645 C 144.545 112.783,144.608 125.057,153.976 127.876 C 156.785 128.722,158.879 130.628,159.495 132.900 C 160.372 136.134,162.056 138.181,165.057 139.657 L 167.785 141.000 175.193 141.000 C 185.584 141.000,187.923 139.806,190.278 133.295 C 190.814 131.813,191.725 130.105,192.301 129.500 L 193.350 128.400 212.433 128.400 L 231.517 128.400 232.707 129.756 C 233.362 130.501,234.217 132.125,234.606 133.365 C 235.520 136.269,237.758 138.812,240.485 140.044 C 243.653 141.476,256.318 141.499,259.400 140.079 C 267.893 136.165,267.352 124.820,258.545 122.161 C 255.682 121.297,253.734 119.583,253.151 117.416 C 252.125 113.606,249.973 111.062,246.742 109.839 C 244.096 108.837,156.827 108.655,153.882 109.645 M243.868 114.400 C 244.751 114.400,247.945 118.007,248.918 120.104 C 250.142 122.742,252.268 124.854,255.003 126.149 C 257.113 127.148,259.582 129.272,260.391 130.784 C 260.751 131.457,260.492 131.891,258.597 133.785 L 256.383 136.000 250.037 136.000 L 243.691 136.000 241.680 134.100 C 240.534 133.017,239.212 131.227,238.606 129.938 C 237.398 127.368,235.293 125.077,233.116 123.961 C 230.787 122.767,193.976 122.788,191.630 123.985 C 189.377 125.134,187.667 127.023,186.311 129.862 C 185.598 131.354,184.325 133.109,183.173 134.186 L 181.234 136.000 175.000 136.000 L 168.766 136.000 166.732 134.100 C 165.586 133.030,164.245 131.244,163.660 130.011 C 162.347 127.242,160.167 125.053,157.491 123.815 C 155.223 122.765,154.390 122.114,152.695 120.064 L 151.590 118.727 152.630 117.464 C 153.202 116.769,154.255 115.750,154.972 115.200 L 156.274 114.200 199.837 114.300 C 223.797 114.356,243.611 114.401,243.868 114.400 M31.206 127.300 C 31.210 128.184,31.323 128.426,31.557 128.056 C 31.872 127.559,31.717 126.000,31.353 126.000 C 31.269 126.000,31.203 126.585,31.206 127.300 M43.600 133.400 C 43.600 134.683,43.705 135.628,43.833 135.500 C 43.962 135.372,44.067 134.427,44.067 133.400 C 44.067 132.373,43.962 131.428,43.833 131.300 C 43.705 131.172,43.600 132.117,43.600 133.400 M44.012 142.251 C 43.994 142.911,45.091 143.709,45.687 143.469 C 46.017 143.337,45.958 143.252,45.520 143.232 C 45.146 143.214,44.656 142.885,44.432 142.500 C 44.208 142.115,44.019 142.003,44.012 142.251 M179.330 146.960 C 175.544 148.180,172.936 150.880,171.957 154.594 C 171.504 156.313,169.040 159.197,168.019 159.204 C 165.549 159.220,161.422 162.525,160.031 165.600 C 158.699 168.548,158.804 181.770,160.182 184.600 C 163.892 192.217,172.849 192.552,176.758 185.219 C 177.441 183.937,178.000 182.599,178.000 182.245 C 178.000 181.892,178.647 180.886,179.438 180.010 L 180.877 178.418 212.938 178.309 L 245.000 178.200 247.117 177.243 C 254.096 174.090,254.934 165.499,248.670 161.311 C 245.604 159.260,245.054 159.206,224.709 158.930 C 202.686 158.631,204.756 159.082,202.983 154.194 C 200.673 147.825,198.394 146.641,188.200 146.512 C 183.044 146.448,180.526 146.575,179.330 146.960 M195.721 153.214 C 196.781 154.147,197.997 155.762,198.601 157.039 C 201.636 163.454,203.005 164.000,216.084 164.001 C 221.868 164.002,230.553 164.121,235.385 164.267 L 244.171 164.533 246.085 166.447 C 248.442 168.804,248.444 168.718,245.981 171.181 L 243.962 173.200 212.377 173.200 C 174.859 173.200,177.043 172.827,173.660 179.812 C 173.009 181.156,171.686 182.956,170.643 183.918 L 168.786 185.630 167.378 184.556 C 164.518 182.374,164.400 181.993,164.400 174.910 L 164.400 168.544 165.797 166.912 C 166.593 165.982,168.317 164.715,169.801 163.970 C 173.092 162.316,174.809 160.599,176.427 157.345 C 178.932 152.308,180.046 151.815,189.244 151.672 L 193.887 151.600 195.721 153.214 M283.933 193.950 C 284.464 194.287,286.754 194.179,287.133 193.800 C 287.243 193.690,286.448 193.603,285.367 193.606 C 284.142 193.610,283.601 193.740,283.933 193.950 M142.200 196.960 C 137.969 198.298,135.568 200.749,134.347 204.977 C 133.348 208.435,137.238 213.960,141.639 215.336 C 144.429 216.208,146.194 217.960,146.992 220.650 C 147.838 223.498,149.511 225.606,152.031 227.000 L 154.200 228.200 173.998 228.315 L 193.796 228.429 195.298 229.896 L 196.800 231.362 196.800 243.800 L 196.800 256.238 195.259 257.743 L 193.718 259.247 192.511 258.232 C 191.847 257.673,191.083 256.628,190.814 255.908 C 188.928 250.870,187.734 249.287,184.642 247.720 C 179.646 245.188,173.485 248.536,171.954 254.616 C 171.698 255.636,170.982 256.842,170.163 257.636 L 168.800 258.957 167.441 257.640 C 166.652 256.875,165.875 255.582,165.587 254.555 C 163.778 248.092,157.941 245.788,145.200 246.507 C 132.523 247.223,130.085 261.969,142.078 265.393 C 144.458 266.073,146.800 268.116,146.800 269.514 C 146.802 272.766,150.720 277.026,154.703 278.106 C 155.675 278.369,156.961 279.141,157.703 279.906 L 159.000 281.244 159.200 288.322 C 159.483 298.329,161.088 301.275,167.151 302.919 C 169.077 303.441,171.998 305.957,172.004 307.100 C 172.020 310.018,175.932 314.409,179.418 315.423 C 181.944 316.157,183.678 317.905,184.553 320.600 C 186.864 327.720,188.746 328.400,206.141 328.400 C 223.474 328.400,225.994 327.525,227.847 320.860 C 228.662 317.930,230.236 316.285,232.895 315.584 C 237.005 314.501,239.360 312.082,240.676 307.594 C 241.298 305.471,242.910 303.780,244.731 303.343 C 251.095 301.812,252.990 298.408,253.383 287.800 L 253.635 281.000 254.917 279.770 C 255.667 279.051,257.174 278.247,258.545 277.835 C 261.852 276.842,264.131 274.508,265.088 271.137 C 265.973 268.022,267.805 266.033,270.509 265.255 C 279.420 262.693,280.544 252.133,272.342 248.034 L 269.872 246.800 262.807 246.800 C 252.625 246.800,249.162 248.444,247.370 254.128 C 246.914 255.574,246.147 256.875,245.214 257.787 L 243.764 259.202 242.330 257.701 C 241.522 256.856,240.602 255.295,240.225 254.129 C 237.019 244.220,224.902 244.450,222.116 254.473 C 221.689 256.007,221.039 257.187,220.140 258.058 L 218.800 259.357 217.400 258.000 L 216.000 256.643 216.000 243.935 L 216.000 231.228 217.241 229.814 L 218.483 228.400 237.826 228.400 C 260.022 228.400,260.023 228.400,263.143 225.016 C 266.744 221.109,266.640 216.198,262.876 212.442 C 259.424 208.995,262.650 209.205,212.600 209.182 L 168.600 209.163 167.100 207.700 C 166.275 206.896,165.600 205.959,165.600 205.619 C 165.598 202.485,161.693 198.134,157.862 196.996 C 155.309 196.238,144.561 196.213,142.200 196.960 M158.390 203.637 C 159.318 204.537,160.505 206.243,161.029 207.428 C 163.604 213.249,166.538 214.537,176.792 214.345 C 181.087 214.265,200.833 214.245,220.673 214.300 L 256.747 214.400 258.773 216.374 C 261.256 218.793,261.256 218.706,258.781 221.181 L 256.762 223.200 237.565 223.200 C 216.041 223.200,217.042 223.073,213.924 226.203 C 210.855 229.285,210.799 229.603,210.809 243.896 C 210.819 259.296,211.273 260.780,216.838 263.619 C 219.765 265.113,223.679 262.605,226.183 257.633 C 226.952 256.106,228.320 254.238,229.395 253.248 L 231.266 251.523 232.333 252.446 C 234.325 254.171,235.270 255.396,236.227 257.491 C 239.980 265.710,247.065 265.796,251.333 257.675 C 252.134 256.150,253.513 254.249,254.396 253.451 L 256.002 252.000 262.582 252.000 L 269.162 252.000 271.184 254.022 L 273.207 256.045 272.145 257.437 C 270.902 259.066,269.301 260.269,266.800 261.451 C 264.437 262.568,262.692 264.456,261.228 267.477 C 259.740 270.550,257.778 272.536,254.876 273.911 C 249.274 276.563,247.811 279.537,248.183 287.513 C 248.524 294.832,247.667 296.427,241.925 299.156 C 239.730 300.199,237.410 302.623,236.380 304.951 C 235.209 307.595,233.033 309.807,230.199 311.230 C 227.007 312.835,225.071 314.707,223.597 317.615 C 222.980 318.833,221.652 320.588,220.646 321.515 L 218.818 323.200 206.200 323.200 L 193.582 323.200 191.748 321.509 C 190.670 320.516,189.430 318.797,188.744 317.345 C 187.427 314.556,185.174 312.303,182.600 311.200 C 180.116 310.135,177.847 307.924,176.655 305.407 C 175.205 302.344,173.132 300.217,170.264 298.848 C 168.909 298.202,167.057 296.891,166.149 295.936 L 164.498 294.200 164.263 287.490 C 163.958 278.762,162.647 276.069,157.675 273.952 C 155.182 272.890,152.537 270.273,151.407 267.750 C 150.106 264.848,147.994 262.689,145.098 261.305 C 143.629 260.602,141.895 259.345,140.888 258.251 C 138.905 256.098,138.945 255.875,141.765 253.275 L 143.582 251.600 149.935 251.600 L 156.287 251.600 158.164 253.252 C 159.218 254.179,160.557 255.926,161.218 257.235 C 165.502 265.722,171.677 265.879,176.195 257.617 C 177.603 255.041,180.351 252.000,181.271 252.000 C 182.142 252.000,184.887 255.126,186.052 257.444 C 190.182 265.663,196.889 266.066,200.834 258.333 C 201.590 256.852,201.624 256.086,201.515 243.273 L 201.400 229.773 199.979 227.786 C 199.148 226.626,197.658 225.259,196.396 224.500 L 194.235 223.200 175.099 223.200 L 155.962 223.200 154.015 221.253 C 152.944 220.182,151.672 218.386,151.189 217.262 C 150.212 214.991,147.558 212.304,145.271 211.270 C 143.147 210.309,141.472 209.032,140.270 207.457 L 139.224 206.084 141.234 204.042 L 143.244 202.000 149.974 202.000 L 156.704 202.000 158.390 203.637 M179.405 274.027 C 175.208 276.121,172.716 280.190,173.938 282.954 C 176.132 287.914,178.925 289.200,187.502 289.200 L 194.235 289.200 196.401 287.900 C 202.984 283.949,202.984 278.451,196.401 274.500 L 194.235 273.200 187.618 273.216 C 181.834 273.230,180.799 273.332,179.405 274.027 M217.000 273.873 C 209.554 277.847,209.352 284.951,216.587 288.352 C 219.454 289.700,230.798 289.623,233.513 288.237 C 240.955 284.440,240.537 277.090,232.691 273.812 C 230.546 272.916,218.707 272.961,217.000 273.873 M291.859 277.789 C 291.736 278.111,291.788 278.469,291.976 278.585 C 292.163 278.701,292.417 278.532,292.541 278.211 C 292.664 277.889,292.612 277.531,292.424 277.415 C 292.237 277.299,291.983 277.468,291.859 277.789 M195.200 279.800 L 196.557 281.200 195.200 282.600 L 193.843 284.000 187.400 284.000 L 180.957 284.000 179.600 282.600 L 178.243 281.200 179.600 279.800 L 180.957 278.400 187.400 278.400 L 193.843 278.400 195.200 279.800 M232.759 279.757 C 233.874 280.908,234.007 281.239,233.634 281.937 C 232.635 283.803,231.811 284.000,224.989 284.000 L 218.557 284.000 217.200 282.600 L 215.843 281.200 217.200 279.800 L 218.557 278.400 225.000 278.400 L 231.443 278.400 232.759 279.757 M305.923 314.205 C 305.833 314.978,305.901 315.833,306.074 316.105 C 306.252 316.385,306.390 315.776,306.394 314.700 C 306.401 312.466,306.157 312.209,305.923 314.205 M305.994 322.719 L 306.187 325.000 306.318 323.044 C 306.390 321.969,306.303 320.942,306.124 320.763 C 305.946 320.584,305.887 321.464,305.994 322.719 M118.318 339.084 C 118.216 339.478,118.370 340.340,118.660 341.000 C 119.171 342.167,119.179 342.151,118.937 340.400 C 118.646 338.293,118.565 338.121,118.318 339.084 M81.206 339.900 C 81.211 340.701,81.309 340.847,81.569 340.436 C 81.765 340.126,81.833 339.631,81.720 339.336 C 81.396 338.490,81.199 338.706,81.206 339.900 M171.230 341.982 C 170.880 342.198,170.979 342.354,171.566 342.507 C 172.024 342.627,172.488 342.581,172.597 342.404 C 172.882 341.944,171.821 341.616,171.230 341.982 " stroke="none" fill="#e8e884" fill-rule="evenodd"></path><path id="path3" d="M96.531 70.112 C 96.415 70.300,96.391 70.524,96.477 70.611 C 96.715 70.848,98.400 70.347,98.400 70.039 C 98.400 69.648,96.778 69.711,96.531 70.112 M241.907 71.266 C 241.649 71.938,242.182 73.087,242.500 72.543 C 242.610 72.354,242.574 71.853,242.420 71.429 C 242.191 70.800,242.097 70.770,241.907 71.266 M93.600 77.110 C 93.600 78.233,93.747 79.244,93.927 79.355 C 94.246 79.552,94.087 75.564,93.763 75.233 C 93.673 75.142,93.600 75.986,93.600 77.110 M277.684 82.958 C 277.968 83.265,278.338 83.432,278.507 83.330 C 278.964 83.053,278.440 82.400,277.761 82.400 C 277.274 82.400,277.261 82.500,277.684 82.958 M39.677 93.811 C 39.943 94.076,93.273 94.060,93.538 93.795 C 93.646 93.688,81.523 93.600,66.600 93.600 C 51.677 93.600,39.562 93.695,39.677 93.811 M94.288 94.136 C 94.447 94.391,94.616 94.852,94.662 95.160 C 94.709 95.468,94.924 95.829,95.141 95.963 C 95.556 96.220,98.159 102.953,98.635 105.000 C 99.351 108.082,102.012 111.379,105.000 112.885 C 107.393 114.091,109.120 115.496,110.427 117.301 L 111.600 118.920 111.600 125.391 L 111.600 131.863 112.846 133.744 C 114.068 135.588,116.572 137.629,118.525 138.372 C 119.731 138.830,122.132 140.901,123.206 142.408 L 123.999 143.522 123.028 149.861 L 122.057 156.200 122.901 161.800 C 123.429 165.307,123.798 170.044,123.889 174.472 L 124.034 181.544 121.717 183.887 C 119.930 185.694,118.861 186.410,117.044 187.015 C 109.322 189.588,107.597 196.294,110.380 212.921 C 111.991 222.545,111.967 229.414,110.291 238.257 C 108.751 246.381,110.450 250.155,116.655 252.390 C 121.148 254.009,121.899 255.193,123.036 262.455 C 124.359 270.911,124.346 278.286,122.992 287.333 L 121.985 294.066 123.049 296.438 C 124.373 299.388,126.416 301.271,129.521 302.403 C 135.145 304.454,136.171 308.161,136.189 326.500 C 136.195 332.605,136.297 337.600,136.415 337.600 C 136.936 337.600,136.543 341.665,135.987 342.016 C 135.531 342.305,135.616 342.389,136.367 342.394 C 137.851 342.403,137.098 342.818,134.939 343.181 C 133.347 343.448,133.823 343.513,137.600 343.547 C 140.702 343.574,142.005 343.461,141.600 343.200 C 141.102 342.878,141.136 342.810,141.800 342.800 C 142.405 342.791,142.467 342.704,142.055 342.442 C 141.636 342.177,141.626 342.058,142.008 341.931 C 142.381 341.806,142.351 341.608,141.890 341.147 C 141.513 340.770,141.400 340.323,141.601 339.999 C 141.781 339.707,141.844 339.093,141.741 338.634 C 141.638 338.175,141.499 331.770,141.433 324.400 C 141.254 304.452,140.227 300.720,134.132 297.872 C 127.975 294.994,128.106 295.241,128.723 287.698 C 129.745 275.212,128.993 258.685,127.185 253.852 C 126.135 251.046,123.700 248.771,120.494 247.602 C 119.097 247.093,117.532 246.155,116.775 245.374 L 115.467 244.025 115.979 238.312 C 116.476 232.760,116.436 225.442,115.780 202.000 L 115.551 193.800 116.875 192.778 C 117.604 192.217,119.460 191.348,121.000 190.849 C 124.642 189.668,126.086 188.519,127.469 185.703 L 128.600 183.400 128.655 163.000 C 128.717 140.171,128.660 139.576,126.153 136.801 C 124.797 135.299,121.349 133.600,119.660 133.600 C 119.269 133.600,118.436 133.063,117.807 132.407 L 116.665 131.215 116.377 123.907 C 115.948 112.993,114.486 110.314,108.148 108.825 C 105.729 108.257,104.209 106.827,103.869 104.800 C 103.388 101.942,103.143 101.012,102.816 100.809 C 102.632 100.694,102.413 100.150,102.331 99.600 C 102.248 99.050,101.998 98.633,101.774 98.672 C 101.549 98.712,101.339 98.383,101.305 97.940 C 101.235 97.003,100.442 95.927,100.015 96.191 C 99.853 96.291,99.379 96.062,98.961 95.683 C 98.027 94.837,93.864 93.459,94.288 94.136 M31.293 97.600 C 31.293 98.370,31.375 98.685,31.476 98.300 C 31.576 97.915,31.576 97.285,31.476 96.900 C 31.375 96.515,31.293 96.830,31.293 97.600 M153.882 109.645 C 144.545 112.783,144.608 125.057,153.976 127.876 C 156.785 128.722,158.879 130.628,159.495 132.900 C 160.372 136.134,162.056 138.181,165.057 139.657 L 167.785 141.000 175.193 141.000 C 185.584 141.000,187.923 139.806,190.278 133.295 C 190.814 131.813,191.725 130.105,192.301 129.500 L 193.350 128.400 212.433 128.400 L 231.517 128.400 232.707 129.756 C 233.362 130.501,234.217 132.125,234.606 133.365 C 235.520 136.269,237.758 138.812,240.485 140.044 C 243.653 141.476,256.318 141.499,259.400 140.079 C 267.893 136.165,267.352 124.820,258.545 122.161 C 255.682 121.297,253.734 119.583,253.151 117.416 C 252.125 113.606,249.973 111.062,246.742 109.839 C 244.096 108.837,156.827 108.655,153.882 109.645 M243.868 114.400 C 244.751 114.400,247.945 118.007,248.918 120.104 C 250.142 122.742,252.268 124.854,255.003 126.149 C 257.113 127.148,259.582 129.272,260.391 130.784 C 260.751 131.457,260.492 131.891,258.597 133.785 L 256.383 136.000 250.037 136.000 L 243.691 136.000 241.680 134.100 C 240.534 133.017,239.212 131.227,238.606 129.938 C 237.398 127.368,235.293 125.077,233.116 123.961 C 230.787 122.767,193.976 122.788,191.630 123.985 C 189.377 125.134,187.667 127.023,186.311 129.862 C 185.598 131.354,184.325 133.109,183.173 134.186 L 181.234 136.000 175.000 136.000 L 168.766 136.000 166.732 134.100 C 165.586 133.030,164.245 131.244,163.660 130.011 C 162.347 127.242,160.167 125.053,157.491 123.815 C 155.223 122.765,154.390 122.114,152.695 120.064 L 151.590 118.727 152.630 117.464 C 153.202 116.769,154.255 115.750,154.972 115.200 L 156.274 114.200 199.837 114.300 C 223.797 114.356,243.611 114.401,243.868 114.400 M31.206 127.300 C 31.210 128.184,31.323 128.426,31.557 128.056 C 31.872 127.559,31.717 126.000,31.353 126.000 C 31.269 126.000,31.203 126.585,31.206 127.300 M43.600 133.400 C 43.600 134.683,43.705 135.628,43.833 135.500 C 43.962 135.372,44.067 134.427,44.067 133.400 C 44.067 132.373,43.962 131.428,43.833 131.300 C 43.705 131.172,43.600 132.117,43.600 133.400 M44.012 142.251 C 43.994 142.911,45.091 143.709,45.687 143.469 C 46.017 143.337,45.958 143.252,45.520 143.232 C 45.146 143.214,44.656 142.885,44.432 142.500 C 44.208 142.115,44.019 142.003,44.012 142.251 M179.330 146.960 C 175.544 148.180,172.936 150.880,171.957 154.594 C 171.504 156.313,169.040 159.197,168.019 159.204 C 165.549 159.220,161.422 162.525,160.031 165.600 C 158.699 168.548,158.804 181.770,160.182 184.600 C 163.892 192.217,172.849 192.552,176.758 185.219 C 177.441 183.937,178.000 182.599,178.000 182.245 C 178.000 181.892,178.647 180.886,179.438 180.010 L 180.877 178.418 212.938 178.309 L 245.000 178.200 247.117 177.243 C 254.096 174.090,254.934 165.499,248.670 161.311 C 245.604 159.260,245.054 159.206,224.709 158.930 C 202.686 158.631,204.756 159.082,202.983 154.194 C 200.673 147.825,198.394 146.641,188.200 146.512 C 183.044 146.448,180.526 146.575,179.330 146.960 M195.721 153.214 C 196.781 154.147,197.997 155.762,198.601 157.039 C 201.636 163.454,203.005 164.000,216.084 164.001 C 221.868 164.002,230.553 164.121,235.385 164.267 L 244.171 164.533 246.085 166.447 C 248.442 168.804,248.444 168.718,245.981 171.181 L 243.962 173.200 212.377 173.200 C 174.859 173.200,177.043 172.827,173.660 179.812 C 173.009 181.156,171.686 182.956,170.643 183.918 L 168.786 185.630 167.378 184.556 C 164.518 182.374,164.400 181.993,164.400 174.910 L 164.400 168.544 165.797 166.912 C 166.593 165.982,168.317 164.715,169.801 163.970 C 173.092 162.316,174.809 160.599,176.427 157.345 C 178.932 152.308,180.046 151.815,189.244 151.672 L 193.887 151.600 195.721 153.214 M283.933 193.950 C 284.464 194.287,286.754 194.179,287.133 193.800 C 287.243 193.690,286.448 193.603,285.367 193.606 C 284.142 193.610,283.601 193.740,283.933 193.950 M142.200 196.960 C 137.969 198.298,135.568 200.749,134.347 204.977 C 133.348 208.435,137.238 213.960,141.639 215.336 C 144.429 216.208,146.194 217.960,146.992 220.650 C 147.838 223.498,149.511 225.606,152.031 227.000 L 154.200 228.200 173.998 228.315 L 193.796 228.429 195.298 229.896 L 196.800 231.362 196.800 243.800 L 196.800 256.238 195.259 257.743 L 193.718 259.247 192.511 258.232 C 191.847 257.673,191.083 256.628,190.814 255.908 C 188.928 250.870,187.734 249.287,184.642 247.720 C 179.646 245.188,173.485 248.536,171.954 254.616 C 171.698 255.636,170.982 256.842,170.163 257.636 L 168.800 258.957 167.441 257.640 C 166.652 256.875,165.875 255.582,165.587 254.555 C 163.778 248.092,157.941 245.788,145.200 246.507 C 132.523 247.223,130.085 261.969,142.078 265.393 C 144.458 266.073,146.800 268.116,146.800 269.514 C 146.802 272.766,150.720 277.026,154.703 278.106 C 155.675 278.369,156.961 279.141,157.703 279.906 L 159.000 281.244 159.200 288.322 C 159.483 298.329,161.088 301.275,167.151 302.919 C 169.077 303.441,171.998 305.957,172.004 307.100 C 172.020 310.018,175.932 314.409,179.418 315.423 C 181.944 316.157,183.678 317.905,184.553 320.600 C 186.864 327.720,188.746 328.400,206.141 328.400 C 223.474 328.400,225.994 327.525,227.847 320.860 C 228.662 317.930,230.236 316.285,232.895 315.584 C 237.005 314.501,239.360 312.082,240.676 307.594 C 241.298 305.471,242.910 303.780,244.731 303.343 C 251.095 301.812,252.990 298.408,253.383 287.800 L 253.635 281.000 254.917 279.770 C 255.667 279.051,257.174 278.247,258.545 277.835 C 261.852 276.842,264.131 274.508,265.088 271.137 C 265.973 268.022,267.805 266.033,270.509 265.255 C 279.420 262.693,280.544 252.133,272.342 248.034 L 269.872 246.800 262.807 246.800 C 252.625 246.800,249.162 248.444,247.370 254.128 C 246.914 255.574,246.147 256.875,245.214 257.787 L 243.764 259.202 242.330 257.701 C 241.522 256.856,240.602 255.295,240.225 254.129 C 237.019 244.220,224.902 244.450,222.116 254.473 C 221.689 256.007,221.039 257.187,220.140 258.058 L 218.800 259.357 217.400 258.000 L 216.000 256.643 216.000 243.935 L 216.000 231.228 217.241 229.814 L 218.483 228.400 237.826 228.400 C 260.022 228.400,260.023 228.400,263.143 225.016 C 266.744 221.109,266.640 216.198,262.876 212.442 C 259.424 208.995,262.650 209.205,212.600 209.182 L 168.600 209.163 167.100 207.700 C 166.275 206.896,165.600 205.959,165.600 205.619 C 165.598 202.485,161.693 198.134,157.862 196.996 C 155.309 196.238,144.561 196.213,142.200 196.960 M158.390 203.637 C 159.318 204.537,160.505 206.243,161.029 207.428 C 163.604 213.249,166.538 214.537,176.792 214.345 C 181.087 214.265,200.833 214.245,220.673 214.300 L 256.747 214.400 258.773 216.374 C 261.256 218.793,261.256 218.706,258.781 221.181 L 256.762 223.200 237.565 223.200 C 216.041 223.200,217.042 223.073,213.924 226.203 C 210.855 229.285,210.799 229.603,210.809 243.896 C 210.819 259.296,211.273 260.780,216.838 263.619 C 219.765 265.113,223.679 262.605,226.183 257.633 C 226.952 256.106,228.320 254.238,229.395 253.248 L 231.266 251.523 232.333 252.446 C 234.325 254.171,235.270 255.396,236.227 257.491 C 239.980 265.710,247.065 265.796,251.333 257.675 C 252.134 256.150,253.513 254.249,254.396 253.451 L 256.002 252.000 262.582 252.000 L 269.162 252.000 271.184 254.022 L 273.207 256.045 272.145 257.437 C 270.902 259.066,269.301 260.269,266.800 261.451 C 264.437 262.568,262.692 264.456,261.228 267.477 C 259.740 270.550,257.778 272.536,254.876 273.911 C 249.274 276.563,247.811 279.537,248.183 287.513 C 248.524 294.832,247.667 296.427,241.925 299.156 C 239.730 300.199,237.410 302.623,236.380 304.951 C 235.209 307.595,233.033 309.807,230.199 311.230 C 227.007 312.835,225.071 314.707,223.597 317.615 C 222.980 318.833,221.652 320.588,220.646 321.515 L 218.818 323.200 206.200 323.200 L 193.582 323.200 191.748 321.509 C 190.670 320.516,189.430 318.797,188.744 317.345 C 187.427 314.556,185.174 312.303,182.600 311.200 C 180.116 310.135,177.847 307.924,176.655 305.407 C 175.205 302.344,173.132 300.217,170.264 298.848 C 168.909 298.202,167.057 296.891,166.149 295.936 L 164.498 294.200 164.263 287.490 C 163.958 278.762,162.647 276.069,157.675 273.952 C 155.182 272.890,152.537 270.273,151.407 267.750 C 150.106 264.848,147.994 262.689,145.098 261.305 C 143.629 260.602,141.895 259.345,140.888 258.251 C 138.905 256.098,138.945 255.875,141.765 253.275 L 143.582 251.600 149.935 251.600 L 156.287 251.600 158.164 253.252 C 159.218 254.179,160.557 255.926,161.218 257.235 C 165.502 265.722,171.677 265.879,176.195 257.617 C 177.603 255.041,180.351 252.000,181.271 252.000 C 182.142 252.000,184.887 255.126,186.052 257.444 C 190.182 265.663,196.889 266.066,200.834 258.333 C 201.590 256.852,201.624 256.086,201.515 243.273 L 201.400 229.773 199.979 227.786 C 199.148 226.626,197.658 225.259,196.396 224.500 L 194.235 223.200 175.099 223.200 L 155.962 223.200 154.015 221.253 C 152.944 220.182,151.672 218.386,151.189 217.262 C 150.212 214.991,147.558 212.304,145.271 211.270 C 143.147 210.309,141.472 209.032,140.270 207.457 L 139.224 206.084 141.234 204.042 L 143.244 202.000 149.974 202.000 L 156.704 202.000 158.390 203.637 M179.405 274.027 C 175.208 276.121,172.716 280.190,173.938 282.954 C 176.132 287.914,178.925 289.200,187.502 289.200 L 194.235 289.200 196.401 287.900 C 202.984 283.949,202.984 278.451,196.401 274.500 L 194.235 273.200 187.618 273.216 C 181.834 273.230,180.799 273.332,179.405 274.027 M217.000 273.873 C 209.554 277.847,209.352 284.951,216.587 288.352 C 219.454 289.700,230.798 289.623,233.513 288.237 C 240.955 284.440,240.537 277.090,232.691 273.812 C 230.546 272.916,218.707 272.961,217.000 273.873 M291.859 277.789 C 291.736 278.111,291.788 278.469,291.976 278.585 C 292.163 278.701,292.417 278.532,292.541 278.211 C 292.664 277.889,292.612 277.531,292.424 277.415 C 292.237 277.299,291.983 277.468,291.859 277.789 M195.200 279.800 L 196.557 281.200 195.200 282.600 L 193.843 284.000 187.400 284.000 L 180.957 284.000 179.600 282.600 L 178.243 281.200 179.600 279.800 L 180.957 278.400 187.400 278.400 L 193.843 278.400 195.200 279.800 M232.759 279.757 C 233.874 280.908,234.007 281.239,233.634 281.937 C 232.635 283.803,231.811 284.000,224.989 284.000 L 218.557 284.000 217.200 282.600 L 215.843 281.200 217.200 279.800 L 218.557 278.400 225.000 278.400 L 231.443 278.400 232.759 279.757 M305.923 314.205 C 305.833 314.978,305.901 315.833,306.074 316.105 C 306.252 316.385,306.390 315.776,306.394 314.700 C 306.401 312.466,306.157 312.209,305.923 314.205 M305.994 322.719 L 306.187 325.000 306.318 323.044 C 306.390 321.969,306.303 320.942,306.124 320.763 C 305.946 320.584,305.887 321.464,305.994 322.719 M118.318 339.084 C 118.216 339.478,118.370 340.340,118.660 341.000 C 119.171 342.167,119.179 342.151,118.937 340.400 C 118.646 338.293,118.565 338.121,118.318 339.084 M81.206 339.900 C 81.211 340.701,81.309 340.847,81.569 340.436 C 81.765 340.126,81.833 339.631,81.720 339.336 C 81.396 338.490,81.199 338.706,81.206 339.900 M171.230 341.982 C 170.880 342.198,170.979 342.354,171.566 342.507 C 172.024 342.627,172.488 342.581,172.597 342.404 C 172.882 341.944,171.821 341.616,171.230 341.982 " stroke="none" fill="#e8e884" fill-rule="evenodd"></path><path id="path4" d="M96.531 70.112 C 96.415 70.300,96.391 70.524,96.477 70.611 C 96.715 70.848,98.400 70.347,98.400 70.039 C 98.400 69.648,96.778 69.711,96.531 70.112 M241.907 71.266 C 241.649 71.938,242.182 73.087,242.500 72.543 C 242.610 72.354,242.574 71.853,242.420 71.429 C 242.191 70.800,242.097 70.770,241.907 71.266 M93.600 77.110 C 93.600 78.233,93.747 79.244,93.927 79.355 C 94.246 79.552,94.087 75.564,93.763 75.233 C 93.673 75.142,93.600 75.986,93.600 77.110 M277.684 82.958 C 277.968 83.265,278.338 83.432,278.507 83.330 C 278.964 83.053,278.440 82.400,277.761 82.400 C 277.274 82.400,277.261 82.500,277.684 82.958 M39.677 93.811 C 39.943 94.076,93.273 94.060,93.538 93.795 C 93.646 93.688,81.523 93.600,66.600 93.600 C 51.677 93.600,39.562 93.695,39.677 93.811 M94.288 94.136 C 94.447 94.391,94.616 94.852,94.662 95.160 C 94.709 95.468,94.924 95.829,95.141 95.963 C 95.556 96.220,98.159 102.953,98.635 105.000 C 99.351 108.082,102.012 111.379,105.000 112.885 C 107.393 114.091,109.120 115.496,110.427 117.301 L 111.600 118.920 111.600 125.391 L 111.600 131.863 112.846 133.744 C 114.068 135.588,116.572 137.629,118.525 138.372 C 119.731 138.830,122.132 140.901,123.206 142.408 L 123.999 143.522 123.028 149.861 L 122.057 156.200 122.901 161.800 C 123.429 165.307,123.798 170.044,123.889 174.472 L 124.034 181.544 121.717 183.887 C 119.930 185.694,118.861 186.410,117.044 187.015 C 109.322 189.588,107.597 196.294,110.380 212.921 C 111.991 222.545,111.967 229.414,110.291 238.257 C 108.751 246.381,110.450 250.155,116.655 252.390 C 121.148 254.009,121.899 255.193,123.036 262.455 C 124.359 270.911,124.346 278.286,122.992 287.333 L 121.985 294.066 123.049 296.438 C 124.373 299.388,126.416 301.271,129.521 302.403 C 135.145 304.454,136.171 308.161,136.189 326.500 C 136.195 332.605,136.297 337.600,136.415 337.600 C 136.936 337.600,136.543 341.665,135.987 342.016 C 135.531 342.305,135.616 342.389,136.367 342.394 C 137.851 342.403,137.098 342.818,134.939 343.181 C 133.347 343.448,133.823 343.513,137.600 343.547 C 140.702 343.574,142.005 343.461,141.600 343.200 C 141.102 342.878,141.136 342.810,141.800 342.800 C 142.405 342.791,142.467 342.704,142.055 342.442 C 141.636 342.177,141.626 342.058,142.008 341.931 C 142.381 341.806,142.351 341.608,141.890 341.147 C 141.513 340.770,141.400 340.323,141.601 339.999 C 141.781 339.707,141.844 339.093,141.741 338.634 C 141.638 338.175,141.499 331.770,141.433 324.400 C 141.254 304.452,140.227 300.720,134.132 297.872 C 127.975 294.994,128.106 295.241,128.723 287.698 C 129.745 275.212,128.993 258.685,127.185 253.852 C 126.135 251.046,123.700 248.771,120.494 247.602 C 119.097 247.093,117.532 246.155,116.775 245.374 L 115.467 244.025 115.979 238.312 C 116.476 232.760,116.436 225.442,115.780 202.000 L 115.551 193.800 116.875 192.778 C 117.604 192.217,119.460 191.348,121.000 190.849 C 124.642 189.668,126.086 188.519,127.469 185.703 L 128.600 183.400 128.655 163.000 C 128.717 140.171,128.660 139.576,126.153 136.801 C 124.797 135.299,121.349 133.600,119.660 133.600 C 119.269 133.600,118.436 133.063,117.807 132.407 L 116.665 131.215 116.377 123.907 C 115.948 112.993,114.486 110.314,108.148 108.825 C 105.729 108.257,104.209 106.827,103.869 104.800 C 103.388 101.942,103.143 101.012,102.816 100.809 C 102.632 100.694,102.413 100.150,102.331 99.600 C 102.248 99.050,101.998 98.633,101.774 98.672 C 101.549 98.712,101.339 98.383,101.305 97.940 C 101.235 97.003,100.442 95.927,100.015 96.191 C 99.853 96.291,99.379 96.062,98.961 95.683 C 98.027 94.837,93.864 93.459,94.288 94.136 M31.293 97.600 C 31.293 98.370,31.375 98.685,31.476 98.300 C 31.576 97.915,31.576 97.285,31.476 96.900 C 31.375 96.515,31.293 96.830,31.293 97.600 M153.882 109.645 C 144.545 112.783,144.608 125.057,153.976 127.876 C 156.785 128.722,158.879 130.628,159.495 132.900 C 160.372 136.134,162.056 138.181,165.057 139.657 L 167.785 141.000 175.193 141.000 C 185.584 141.000,187.923 139.806,190.278 133.295 C 190.814 131.813,191.725 130.105,192.301 129.500 L 193.350 128.400 212.433 128.400 L 231.517 128.400 232.707 129.756 C 233.362 130.501,234.217 132.125,234.606 133.365 C 235.520 136.269,237.758 138.812,240.485 140.044 C 243.653 141.476,256.318 141.499,259.400 140.079 C 267.893 136.165,267.352 124.820,258.545 122.161 C 255.682 121.297,253.734 119.583,253.151 117.416 C 252.125 113.606,249.973 111.062,246.742 109.839 C 244.096 108.837,156.827 108.655,153.882 109.645 M243.868 114.400 C 244.751 114.400,247.945 118.007,248.918 120.104 C 250.142 122.742,252.268 124.854,255.003 126.149 C 257.113 127.148,259.582 129.272,260.391 130.784 C 260.751 131.457,260.492 131.891,258.597 133.785 L 256.383 136.000 250.037 136.000 L 243.691 136.000 241.680 134.100 C 240.534 133.017,239.212 131.227,238.606 129.938 C 237.398 127.368,235.293 125.077,233.116 123.961 C 230.787 122.767,193.976 122.788,191.630 123.985 C 189.377 125.134,187.667 127.023,186.311 129.862 C 185.598 131.354,184.325 133.109,183.173 134.186 L 181.234 136.000 175.000 136.000 L 168.766 136.000 166.732 134.100 C 165.586 133.030,164.245 131.244,163.660 130.011 C 162.347 127.242,160.167 125.053,157.491 123.815 C 155.223 122.765,154.390 122.114,152.695 120.064 L 151.590 118.727 152.630 117.464 C 153.202 116.769,154.255 115.750,154.972 115.200 L 156.274 114.200 199.837 114.300 C 223.797 114.356,243.611 114.401,243.868 114.400 M31.206 127.300 C 31.210 128.184,31.323 128.426,31.557 128.056 C 31.872 127.559,31.717 126.000,31.353 126.000 C 31.269 126.000,31.203 126.585,31.206 127.300 M43.600 133.400 C 43.600 134.683,43.705 135.628,43.833 135.500 C 43.962 135.372,44.067 134.427,44.067 133.400 C 44.067 132.373,43.962 131.428,43.833 131.300 C 43.705 131.172,43.600 132.117,43.600 133.400 M44.012 142.251 C 43.994 142.911,45.091 143.709,45.687 143.469 C 46.017 143.337,45.958 143.252,45.520 143.232 C 45.146 143.214,44.656 142.885,44.432 142.500 C 44.208 142.115,44.019 142.003,44.012 142.251 M179.330 146.960 C 175.544 148.180,172.936 150.880,171.957 154.594 C 171.504 156.313,169.040 159.197,168.019 159.204 C 165.549 159.220,161.422 162.525,160.031 165.600 C 158.699 168.548,158.804 181.770,160.182 184.600 C 163.892 192.217,172.849 192.552,176.758 185.219 C 177.441 183.937,178.000 182.599,178.000 182.245 C 178.000 181.892,178.647 180.886,179.438 180.010 L 180.877 178.418 212.938 178.309 L 245.000 178.200 247.117 177.243 C 254.096 174.090,254.934 165.499,248.670 161.311 C 245.604 159.260,245.054 159.206,224.709 158.930 C 202.686 158.631,204.756 159.082,202.983 154.194 C 200.673 147.825,198.394 146.641,188.200 146.512 C 183.044 146.448,180.526 146.575,179.330 146.960 M195.721 153.214 C 196.781 154.147,197.997 155.762,198.601 157.039 C 201.636 163.454,203.005 164.000,216.084 164.001 C 221.868 164.002,230.553 164.121,235.385 164.267 L 244.171 164.533 246.085 166.447 C 248.442 168.804,248.444 168.718,245.981 171.181 L 243.962 173.200 212.377 173.200 C 174.859 173.200,177.043 172.827,173.660 179.812 C 173.009 181.156,171.686 182.956,170.643 183.918 L 168.786 185.630 167.378 184.556 C 164.518 182.374,164.400 181.993,164.400 174.910 L 164.400 168.544 165.797 166.912 C 166.593 165.982,168.317 164.715,169.801 163.970 C 173.092 162.316,174.809 160.599,176.427 157.345 C 178.932 152.308,180.046 151.815,189.244 151.672 L 193.887 151.600 195.721 153.214 M283.933 193.950 C 284.464 194.287,286.754 194.179,287.133 193.800 C 287.243 193.690,286.448 193.603,285.367 193.606 C 284.142 193.610,283.601 193.740,283.933 193.950 M142.200 196.960 C 137.969 198.298,135.568 200.749,134.347 204.977 C 133.348 208.435,137.238 213.960,141.639 215.336 C 144.429 216.208,146.194 217.960,146.992 220.650 C 147.838 223.498,149.511 225.606,152.031 227.000 L 154.200 228.200 173.998 228.315 L 193.796 228.429 195.298 229.896 L 196.800 231.362 196.800 243.800 L 196.800 256.238 195.259 257.743 L 193.718 259.247 192.511 258.232 C 191.847 257.673,191.083 256.628,190.814 255.908 C 188.928 250.870,187.734 249.287,184.642 247.720 C 179.646 245.188,173.485 248.536,171.954 254.616 C 171.698 255.636,170.982 256.842,170.163 257.636 L 168.800 258.957 167.441 257.640 C 166.652 256.875,165.875 255.582,165.587 254.555 C 163.778 248.092,157.941 245.788,145.200 246.507 C 132.523 247.223,130.085 261.969,142.078 265.393 C 144.458 266.073,146.800 268.116,146.800 269.514 C 146.802 272.766,150.720 277.026,154.703 278.106 C 155.675 278.369,156.961 279.141,157.703 279.906 L 159.000 281.244 159.200 288.322 C 159.483 298.329,161.088 301.275,167.151 302.919 C 169.077 303.441,171.998 305.957,172.004 307.100 C 172.020 310.018,175.932 314.409,179.418 315.423 C 181.944 316.157,183.678 317.905,184.553 320.600 C 186.864 327.720,188.746 328.400,206.141 328.400 C 223.474 328.400,225.994 327.525,227.847 320.860 C 228.662 317.930,230.236 316.285,232.895 315.584 C 237.005 314.501,239.360 312.082,240.676 307.594 C 241.298 305.471,242.910 303.780,244.731 303.343 C 251.095 301.812,252.990 298.408,253.383 287.800 L 253.635 281.000 254.917 279.770 C 255.667 279.051,257.174 278.247,258.545 277.835 C 261.852 276.842,264.131 274.508,265.088 271.137 C 265.973 268.022,267.805 266.033,270.509 265.255 C 279.420 262.693,280.544 252.133,272.342 248.034 L 269.872 246.800 262.807 246.800 C 252.625 246.800,249.162 248.444,247.370 254.128 C 246.914 255.574,246.147 256.875,245.214 257.787 L 243.764 259.202 242.330 257.701 C 241.522 256.856,240.602 255.295,240.225 254.129 C 237.019 244.220,224.902 244.450,222.116 254.473 C 221.689 256.007,221.039 257.187,220.140 258.058 L 218.800 259.357 217.400 258.000 L 216.000 256.643 216.000 243.935 L 216.000 231.228 217.241 229.814 L 218.483 228.400 237.826 228.400 C 260.022 228.400,260.023 228.400,263.143 225.016 C 266.744 221.109,266.640 216.198,262.876 212.442 C 259.424 208.995,262.650 209.205,212.600 209.182 L 168.600 209.163 167.100 207.700 C 166.275 206.896,165.600 205.959,165.600 205.619 C 165.598 202.485,161.693 198.134,157.862 196.996 C 155.309 196.238,144.561 196.213,142.200 196.960 M158.390 203.637 C 159.318 204.537,160.505 206.243,161.029 207.428 C 163.604 213.249,166.538 214.537,176.792 214.345 C 181.087 214.265,200.833 214.245,220.673 214.300 L 256.747 214.400 258.773 216.374 C 261.256 218.793,261.256 218.706,258.781 221.181 L 256.762 223.200 237.565 223.200 C 216.041 223.200,217.042 223.073,213.924 226.203 C 210.855 229.285,210.799 229.603,210.809 243.896 C 210.819 259.296,211.273 260.780,216.838 263.619 C 219.765 265.113,223.679 262.605,226.183 257.633 C 226.952 256.106,228.320 254.238,229.395 253.248 L 231.266 251.523 232.333 252.446 C 234.325 254.171,235.270 255.396,236.227 257.491 C 239.980 265.710,247.065 265.796,251.333 257.675 C 252.134 256.150,253.513 254.249,254.396 253.451 L 256.002 252.000 262.582 252.000 L 269.162 252.000 271.184 254.022 L 273.207 256.045 272.145 257.437 C 270.902 259.066,269.301 260.269,266.800 261.451 C 264.437 262.568,262.692 264.456,261.228 267.477 C 259.740 270.550,257.778 272.536,254.876 273.911 C 249.274 276.563,247.811 279.537,248.183 287.513 C 248.524 294.832,247.667 296.427,241.925 299.156 C 239.730 300.199,237.410 302.623,236.380 304.951 C 235.209 307.595,233.033 309.807,230.199 311.230 C 227.007 312.835,225.071 314.707,223.597 317.615 C 222.980 318.833,221.652 320.588,220.646 321.515 L 218.818 323.200 206.200 323.200 L 193.582 323.200 191.748 321.509 C 190.670 320.516,189.430 318.797,188.744 317.345 C 187.427 314.556,185.174 312.303,182.600 311.200 C 180.116 310.135,177.847 307.924,176.655 305.407 C 175.205 302.344,173.132 300.217,170.264 298.848 C 168.909 298.202,167.057 296.891,166.149 295.936 L 164.498 294.200 164.263 287.490 C 163.958 278.762,162.647 276.069,157.675 273.952 C 155.182 272.890,152.537 270.273,151.407 267.750 C 150.106 264.848,147.994 262.689,145.098 261.305 C 143.629 260.602,141.895 259.345,140.888 258.251 C 138.905 256.098,138.945 255.875,141.765 253.275 L 143.582 251.600 149.935 251.600 L 156.287 251.600 158.164 253.252 C 159.218 254.179,160.557 255.926,161.218 257.235 C 165.502 265.722,171.677 265.879,176.195 257.617 C 177.603 255.041,180.351 252.000,181.271 252.000 C 182.142 252.000,184.887 255.126,186.052 257.444 C 190.182 265.663,196.889 266.066,200.834 258.333 C 201.590 256.852,201.624 256.086,201.515 243.273 L 201.400 229.773 199.979 227.786 C 199.148 226.626,197.658 225.259,196.396 224.500 L 194.235 223.200 175.099 223.200 L 155.962 223.200 154.015 221.253 C 152.944 220.182,151.672 218.386,151.189 217.262 C 150.212 214.991,147.558 212.304,145.271 211.270 C 143.147 210.309,141.472 209.032,140.270 207.457 L 139.224 206.084 141.234 204.042 L 143.244 202.000 149.974 202.000 L 156.704 202.000 158.390 203.637 M179.405 274.027 C 175.208 276.121,172.716 280.190,173.938 282.954 C 176.132 287.914,178.925 289.200,187.502 289.200 L 194.235 289.200 196.401 287.900 C 202.984 283.949,202.984 278.451,196.401 274.500 L 194.235 273.200 187.618 273.216 C 181.834 273.230,180.799 273.332,179.405 274.027 M217.000 273.873 C 209.554 277.847,209.352 284.951,216.587 288.352 C 219.454 289.700,230.798 289.623,233.513 288.237 C 240.955 284.440,240.537 277.090,232.691 273.812 C 230.546 272.916,218.707 272.961,217.000 273.873 M291.859 277.789 C 291.736 278.111,291.788 278.469,291.976 278.585 C 292.163 278.701,292.417 278.532,292.541 278.211 C 292.664 277.889,292.612 277.531,292.424 277.415 C 292.237 277.299,291.983 277.468,291.859 277.789 M195.200 279.800 L 196.557 281.200 195.200 282.600 L 193.843 284.000 187.400 284.000 L 180.957 284.000 179.600 282.600 L 178.243 281.200 179.600 279.800 L 180.957 278.400 187.400 278.400 L 193.843 278.400 195.200 279.800 M232.759 279.757 C 233.874 280.908,234.007 281.239,233.634 281.937 C 232.635 283.803,231.811 284.000,224.989 284.000 L 218.557 284.000 217.200 282.600 L 215.843 281.200 217.200 279.800 L 218.557 278.400 225.000 278.400 L 231.443 278.400 232.759 279.757 M305.923 314.205 C 305.833 314.978,305.901 315.833,306.074 316.105 C 306.252 316.385,306.390 315.776,306.394 314.700 C 306.401 312.466,306.157 312.209,305.923 314.205 M305.994 322.719 L 306.187 325.000 306.318 323.044 C 306.390 321.969,306.303 320.942,306.124 320.763 C 305.946 320.584,305.887 321.464,305.994 322.719 M118.318 339.084 C 118.216 339.478,118.370 340.340,118.660 341.000 C 119.171 342.167,119.179 342.151,118.937 340.400 C 118.646 338.293,118.565 338.121,118.318 339.084 M81.206 339.900 C 81.211 340.701,81.309 340.847,81.569 340.436 C 81.765 340.126,81.833 339.631,81.720 339.336 C 81.396 338.490,81.199 338.706,81.206 339.900 M171.230 341.982 C 170.880 342.198,170.979 342.354,171.566 342.507 C 172.024 342.627,172.488 342.581,172.597 342.404 C 172.882 341.944,171.821 341.616,171.230 341.982 " stroke="none" fill="#e8e884" fill-rule="evenodd"></path></g></svg>