<?xml version="1.0" encoding="UTF-8"?>
<!DOCTYPE svg PUBLIC "-//W3C//DTD SVG 1.1//EN" "http://www.w3.org/Graphics/SVG/1.1/DTD/svg11.dtd">
<svg xmlns="http://www.w3.org/2000/svg" version="1.1" width="16px" height="16px" style="shape-rendering:geometricPrecision; text-rendering:geometricPrecision; image-rendering:optimizeQuality; fill-rule:evenodd; clip-rule:evenodd" xmlns:xlink="http://www.w3.org/1999/xlink">
<g><path style="opacity:1" fill="#000000" d="M 11.5,1.5 C 12.5,1.5 13.5,1.5 14.5,1.5C 13.5299,6.81871 10.8632,11.152 6.5,14.5C 3.60952,12.9571 1.94286,10.6238 1.5,7.5C 3.26241,7.35729 4.92908,7.69063 6.5,8.5C 8.42163,6.31344 10.0883,3.98011 11.5,1.5 Z"/></g>
<g><path style="opacity:1" fill="#95002a" d="M 12.5,2.5 C 12.1873,5.94954 10.5206,9.11621 7.5,12C 5.43238,11.9827 3.76572,10.9827 2.5,9C 4.16667,9.33333 5.83333,9.66667 7.5,10C 9.30094,7.5574 10.9676,5.0574 12.5,2.5 Z"/></g>
</svg>
