<?xml version="1.0" encoding="UTF-8"?>
<!DOCTYPE svg PUBLIC "-//W3C//DTD SVG 1.1//EN" "http://www.w3.org/Graphics/SVG/1.1/DTD/svg11.dtd">
<svg xmlns="http://www.w3.org/2000/svg" version="1.1" width="16px" height="16px" style="shape-rendering:geometricPrecision; text-rendering:geometricPrecision; image-rendering:optimizeQuality; fill-rule:evenodd; clip-rule:evenodd" xmlns:xlink="http://www.w3.org/1999/xlink">
<g><path style="opacity:1" fill="#4b484b" d="M 2.5,1.5 C 3.20895,0.596028 4.20895,0.262695 5.5,0.5C 5.59578,4.31074 6.26245,4.31074 7.5,0.5C 8.73755,4.31074 9.40422,4.31074 9.5,0.5C 11.9418,0.11923 12.6085,0.785897 11.5,2.5C 12.2739,3.71118 13.1072,3.71118 14,2.5C 14.4828,3.44802 14.6495,4.44802 14.5,5.5C 10.6893,5.59578 10.6893,6.26245 14.5,7.5C 10.6893,8.73755 10.6893,9.40422 14.5,9.5C 14.8808,11.9418 14.2141,12.6085 12.5,11.5C 11.2888,12.2739 11.2888,13.1072 12.5,14C 11.552,14.4828 10.552,14.6495 9.5,14.5C 9.40422,10.6893 8.73755,10.6893 7.5,14.5C 6.26245,10.6893 5.59578,10.6893 5.5,14.5C 3.05815,14.8808 2.39149,14.2141 3.5,12.5C 2.7261,11.2888 1.89277,11.2888 1,12.5C 0.517215,11.552 0.350549,10.552 0.5,9.5C 4.31074,9.40422 4.31074,8.73755 0.5,7.5C 4.31074,6.26245 4.31074,5.59578 0.5,5.5C 0.350549,4.44802 0.517215,3.44802 1,2.5C 1.89277,3.71118 2.7261,3.71118 3.5,2.5C 3.37642,1.89333 3.04309,1.55999 2.5,1.5 Z"/></g>
<g><path style="opacity:1" fill="#6f706f" d="M 5.5,4.5 C 10.1585,4.01463 11.4919,5.84796 9.5,10C 4.72816,10.8104 3.39483,8.97711 5.5,4.5 Z"/></g>
<g><path style="opacity:1" fill="#aeafae" d="M 6.5,5.5 C 9.86057,6.20318 10.1939,7.53651 7.5,9.5C 5.35765,8.56289 5.02431,7.22955 6.5,5.5 Z"/></g>
</svg>
