<svg width="52" height="52" version="1.1" xmlns="http://www.w3.org/2000/svg" viewBox="0 -6 52 52" desc="Created with imagetracer.js version 1.2.6" ><path fill="rgb(0,0,0)" stroke="rgb(0,0,0)" stroke-width="1" opacity="1" d="M 15.5 13 L 19 15.5 L 20 18.5 L 16 16.5 L 17 19.5 Q 15.5 22.5 14 19.5 Q 12.8 14.3 15.5 13 Z " /><path fill="rgb(0,0,0)" stroke="rgb(0,0,0)" stroke-width="1" opacity="1" d="M 33.5 13 L 36 14.5 Q 37 19 34.5 20 Q 32.3 20.8 33 18.5 L 34 15.5 L 31 17.5 L 30.5 19 L 30 15.5 L 33.5 13 Z " /><path fill="rgb(0,0,0)" stroke="rgb(0,0,0)" stroke-width="1" opacity="1" d="M 17 25 L 27.5 26 L 31.5 25 L 34 28.5 Q 33.3 31.8 28.5 31 L 24.5 28 Q 24 31.5 19.5 31 Q 16 29.7 17 25 Z M 20 26 L 18 28 L 20 29 L 20 26 Z M 22 26 L 22 29 Q 25 28 22 26 Z M 29 26 L 27 28 L 29 29 L 29 26 Z M 31 26 L 31 29 Q 34 28 31 26 Z " /><path fill="rgb(0,0,0)" stroke="rgb(0,0,0)" stroke-width="1" opacity="1" d="M 23.5 34 L 27 34.5 L 23.5 35 L 23.5 34 Z " /><path fill="rgb(0,0,0)" stroke="rgb(0,0,0)" stroke-width="1" opacity="0" d="M 0 0 L 52 0 L 52 52 L 0 52 L 0 0 Z M 25 3 L 23 5 L 20 17 L 19 16 L 16 13 Q 13 14 14 20 L 14 22 L 17 25 L 17 33 L 22 35 Q 30 36 34 33 L 34 24 L 36 23 L 37 22 Q 33 20 36 19 Q 37 14 35 13 L 32 14 L 30 18 L 26 5 L 25 3 Z " /><path fill="rgb(255,135,1)" stroke="rgb(255,135,1)" stroke-width="1" opacity="1" d="M 24.5 3 L 27 10 L 24.5 11 L 22 10 L 24.5 3 Z " /><path fill="rgb(255,135,1)" stroke="rgb(255,135,1)" stroke-width="1" opacity="1" d="M 21.5 11 L 24.5 13 L 28 11 Q 29 15.7 25.5 17 Q 21.5 17.5 21 14.5 L 21.5 11 Z " /><path fill="rgb(255,135,1)" stroke="rgb(255,135,1)" stroke-width="1" opacity="1" d="M 20.5 17 L 25.5 20 Q 27.8 14.7 30 18.5 L 26.5 24 Q 21 25 20 21.5 L 20.5 17 Z " /><path fill="rgb(255,135,1)" stroke="rgb(255,135,1)" stroke-width="1" opacity="1" d="M 19.5 26 L 20 28.5 L 18 27.5 L 19.5 26 Z " /><path fill="rgb(255,135,1)" stroke="rgb(255,135,1)" stroke-width="1" opacity="1" d="M 21.5 26 Q 24.5 27.5 21.5 29 L 21.5 26 Z " /><path fill="rgb(255,135,1)" stroke="rgb(255,135,1)" stroke-width="1" opacity="1" d="M 28.5 26 L 29 28.5 L 27 27.5 L 28.5 26 Z " /><path fill="rgb(255,135,1)" stroke="rgb(255,135,1)" stroke-width="1" opacity="1" d="M 30.5 26 Q 33.5 27.5 30.5 29 L 30.5 26 Z " /><path fill="rgb(235,126,23)" stroke="rgb(235,126,23)" stroke-width="1" opacity="1" d="M 18.5 19 Q 21.1 18.2 20 21.5 Q 21 25 26.5 24 L 30.5 19 L 37 21.5 L 34 23 L 33.5 27 Q 32.7 24.3 28.5 25 Q 27.3 27.3 22.5 26 L 17.5 25 L 14 21.5 L 18.5 19 Z " /><path fill="rgb(255,163,177)" stroke="rgb(255,163,177)" stroke-width="1" opacity="1" d="M 33.5 15 L 34 17.5 L 32.5 20 L 31 17.5 L 33.5 15 Z " /><path fill="rgb(255,163,177)" stroke="rgb(255,163,177)" stroke-width="1" opacity="1" d="M 16.5 16 Q 21 18 17.5 20 Q 15 19 16.5 16 Z " /><path fill="rgb(255,163,177)" stroke="rgb(255,163,177)" stroke-width="1" opacity="1" d="M 23.5 31 L 27 31.5 L 24.5 33 L 23.5 31 Z " /><path fill="rgb(255,255,255)" stroke="rgb(255,255,255)" stroke-width="1" opacity="1" d="M 21.5 10 L 24.5 11 L 27.5 10 L 27.5 11 L 24.5 13 L 21.5 10 Z " /><path fill="rgb(255,255,255)" stroke="rgb(255,255,255)" stroke-width="1" opacity="1" d="M 20.5 14 Q 21 17.5 25.5 17 L 29 14.5 Q 29.5 19.5 25.5 20 L 20 16.5 L 20.5 14 Z " /><path fill="rgb(255,255,255)" stroke="rgb(255,255,255)" stroke-width="1" opacity="1" d="M 24.5 28 L 28.5 31 L 31.5 31 L 34 29.5 Q 34.8 33.3 32.5 34 L 27.5 35 L 23.5 34 L 21.5 35 L 17 33 L 17.5 29 L 21.5 31 L 24.5 28 Z M 24 31 L 25 33 L 27 32 L 24 31 Z " /></svg>