<?xml version="1.0" encoding="UTF-8"?>
<!DOCTYPE svg PUBLIC "-//W3C//DTD SVG 1.1//EN" "http://www.w3.org/Graphics/SVG/1.1/DTD/svg11.dtd">
<svg xmlns="http://www.w3.org/2000/svg" version="1.1" width="52px" height="52px" style="shape-rendering:geometricPrecision; text-rendering:geometricPrecision; image-rendering:optimizeQuality; fill-rule:evenodd; clip-rule:evenodd" xmlns:xlink="http://www.w3.org/1999/xlink">
<g><path style="opacity:1" fill="#888988" d="M 33.5,24.5 C 27.8333,24.5 22.1667,24.5 16.5,24.5C 11.0878,24.3967 6.08784,22.8967 1.5,20C 5.82056,19.501 10.1539,19.3343 14.5,19.5C 14.2606,17.5328 14.5939,15.6995 15.5,14C 21.8333,12 28.1667,12 34.5,14C 35.4061,15.6995 35.7394,17.5328 35.5,19.5C 40.5111,19.3341 45.5111,19.5007 50.5,20C 45.2884,23.2196 39.6217,24.7196 33.5,24.5 Z"/></g>
<g><path style="opacity:1" fill="#313e31" d="M 17.5,15.5 C 22.5111,15.3341 27.5111,15.5007 32.5,16C 33.8333,17 33.8333,18 32.5,19C 27.5,19.6667 22.5,19.6667 17.5,19C 16.3157,17.8545 16.3157,16.6879 17.5,15.5 Z"/></g>
<g><path style="opacity:1" fill="#5c7d63" d="M 16.5,24.5 C 22.1667,24.5 27.8333,24.5 33.5,24.5C 33.5,28.1667 33.5,31.8333 33.5,35.5C 27.8333,35.5 22.1667,35.5 16.5,35.5C 16.5,31.8333 16.5,28.1667 16.5,24.5 Z"/></g>
<g><path style="opacity:1" fill="#000000" d="M 17.5,25.5 C 21.6971,25.1937 23.6971,27.1937 23.5,31.5C 19.5,31.5 17.5,29.5 17.5,25.5 Z"/></g>
<g><path style="opacity:1" fill="#000000" d="M 28.5,25.5 C 29.8333,25.5 31.1667,25.5 32.5,25.5C 32.5,29.5 30.5,31.5 26.5,31.5C 26.6036,29.2972 27.2702,27.2972 28.5,25.5 Z"/></g>
<g><path style="opacity:1" fill="#000000" d="M 18.5,32.5 C 23.2827,33.4614 27.9494,33.7947 32.5,33.5C 30.1667,33.8333 27.8333,34.1667 25.5,34.5C 22.7305,34.4714 20.3972,33.8048 18.5,32.5 Z"/></g>
</svg>
