<?xml version="1.0" encoding="UTF-8"?>
<!DOCTYPE svg PUBLIC "-//W3C//DTD SVG 1.1//EN" "http://www.w3.org/Graphics/SVG/1.1/DTD/svg11.dtd">
<svg xmlns="http://www.w3.org/2000/svg" version="1.1" width="52px" height="52px" style="shape-rendering:geometricPrecision; text-rendering:geometricPrecision; image-rendering:optimizeQuality; fill-rule:evenodd; clip-rule:evenodd" xmlns:xlink="http://www.w3.org/1999/xlink">
<g><path style="opacity:1" fill="#692b96" d="M 37.5,23.5 C 36.609,24.1098 35.609,24.4431 34.5,24.5C 34.1667,24.5 33.8333,24.5 33.5,24.5C 31.8333,24.5 30.1667,24.5 28.5,24.5C 25.8333,24.5 23.1667,24.5 20.5,24.5C 18.8333,24.5 17.1667,24.5 15.5,24.5C 15.1667,24.5 14.8333,24.5 14.5,24.5C 13.791,23.596 12.791,23.2627 11.5,23.5C 10.3998,22.4415 9.06644,21.6082 7.5,21C 11.1788,20.1654 14.8454,19.332 18.5,18.5C 19.7253,12.9193 21.5586,7.58598 24,2.5C 26.3672,7.46393 28.2005,12.6306 29.5,18C 34.1667,19 38.8333,20 43.5,21C 41.7128,22.3187 39.7128,23.152 37.5,23.5 Z"/></g>
<g><path style="opacity:1" fill="#aea2d3" d="M 21.5,15.5 C 25.8288,14.6973 27.3288,16.6973 26,21.5C 24.8668,23.2112 23.3668,23.7112 21.5,23C 25.457,20.3598 25.457,17.8598 21.5,15.5 Z"/></g>
<g><path style="opacity:1" fill="#f9ce05" d="M 11.5,23.5 C 12.791,23.2627 13.791,23.596 14.5,24.5C 14.5467,27.5682 15.0467,30.5682 16,33.5C 21.6667,36.1667 27.3333,36.1667 33,33.5C 33.9533,30.5682 34.4533,27.5682 34.5,24.5C 35.609,24.4431 36.609,24.1098 37.5,23.5C 40.0229,28.5611 41.1896,33.8944 41,39.5C 39.4126,38.273 38.0793,38.6063 37,40.5C 35.6667,37.8333 34.3333,37.8333 33,40.5C 31.6667,37.8333 30.3333,37.8333 29,40.5C 27.6667,37.8333 26.3333,37.8333 25,40.5C 23.6667,37.8333 22.3333,37.8333 21,40.5C 19.6667,37.8333 18.3333,37.8333 17,40.5C 15.3333,37.8333 13.6667,37.8333 12,40.5C 10.9207,38.6063 9.58738,38.273 8,39.5C 7.81039,33.8944 8.97705,28.5611 11.5,23.5 Z"/></g>
<g><path style="opacity:1" fill="#f9f3ba" d="M 14.5,24.5 C 14.8333,24.5 15.1667,24.5 15.5,24.5C 15.8333,25.5 16.5,26.1667 17.5,26.5C 16.8902,27.391 16.5569,28.391 16.5,29.5C 16.8302,32.4625 18.1635,33.4625 20.5,32.5C 20.7822,31.2223 21.4489,30.2223 22.5,29.5C 22.5,29.1667 22.5,28.8333 22.5,28.5C 23.0431,28.44 23.3764,28.1067 23.5,27.5C 22.6602,26.265 21.6602,25.265 20.5,24.5C 23.1667,24.5 25.8333,24.5 28.5,24.5C 27.828,25.2674 26.9947,25.9341 26,26.5C 25.3083,27.4368 25.475,28.1034 26.5,28.5C 26.5,28.8333 26.5,29.1667 26.5,29.5C 27.3527,31.8927 29.0194,33.226 31.5,33.5C 31.4326,32.0413 31.7659,30.7079 32.5,29.5C 32.4431,28.391 32.1098,27.391 31.5,26.5C 32.5,26.1667 33.1667,25.5 33.5,24.5C 33.8333,24.5 34.1667,24.5 34.5,24.5C 34.4533,27.5682 33.9533,30.5682 33,33.5C 27.3333,36.1667 21.6667,36.1667 16,33.5C 15.0467,30.5682 14.5467,27.5682 14.5,24.5 Z"/></g>
<g><path style="opacity:1" fill="#000000" d="M 15.5,24.5 C 17.1667,24.5 18.8333,24.5 20.5,24.5C 21.6602,25.265 22.6602,26.265 23.5,27.5C 23.3764,28.1067 23.0431,28.44 22.5,28.5C 21.3646,26.7868 19.698,26.1201 17.5,26.5C 16.5,26.1667 15.8333,25.5 15.5,24.5 Z"/></g>
<g><path style="opacity:1" fill="#000000" d="M 28.5,24.5 C 30.1667,24.5 31.8333,24.5 33.5,24.5C 33.1667,25.5 32.5,26.1667 31.5,26.5C 29.302,26.1201 27.6354,26.7868 26.5,28.5C 25.475,28.1034 25.3083,27.4368 26,26.5C 26.9947,25.9341 27.828,25.2674 28.5,24.5 Z"/></g>
<g><path style="opacity:1" fill="#c0707c" d="M 17.5,26.5 C 19.698,26.1201 21.3646,26.7868 22.5,28.5C 22.5,28.8333 22.5,29.1667 22.5,29.5C 21.8333,29.5 21.1667,29.5 20.5,29.5C 19.8333,26.8333 19.1667,26.8333 18.5,29.5C 17.8333,29.5 17.1667,29.5 16.5,29.5C 16.5569,28.391 16.8902,27.391 17.5,26.5 Z"/></g>
<g><path style="opacity:1" fill="#c0707c" d="M 31.5,26.5 C 32.1098,27.391 32.4431,28.391 32.5,29.5C 31.8333,29.5 31.1667,29.5 30.5,29.5C 29.8333,26.8333 29.1667,26.8333 28.5,29.5C 27.8333,29.5 27.1667,29.5 26.5,29.5C 26.5,29.1667 26.5,28.8333 26.5,28.5C 27.6354,26.7868 29.302,26.1201 31.5,26.5 Z"/></g>
<g><path style="opacity:1" fill="#f90000" d="M 20.5,29.5 C 19.8333,29.5 19.1667,29.5 18.5,29.5C 19.1667,26.8333 19.8333,26.8333 20.5,29.5 Z"/></g>
<g><path style="opacity:1" fill="#f90000" d="M 30.5,29.5 C 29.8333,29.5 29.1667,29.5 28.5,29.5C 29.1667,26.8333 29.8333,26.8333 30.5,29.5 Z"/></g>
<g><path style="opacity:1" fill="#00b5ed" d="M 16.5,29.5 C 17.1667,29.5 17.8333,29.5 18.5,29.5C 19.1667,29.5 19.8333,29.5 20.5,29.5C 21.1667,29.5 21.8333,29.5 22.5,29.5C 21.4489,30.2223 20.7822,31.2223 20.5,32.5C 18.1635,33.4625 16.8302,32.4625 16.5,29.5 Z"/></g>
<g><path style="opacity:1" fill="#00b5ed" d="M 26.5,29.5 C 27.1667,29.5 27.8333,29.5 28.5,29.5C 29.1667,29.5 29.8333,29.5 30.5,29.5C 31.1667,29.5 31.8333,29.5 32.5,29.5C 31.7659,30.7079 31.4326,32.0413 31.5,33.5C 29.0194,33.226 27.3527,31.8927 26.5,29.5 Z"/></g>
<g><path style="opacity:1" fill="#692b96" d="M 20.5,32.5 C 22.2051,31.9119 23.8717,31.5786 25.5,31.5C 27.9438,33.2934 27.4438,34.2934 24,34.5C 22.3009,34.6134 21.1342,33.9468 20.5,32.5 Z"/></g>
</svg>
