<?xml version="1.0" encoding="UTF-8"?>
<svg version="1.1" xmlns="http://www.w3.org/2000/svg" width="52" height="52" viewBox="0 -6 52 52">
<path d="M0 0 C0.66 0.33 1.32 0.66 2 1 C2.61471075 3.27821708 3.16739121 5.57334208 3.6875 7.875 C4.83155172 12.77712862 4.83155172 12.77712862 7.81640625 16.59375 C9.92010221 17.51599725 9.92010221 17.51599725 13 18 C12.67 18.66 12.34 19.32 12 20 C11.34 20 10.68 20 10 20 C10.185625 20.680625 10.37125 21.36125 10.5625 22.0625 C11 25 11 25 10 32 C4.39 32 -1.22 32 -7 32 C-7.29296875 27.84960938 -7.29296875 27.84960938 -7.5859375 23.69921875 C-7.83865472 20.78471567 -7.83865472 20.78471567 -10 18 C-8.02 17.34 -6.04 16.68 -4 16 C-3.96261719 15.43152344 -3.92523437 14.86304688 -3.88671875 14.27734375 C-3.43021378 8.91564807 -2.36510918 4.8330492 0 0 Z " fill="#EB7E17" transform="translate(24,3)"/>
<path d="M0 0 C2 1 2 1 2.88671875 3.14453125 C3.15097656 4.02496094 3.41523438 4.90539062 3.6875 5.8125 C4.09548828 7.12154297 4.09548828 7.12154297 4.51171875 8.45703125 C5.01909126 11.09942728 5.00451983 12.52181646 4 15 C1.9375 16.25 1.9375 16.25 0 17 C-1.32 16.01 -2.64 15.02 -4 14 C-3.71572583 12.41532272 -3.42225182 10.8322943 -3.125 9.25 C-2.96257813 8.36828125 -2.80015625 7.4865625 -2.6328125 6.578125 C-2.03203736 4.13052256 -1.22002883 2.19400143 0 0 Z " fill="#FF7E00" transform="translate(24,3)"/>
<path d="M0 0 C0.99 0.33 1.98 0.66 3 1 C3 1.99 3 2.98 3 4 C6.93075644 3.42547254 6.93075644 3.42547254 10 1 C10 3.31 10 5.62 10 8 C4.39 8 -1.22 8 -7 8 C-7 6.35 -7 4.7 -7 3 C-6.21625 3.061875 -5.4325 3.12375 -4.625 3.1875 C-3.75875 3.125625 -2.8925 3.06375 -2 3 C-1.34 2.01 -0.68 1.02 0 0 Z " fill="#C5B77D" transform="translate(24,27)"/>
<path d="M0 0 C2.43816585 -0.0809723 4.87364384 -0.14046972 7.3125 -0.1875 C8.34793945 -0.22520508 8.34793945 -0.22520508 9.40429688 -0.26367188 C14.55674183 -0.33834499 14.55674183 -0.33834499 16.98046875 1.51171875 C17.31691406 2.00285156 17.65335938 2.49398438 18 3 C17.34 3 16.68 3 16 3 C15.67 3.99 15.34 4.98 15 6 C13.35 6 11.7 6 10 6 C9.67 5.01 9.34 4.02 9 3 C8.34 3 7.68 3 7 3 C6.01 4.485 6.01 4.485 5 6 C3.35 5.67 1.7 5.34 0 5 C-0.33 4.01 -0.66 3.02 -1 2 C-0.67 1.34 -0.34 0.68 0 0 Z " fill="#2C3F44" transform="translate(17,25)"/>
<path d="M0 0 C0.928125 0.37125 1.85625 0.7425 2.8125 1.125 C3.864375 1.41375 4.91625 1.7025 6 2 C6.99 1.34 7.98 0.68 9 0 C9.33 0.99 9.66 1.98 10 3 C8.875 5.1875 8.875 5.1875 7 7 C4.4375 7.375 4.4375 7.375 2 7 C0 5 0 5 -0.125 2.375 C-0.08375 1.59125 -0.0425 0.8075 0 0 Z " fill="#FF7E00" transform="translate(20,17)"/>
<path d="M0 0 C0.66 0.33 1.32 0.66 2 1 C2.73075648 3.3140622 3.40138258 5.64828869 4 8 C2.02 8.99 2.02 8.99 0 10 C-0.99 9.01 -1.98 8.02 -3 7 C-2.01 4.69 -1.02 2.38 0 0 Z " fill="#FFA44B" transform="translate(24,3)"/>
<path d="M0 0 C1.485 0.99 1.485 0.99 3 2 C5.28397032 1.65394389 6.93409037 1.03295481 9 0 C8.75 1.875 8.75 1.875 8 4 C5.9375 5.25 5.9375 5.25 4 6 C2 4.6875 2 4.6875 0 3 C0 2.01 0 1.02 0 0 Z " fill="#FFFFFF" transform="translate(20,14)"/>
</svg>
