<?xml version="1.0" encoding="UTF-8"?>
<svg version="1.1" xmlns="http://www.w3.org/2000/svg" width="52" height="52">
<path d="M0 0 C-0.66 2.64 -1.32 5.28 -2 8 C3.61 8 9.22 8 15 8 C15.495 8.99 15.495 8.99 16 10 C11.02638346 11.75734451 6.2584002 13.32584613 1 14 C0.8041991 15.91583647 0.61867786 17.83272539 0.4375 19.75 C0.33308594 20.81734375 0.22867188 21.8846875 0.12109375 22.984375 C0.01439926 25.64141204 0.18069605 27.49960572 1 30 C0.01 29.67 -0.98 29.34 -2 29 C-2 27.35 -2 25.7 -2 24 C-6.95 24 -11.9 24 -17 24 C-17.33 20.7 -17.66 17.4 -18 14 C-22.62 13.01 -27.24 12.02 -32 11 C-27.25294723 7.83529815 -23.68228705 7.89072525 -18 8 C-18.33 5.69 -18.66 3.38 -19 1 C-12.65758005 -0.15316726 -6.43311296 -0.09507063 0 0 Z " fill="#9C5C3F" transform="translate(34,12)"/>
<path d="M0 0 C2.47923801 -0.02685095 4.9581884 -0.04676547 7.4375 -0.0625 C8.14455078 -0.07087891 8.85160156 -0.07925781 9.58007812 -0.08789062 C11.38693559 -0.09653588 13.19387603 -0.05220011 15 0 C16.70089219 1.70089219 16.32747264 3.98646153 16.5 6.3125 C16.75008716 9.65741574 17.07938837 12.77018752 18 16 C17.01 15.67 16.02 15.34 15 15 C15 13.35 15 11.7 15 10 C10.05 10 5.1 10 0 10 C0 6.7 0 3.4 0 0 Z " fill="#C7B47C" transform="translate(17,26)"/>
<path d="M0 0 C1.65 0 3.3 0 5 0 C5 1.32 5 2.64 5 4 C0.05 4 -4.9 4 -10 4 C-6.91111478 1.94074319 -6.29064073 1.7609626 -2.8125 1.875 C-0.9253125 1.936875 -0.9253125 1.936875 1 2 C0.67 1.34 0.34 0.68 0 0 Z " fill="#B4B4B4" transform="translate(27,32)"/>
<path d="M0 0 C0.33 1.32 0.66 2.64 1 4 C-0.65 4.33 -2.3 4.66 -4 5 C-4.33 3.68 -4.66 2.36 -5 1 C-3 0 -3 0 0 0 Z " fill="#BBBC71" transform="translate(31,26)"/>
<path d="M0 0 C2.02045442 0.60183749 4.02111039 1.27306096 6 2 C6.33 2.66 6.66 3.32 7 4 C3.37 4 -0.26 4 -4 4 C-2.68 2.68 -1.36 1.36 0 0 Z " fill="#9C5A3C" transform="translate(22,31)"/>
</svg>
