<?xml version="1.0" encoding="UTF-8"?>
<!DOCTYPE svg PUBLIC "-//W3C//DTD SVG 1.1//EN" "http://www.w3.org/Graphics/SVG/1.1/DTD/svg11.dtd">
<svg xmlns="http://www.w3.org/2000/svg" version="1.1" width="52px" height="52px" style="shape-rendering:geometricPrecision; text-rendering:geometricPrecision; image-rendering:optimizeQuality; fill-rule:evenodd; clip-rule:evenodd" xmlns:xlink="http://www.w3.org/1999/xlink">
<g><path style="opacity:1" fill="#f97d00" d="M 27.5,15.5 C 25.8333,16.8333 24.1667,16.8333 22.5,15.5C 24.1667,6.16667 25.8333,6.16667 27.5,15.5 Z"/></g>
<g><path style="opacity:1" fill="#f9faf9" d="M 21.5,16.5 C 21.5,15.8333 21.8333,15.5 22.5,15.5C 24.1667,16.8333 25.8333,16.8333 27.5,15.5C 28.1667,15.5 28.5,15.8333 28.5,16.5C 26.9826,16.5106 25.8159,17.1772 25,18.5C 23.8873,17.695 22.7206,17.0283 21.5,16.5 Z"/></g>
<g><path style="opacity:1" fill="#f97d00" d="M 21.5,16.5 C 22.7206,17.0283 23.8873,17.695 25,18.5C 25.8159,17.1772 26.9826,16.5106 28.5,16.5C 28.5,17.5 28.5,18.5 28.5,19.5C 26.1667,23.5 23.8333,23.5 21.5,19.5C 21.5,18.5 21.5,17.5 21.5,16.5 Z"/></g>
<g><path style="opacity:1" fill="#000000" d="M 20.5,22.5 C 20.6716,23.4916 20.3382,24.1583 19.5,24.5C 16.7576,20.3804 16.0909,20.7137 17.5,25.5C 16.8333,25.8333 16.1667,26.1667 15.5,26.5C 14.2215,23.9976 14.2215,21.4976 15.5,19C 17.7972,19.1116 19.4639,20.2783 20.5,22.5 Z"/></g>
<g><path style="opacity:1" fill="#000000" d="M 35.5,25.5 C 34.8333,25.5 34.1667,25.5 33.5,25.5C 34.9224,19.3859 34.2558,19.0525 31.5,24.5C 30.8333,24.5 30.5,24.1667 30.5,23.5C 30.3159,20.6787 31.6493,19.0121 34.5,18.5C 36.7605,20.4835 37.0939,22.8169 35.5,25.5 Z"/></g>
<g><path style="opacity:1" fill="#f9faf9" d="M 21.5,19.5 C 23.8333,23.5 26.1667,23.5 28.5,19.5C 29.404,20.209 29.7373,21.209 29.5,22.5C 28.1851,23.4756 26.8518,24.4756 25.5,25.5C 23.6396,24.7401 21.973,23.7401 20.5,22.5C 20.2627,21.209 20.596,20.209 21.5,19.5 Z"/></g>
<g><path style="opacity:1" fill="#f9a2ae" d="M 33.5,25.5 C 32.8333,25.1667 32.1667,24.8333 31.5,24.5C 34.2558,19.0525 34.9224,19.3859 33.5,25.5 Z"/></g>
<g><path style="opacity:1" fill="#f9a2ae" d="M 19.5,24.5 C 18.8333,24.8333 18.1667,25.1667 17.5,25.5C 16.0909,20.7137 16.7576,20.3804 19.5,24.5 Z"/></g>
<g><path style="opacity:1" fill="#eb7d0e" d="M 20.5,22.5 C 21.973,23.7401 23.6396,24.7401 25.5,25.5C 26.8518,24.4756 28.1851,23.4756 29.5,22.5C 29.5,23.1667 29.8333,23.5 30.5,23.5C 30.5,24.1667 30.8333,24.5 31.5,24.5C 32.1667,24.8333 32.8333,25.1667 33.5,25.5C 34.1667,25.5 34.8333,25.5 35.5,25.5C 38.1247,26.4657 38.1247,27.4657 35.5,28.5C 34.5713,29.6888 34.238,31.0222 34.5,32.5C 32.6381,30.5252 30.6381,30.1919 28.5,31.5C 26.5,31.5 24.5,31.5 22.5,31.5C 21.0813,30.5489 19.4147,30.2155 17.5,30.5C 16.7101,29.2058 15.7101,28.0391 14.5,27C 14.7284,26.6012 15.0618,26.4346 15.5,26.5C 16.1667,26.1667 16.8333,25.8333 17.5,25.5C 18.1667,25.1667 18.8333,24.8333 19.5,24.5C 20.3382,24.1583 20.6716,23.4916 20.5,22.5 Z"/></g>
<g><path style="opacity:1" fill="#000000" d="M 17.5,30.5 C 19.4147,30.2155 21.0813,30.5489 22.5,31.5C 24.5,31.5 26.5,31.5 28.5,31.5C 30.6381,30.1919 32.6381,30.5252 34.5,32.5C 34.7564,34.7925 34.4231,36.9592 33.5,39C 28.3965,41.1533 23.3965,40.9867 18.5,38.5C 17.52,35.9135 17.1866,33.2469 17.5,30.5 Z"/></g>
<g><path style="opacity:1" fill="#f9c10b" d="M 19.5,31.5 C 20.5735,32.2506 20.7401,33.2506 20,34.5C 18.2716,33.6477 18.105,32.6477 19.5,31.5 Z"/></g>
<g><path style="opacity:1" fill="#f9c10b" d="M 22.5,31.5 C 23.895,32.6477 23.7284,33.6477 22,34.5C 21.2599,33.2506 21.4265,32.2506 22.5,31.5 Z"/></g>
<g><path style="opacity:1" fill="#f9c10b" d="M 28.5,31.5 C 29.5735,32.2506 29.7401,33.2506 29,34.5C 27.2716,33.6477 27.105,32.6477 28.5,31.5 Z"/></g>
<g><path style="opacity:1" fill="#f9c10b" d="M 30.5,31.5 C 32.7602,32.2376 32.9269,33.2376 31,34.5C 30.5172,33.552 30.3505,32.552 30.5,31.5 Z"/></g>
<g><path style="opacity:1" fill="#f9a2ae" d="M 23.5,35.5 C 24.9778,35.238 26.3112,35.5713 27.5,36.5C 25.5365,39.1939 24.2032,38.8606 23.5,35.5 Z"/></g>
</svg>
