<?xml version="1.0" encoding="UTF-8"?>
<!DOCTYPE svg PUBLIC "-//W3C//DTD SVG 1.1//EN" "http://www.w3.org/Graphics/SVG/1.1/DTD/svg11.dtd">
<svg xmlns="http://www.w3.org/2000/svg" version="1.1" width="52px" height="52px" style="shape-rendering:geometricPrecision; text-rendering:geometricPrecision; image-rendering:optimizeQuality; fill-rule:evenodd; clip-rule:evenodd" xmlns:xlink="http://www.w3.org/1999/xlink">
<g><path style="opacity:1" fill="#f97d00" d="M 27.5,12.5 C 25.8333,13.8333 24.1667,13.8333 22.5,12.5C 24.1667,3.16667 25.8333,3.16667 27.5,12.5 Z"/></g>
<g><path style="opacity:1" fill="#f9faf9" d="M 21.5,13.5 C 21.5,12.8333 21.8333,12.5 22.5,12.5C 24.1667,13.8333 25.8333,13.8333 27.5,12.5C 28.1667,12.5 28.5,12.8333 28.5,13.5C 26.9826,13.5106 25.8159,14.1772 25,15.5C 23.8873,14.695 22.7206,14.0283 21.5,13.5 Z"/></g>
<g><path style="opacity:1" fill="#f97d00" d="M 21.5,13.5 C 22.7206,14.0283 23.8873,14.695 25,15.5C 25.8159,14.1772 26.9826,13.5106 28.5,13.5C 28.5,14.5 28.5,15.5 28.5,16.5C 26.1667,20.5 23.8333,20.5 21.5,16.5C 21.5,15.5 21.5,14.5 21.5,13.5 Z"/></g>
<g><path style="opacity:1" fill="#f9faf9" d="M 21.5,16.5 C 23.8333,20.5 26.1667,20.5 28.5,16.5C 29.404,17.209 29.7373,18.209 29.5,19.5C 28.1851,20.4756 26.8518,21.4756 25.5,22.5C 23.6396,21.7401 21.973,20.7401 20.5,19.5C 20.2627,18.209 20.596,17.209 21.5,16.5 Z"/></g>
<g><path style="opacity:1" fill="#eb7d0e" d="M 20.5,19.5 C 21.973,20.7401 23.6396,21.7401 25.5,22.5C 26.8518,21.4756 28.1851,20.4756 29.5,19.5C 31.9216,21.268 34.5883,22.768 37.5,24C 35.5614,24.9078 34.5614,26.4078 34.5,28.5C 34.5,28.8333 34.5,29.1667 34.5,29.5C 33.333,28.1852 31.833,27.5186 30,27.5C 25.8497,28.5065 21.6831,28.5065 17.5,27.5C 16.7101,26.2058 15.7101,25.0391 14.5,24C 17.1767,23.1864 19.1767,21.6864 20.5,19.5 Z"/></g>
<g><path style="opacity:1" fill="#fac21d" d="M 17.5,27.5 C 21.6831,28.5065 25.8497,28.5065 30,27.5C 31.833,27.5186 33.333,28.1852 34.5,29.5C 33.8559,32.8044 31.8559,34.1378 28.5,33.5C 26.8195,28.484 24.8195,28.3174 22.5,33C 21.2068,33.49 19.8734,33.6567 18.5,33.5C 18.5,32.8333 18.1667,32.5 17.5,32.5C 16.1667,30.8333 16.1667,29.1667 17.5,27.5 Z"/></g>
<g><path style="opacity:1" fill="#96d4e6" d="M 21.5,29.5 C 19.0673,29.7856 19.0673,30.4523 21.5,31.5C 19.183,32.5345 18.183,31.5345 18.5,28.5C 19.791,28.2627 20.791,28.596 21.5,29.5 Z"/></g>
<g><path style="opacity:1" fill="#96d4e6" d="M 31.5,29.5 C 29.0673,29.7856 29.0673,30.4523 31.5,31.5C 29.183,32.5345 28.183,31.5345 28.5,28.5C 29.791,28.2627 30.791,28.596 31.5,29.5 Z"/></g>
<g><path style="opacity:1" fill="#f2e195" d="M 34.5,28.5 C 35.494,29.9989 35.494,31.6656 34.5,33.5C 33.1154,34.5736 31.9487,35.9069 31,37.5C 30.3378,36.0161 29.5045,34.6828 28.5,33.5C 31.8559,34.1378 33.8559,32.8044 34.5,29.5C 34.5,29.1667 34.5,28.8333 34.5,28.5 Z"/></g>
<g><path style="opacity:1" fill="#000000" d="M 21.5,29.5 C 22.8333,30.1667 22.8333,30.8333 21.5,31.5C 19.0673,30.4523 19.0673,29.7856 21.5,29.5 Z"/></g>
<g><path style="opacity:1" fill="#f2e195" d="M 28.5,33.5 C 24.8184,32.7253 22.3184,34.0586 21,37.5C 19.9054,36.3066 19.072,34.9733 18.5,33.5C 19.8734,33.6567 21.2068,33.49 22.5,33C 24.8195,28.3174 26.8195,28.484 28.5,33.5 Z"/></g>
<g><path style="opacity:1" fill="#000000" d="M 31.5,29.5 C 32.8333,30.1667 32.8333,30.8333 31.5,31.5C 29.0673,30.4523 29.0673,29.7856 31.5,29.5 Z"/></g>
<g><path style="opacity:1" fill="#afafae" d="M 17.5,32.5 C 18.1667,32.5 18.5,32.8333 18.5,33.5C 19.072,34.9733 19.9054,36.3066 21,37.5C 22.3184,34.0586 24.8184,32.7253 28.5,33.5C 29.5045,34.6828 30.3378,36.0161 31,37.5C 31.9487,35.9069 33.1154,34.5736 34.5,33.5C 34.5792,34.9305 34.2458,36.2638 33.5,37.5C 31.2147,39.877 29.048,42.2103 27,44.5C 23.8057,42.4854 20.8057,40.1521 18,37.5C 17.5065,35.8659 17.3398,34.1992 17.5,32.5 Z"/></g>
<g><path style="opacity:1" fill="#f2e195" d="M 23.5,37.5 C 24.9464,36.3871 26.6131,36.2204 28.5,37C 26.9769,38.7884 25.3102,38.9551 23.5,37.5 Z"/></g>
</svg>
