<?xml version="1.0" encoding="UTF-8"?>
<!DOCTYPE svg PUBLIC "-//W3C//DTD SVG 1.1//EN" "http://www.w3.org/Graphics/SVG/1.1/DTD/svg11.dtd">
<svg xmlns="http://www.w3.org/2000/svg" version="1.1" width="52px" height="52px" viewBox="0 -6 52 52" style="shape-rendering:geometricPrecision; text-rendering:geometricPrecision; image-rendering:optimizeQuality; fill-rule:evenodd; clip-rule:evenodd" xmlns:xlink="http://www.w3.org/1999/xlink">
<g><path style="opacity:1" fill="#692b96" d="M 23.5,2.5 C 25.0523,4.9735 27.0523,7.14016 29.5,9C 26.967,10.916 26.967,12.916 29.5,15C 28.6634,16.0113 28.33,17.1779 28.5,18.5C 30.5116,17.9862 32.5116,17.8195 34.5,18C 33.8333,18.3333 33.1667,18.6667 32.5,19C 34.7801,19.2326 36.7801,20.066 38.5,21.5C 37.4699,21.5545 36.3033,21.8878 35,22.5C 33.9541,26.5471 34.7874,27.2138 37.5,24.5C 38.5,25 39.5,25.5 40.5,26C 37.7951,26.4781 35.7951,27.3114 34.5,28.5C 34.67,29.8221 34.3366,30.9887 33.5,32C 35.8107,31.8446 38.144,31.8446 40.5,32C 39.5,32.3333 38.5,32.6667 37.5,33C 36.1667,33.6667 36.1667,34.3333 37.5,35C 33.9493,33.9608 30.9493,34.9608 28.5,38C 30.1667,38.3333 31.8333,38.6667 33.5,39C 30.7478,39.2118 28.2478,40.0452 26,41.5C 24.7753,41.1377 23.6086,40.6377 22.5,40C 20.7096,37.5087 18.5429,35.342 16,33.5C 14.8263,29.9542 14.1596,26.2875 14,22.5C 12.7188,22.6192 11.5521,22.1192 10.5,21C 13.1051,19.9787 15.7717,19.1454 18.5,18.5C 19.8624,13.0441 21.5291,7.71081 23.5,2.5 Z"/></g>
<g><path style="opacity:1" fill="#2b1109" d="M 16.5,29.5 C 15.1888,27.4402 15.1888,25.2735 16.5,23C 21.5,22.3333 26.5,22.3333 31.5,23C 34.9487,32.2373 31.6153,36.2373 21.5,35C 18.921,33.9243 17.2543,32.091 16.5,29.5 Z"/></g>
<g><path style="opacity:1" fill="#f9c10b" d="M 16.5,29.5 C 16.5,27.8333 16.5,26.1667 16.5,24.5C 21.5142,25.5637 26.5142,25.7304 31.5,25C 33.334,29.6748 31.6673,31.5081 26.5,30.5C 25.5437,25.3699 23.877,25.2033 21.5,30C 19.735,30.6397 18.0683,30.4731 16.5,29.5 Z"/></g>
<g><path style="opacity:1" fill="#000000" d="M 20.5,28.5 C 19.4523,26.0673 18.7856,26.0673 18.5,28.5C 17.596,27.791 17.2627,26.791 17.5,25.5C 20.5345,25.183 21.5345,26.183 20.5,28.5 Z"/></g>
<g><path style="opacity:1" fill="#000000" d="M 30.5,26.5 C 28.0673,27.5477 28.0673,28.2144 30.5,28.5C 29.791,29.404 28.791,29.7373 27.5,29.5C 27.183,26.4655 28.183,25.4655 30.5,26.5 Z"/></g>
<g><path style="opacity:1" fill="#a01e19" d="M 20.5,28.5 C 19.8333,29.8333 19.1667,29.8333 18.5,28.5C 18.7856,26.0673 19.4523,26.0673 20.5,28.5 Z"/></g>
<g><path style="opacity:1" fill="#a01e19" d="M 30.5,26.5 C 31.8333,27.1667 31.8333,27.8333 30.5,28.5C 28.0673,28.2144 28.0673,27.5477 30.5,26.5 Z"/></g>
</svg>
