<?xml version="1.0" encoding="UTF-8"?>
<svg version="1.1" xmlns="http://www.w3.org/2000/svg" width="52" height="52" viewBox="0 -6 52 52">
<path d="M0 0 C0.66 0.33 1.32 0.66 2 1 C2.61471075 3.27821708 3.16739121 5.57334208 3.6875 7.875 C4.83155172 12.77712862 4.83155172 12.77712862 7.81640625 16.59375 C9.92010221 17.51599725 9.92010221 17.51599725 13 18 C12.67 18.66 12.34 19.32 12 20 C11.34 20 10.68 20 10 20 C10.20625 20.845625 10.4125 21.69125 10.625 22.5625 C11.05843012 26.53560946 10.2762763 29.24624618 9 33 C8.34 33 7.68 33 7 33 C7 33.66 7 34.32 7 35 C6.34 35 5.68 35 5 35 C4.67 36.32 4.34 37.64 4 39 C0.58384716 38.7071869 -0.96147783 38.03045939 -3.6875 35.875 C-7.46466744 31.1790621 -8 26.8447368 -8 21 C-8.66 20.01 -9.32 19.02 -10 18 C-8.02 17.34 -6.04 16.68 -4 16 C-3.96261719 15.43152344 -3.92523437 14.86304688 -3.88671875 14.27734375 C-3.43021378 8.91564807 -2.36510918 4.8330492 0 0 Z " fill="#22B14C" transform="translate(24,3)"/>
<path d="M0 0 C1.74991334 -0.02715383 3.49994945 -0.04646551 5.25 -0.0625 C6.71179688 -0.07990234 6.71179688 -0.07990234 8.203125 -0.09765625 C11 0 11 0 13.234375 0.56640625 C15.09090023 1.22439177 15.09090023 1.22439177 17 0 C16.67 1.65 16.34 3.3 16 5 C15.34 5 14.68 5 14 5 C14 5.66 14 6.32 14 7 C13.34 7 12.68 7 12 7 C11.67 8.32 11.34 9.64 11 11 C7.49053006 10.69918829 6.02211769 10.0180963 3.25 7.75 C0.9207928 4.90319119 0.5437067 3.52227381 0 0 Z " fill="#FE8004" transform="translate(17,31)"/>
<path d="M0 0 C2.43757413 -0.02698422 4.87484915 -0.04683099 7.3125 -0.0625 C8.00279297 -0.07087891 8.69308594 -0.07925781 9.40429688 -0.08789062 C12.5483025 -0.10307906 14.99420019 -0.00193327 18 1 C17.51812367 5.57782516 17.51812367 5.57782516 15.3125 7.375 C12.26290343 8.19921529 10.08339731 7.61667946 7 7 C5.9275 7.04125 4.855 7.0825 3.75 7.125 C2.8425 7.08375 1.935 7.0425 1 7 C-1 4 -1 4 -0.625 1.8125 C-0.41875 1.214375 -0.2125 0.61625 0 0 Z " fill="#C6CFB8" transform="translate(17,25)"/>
<path d="M0 0 C1.93166016 0.01740234 1.93166016 0.01740234 3.90234375 0.03515625 C5.19269531 0.04417969 6.48304687 0.05320312 7.8125 0.0625 C8.81152344 0.07410156 9.81054688 0.08570312 10.83984375 0.09765625 C10.83984375 1.08765625 10.83984375 2.07765625 10.83984375 3.09765625 C10.17984375 3.09765625 9.51984375 3.09765625 8.83984375 3.09765625 C8.17984375 3.75765625 7.51984375 4.41765625 6.83984375 5.09765625 C6.50984375 4.43765625 6.17984375 3.77765625 5.83984375 3.09765625 C5.17984375 3.09765625 4.51984375 3.09765625 3.83984375 3.09765625 C2.84984375 4.58265625 2.84984375 4.58265625 1.83984375 6.09765625 C-0.78515625 6.28515625 -0.78515625 6.28515625 -3.16015625 6.09765625 C-3.54234392 4.44150968 -3.87410727 2.77308601 -4.16015625 1.09765625 C-3.16015625 0.09765625 -3.16015625 0.09765625 0 0 Z " fill="#A5B3B1" transform="translate(20.16015625,24.90234375)"/>
<path d="M0 0 C0.99 0.33 1.98 0.66 3 1 C3 1.99 3 2.98 3 4 C-1.455 4.495 -1.455 4.495 -6 5 C-4.68 4.34 -3.36 3.68 -2 3 C-1.34 2.01 -0.68 1.02 0 0 Z " fill="#F5E49C" transform="translate(24,27)"/>
</svg>
