<?xml version="1.0" encoding="UTF-8"?>
<!DOCTYPE svg PUBLIC "-//W3C//DTD SVG 1.1//EN" "http://www.w3.org/Graphics/SVG/1.1/DTD/svg11.dtd">
<svg xmlns="http://www.w3.org/2000/svg" version="1.1" width="52px" height="52px" style="shape-rendering:geometricPrecision; text-rendering:geometricPrecision; image-rendering:optimizeQuality; fill-rule:evenodd; clip-rule:evenodd" xmlns:xlink="http://www.w3.org/1999/xlink">
<g><path style="opacity:1" fill="#000000" d="M 34.5,27.5 C 34.1667,27.5 33.8333,27.5 33.5,27.5C 32.1266,27.6567 30.7932,27.49 29.5,27C 29.3238,25.3084 28.8238,23.8084 28,22.5C 26.3333,25.1667 24.6667,25.1667 23,22.5C 22.1762,23.8084 21.6762,25.3084 21.5,27C 20.2068,27.49 18.8734,27.6567 17.5,27.5C 16.4264,26.1154 15.0931,24.9487 13.5,24C 15.6147,23.4427 17.6147,22.6094 19.5,21.5C 20.7253,15.9193 22.5586,10.586 25,5.5C 27.4286,10.2013 29.0953,15.2013 30,20.5C 32.8164,21.6623 35.6497,22.8289 38.5,24C 36.6813,24.7403 35.3479,25.9069 34.5,27.5 Z"/></g>
<g><path style="opacity:1" fill="#6f3e2a" d="M 33.5,27.5 C 33.5,27.8333 33.5,28.1667 33.5,28.5C 33.5,29.5 33.5,30.5 33.5,31.5C 33.5,31.8333 33.5,32.1667 33.5,32.5C 33.5,32.8333 33.5,33.1667 33.5,33.5C 31.8333,33.5 30.1667,33.5 28.5,33.5C 28.1667,33.5 27.8333,33.5 27.5,33.5C 26.1667,29.5 24.8333,29.5 23.5,33.5C 23.1667,33.5 22.8333,33.5 22.5,33.5C 21.1667,33.5 19.8333,33.5 18.5,33.5C 17.8333,33.5 17.5,33.1667 17.5,32.5C 17.5,32.1667 17.5,31.8333 17.5,31.5C 17.5,30.5 17.5,29.5 17.5,28.5C 17.5,28.1667 17.5,27.8333 17.5,27.5C 18.8734,27.6567 20.2068,27.49 21.5,27C 21.6762,25.3084 22.1762,23.8084 23,22.5C 24.6667,25.1667 26.3333,25.1667 28,22.5C 28.8238,23.8084 29.3238,25.3084 29.5,27C 30.7932,27.49 32.1266,27.6567 33.5,27.5 Z"/></g>
<g><path style="opacity:1" fill="#f9faf9" d="M 23.5,25.5 C 24.8333,25.5 26.1667,25.5 27.5,25.5C 27.5,26.8333 27.5,28.1667 27.5,29.5C 26.1667,29.5 24.8333,29.5 23.5,29.5C 23.5,28.1667 23.5,26.8333 23.5,25.5 Z"/></g>
<g><path style="opacity:1" fill="#000000" d="M 24.5,26.5 C 26.337,26.6395 26.6704,27.3061 25.5,28.5C 24.7025,28.0431 24.3691,27.3764 24.5,26.5 Z"/></g>
<g><path style="opacity:1" fill="#aeafae" d="M 17.5,28.5 C 17.5,29.5 17.5,30.5 17.5,31.5C 15.7274,30.6857 15.2274,29.3524 16,27.5C 16.3826,28.056 16.8826,28.3893 17.5,28.5 Z"/></g>
<g><path style="opacity:1" fill="#aeafae" d="M 34.5,27.5 C 35.8528,29.1284 35.5195,30.4617 33.5,31.5C 33.5,30.5 33.5,29.5 33.5,28.5C 34.1667,28.5 34.5,28.1667 34.5,27.5 Z"/></g>
<g><path style="opacity:1" fill="#f9faf9" d="M 18.5,28.5 C 19.8333,28.5 21.1667,28.5 22.5,28.5C 22.5,29.8333 22.5,31.1667 22.5,32.5C 21.1667,32.5 19.8333,32.5 18.5,32.5C 18.5,31.1667 18.5,29.8333 18.5,28.5 Z"/></g>
<g><path style="opacity:1" fill="#f9faf9" d="M 28.5,28.5 C 29.8333,28.5 31.1667,28.5 32.5,28.5C 32.5,29.8333 32.5,31.1667 32.5,32.5C 31.1667,32.5 29.8333,32.5 28.5,32.5C 28.5,31.1667 28.5,29.8333 28.5,28.5 Z"/></g>
<g><path style="opacity:1" fill="#000000" d="M 19.5,29.5 C 21.337,29.6395 21.6704,30.3061 20.5,31.5C 19.7025,31.0431 19.3691,30.3764 19.5,29.5 Z"/></g>
<g><path style="opacity:1" fill="#000000" d="M 29.5,29.5 C 31.337,29.6395 31.6704,30.3061 30.5,31.5C 29.7025,31.0431 29.3691,30.3764 29.5,29.5 Z"/></g>
<g><path style="opacity:1" fill="#aeafae" d="M 27.5,33.5 C 26.1667,33.5 24.8333,33.5 23.5,33.5C 24.8333,29.5 26.1667,29.5 27.5,33.5 Z"/></g>
<g><path style="opacity:1" fill="#000000" d="M 17.5,32.5 C 17.5,33.1667 17.8333,33.5 18.5,33.5C 19.6649,36.0219 20.9982,36.0219 22.5,33.5C 22.8333,33.5 23.1667,33.5 23.5,33.5C 24.8333,33.5 26.1667,33.5 27.5,33.5C 27.8333,33.5 28.1667,33.5 28.5,33.5C 30.2855,35.9224 31.9522,35.9224 33.5,33.5C 33.5,33.1667 33.5,32.8333 33.5,32.5C 34.7349,34.017 34.7349,35.6837 33.5,37.5C 31.2147,39.877 29.048,42.2103 27,44.5C 23.8057,42.4854 20.8057,40.1521 18,37.5C 16.5456,35.7561 16.3789,34.0894 17.5,32.5 Z"/></g>
<g><path style="opacity:1" fill="#aeafae" d="M 18.5,33.5 C 19.8333,33.5 21.1667,33.5 22.5,33.5C 20.9982,36.0219 19.6649,36.0219 18.5,33.5 Z"/></g>
<g><path style="opacity:1" fill="#aeafae" d="M 28.5,33.5 C 30.1667,33.5 31.8333,33.5 33.5,33.5C 31.9522,35.9224 30.2855,35.9224 28.5,33.5 Z"/></g>
<g><path style="opacity:1" fill="#aeafae" d="M 23.5,35.5 C 25.4286,35.2308 27.0953,35.7308 28.5,37C 27.0696,38.4404 25.403,38.7737 23.5,38C 22.4019,37.2303 22.4019,36.397 23.5,35.5 Z"/></g>
</svg>
