<?xml version="1.0" encoding="UTF-8"?>
<!DOCTYPE svg PUBLIC "-//W3C//DTD SVG 1.1//EN" "http://www.w3.org/Graphics/SVG/1.1/DTD/svg11.dtd">
<svg xmlns="http://www.w3.org/2000/svg" version="1.1" width="52px" height="52px" style="shape-rendering:geometricPrecision; text-rendering:geometricPrecision; image-rendering:optimizeQuality; fill-rule:evenodd; clip-rule:evenodd" xmlns:xlink="http://www.w3.org/1999/xlink">
<g><path style="opacity:1" fill="#1faf4a" d="M 29.5,13.5 C 28.5,13.5 27.5,13.5 26.5,13.5C 25.5,12.1667 24.5,12.1667 23.5,13.5C 22.5,13.5 21.5,13.5 20.5,13.5C 22.3809,10.4494 25.0476,9.78275 28.5,11.5C 29.2975,11.9569 29.6309,12.6236 29.5,13.5 Z"/></g>
<g><path style="opacity:1" fill="#d0a114" d="M 26.5,13.5 C 27.8333,14.5 27.8333,15.5 26.5,16.5C 25.5,17.8333 24.5,17.8333 23.5,16.5C 22.1667,15.5 22.1667,14.5 23.5,13.5C 24.5,12.1667 25.5,12.1667 26.5,13.5 Z"/></g>
<g><path style="opacity:1" fill="#000000" d="M 20.5,13.5 C 21.5,13.5 22.5,13.5 23.5,13.5C 22.1667,14.5 22.1667,15.5 23.5,16.5C 22.5,16.5 21.5,16.5 20.5,16.5C 20.5,15.5 20.5,14.5 20.5,13.5 Z"/></g>
<g><path style="opacity:1" fill="#000000" d="M 26.5,13.5 C 27.5,13.5 28.5,13.5 29.5,13.5C 29.5,14.5 29.5,15.5 29.5,16.5C 28.5,16.5 27.5,16.5 26.5,16.5C 27.8333,15.5 27.8333,14.5 26.5,13.5 Z"/></g>
<g><path style="opacity:1" fill="#3bb250" d="M 20.5,16.5 C 21.5,16.5 22.5,16.5 23.5,16.5C 24.5,17.8333 25.5,17.8333 26.5,16.5C 27.5,16.5 28.5,16.5 29.5,16.5C 30.7352,18.3062 32.0686,19.9729 33.5,21.5C 27.8333,22.8333 22.1667,22.8333 16.5,21.5C 17.9314,19.9729 19.2648,18.3062 20.5,16.5 Z"/></g>
<g><path style="opacity:1" fill="#000000" d="M 16.5,21.5 C 22.1667,22.8333 27.8333,22.8333 33.5,21.5C 33.5,22.1667 33.8333,22.5 34.5,22.5C 34.1075,24.2838 33.4408,25.9505 32.5,27.5C 31.1667,27.5 29.8333,27.5 28.5,27.5C 27.8549,26.1882 26.8549,25.1882 25.5,24.5C 23.2546,26.6227 20.5879,27.6227 17.5,27.5C 16.5592,25.9505 15.8925,24.2838 15.5,22.5C 16.1667,22.5 16.5,22.1667 16.5,21.5 Z"/></g>
<g><path style="opacity:1" fill="#f4e59e" d="M 15.5,22.5 C 15.8925,24.2838 16.5592,25.9505 17.5,27.5C 17.1667,27.5 16.8333,27.5 16.5,27.5C 14.4714,25.9793 13.6381,23.9793 14,21.5C 14.3826,22.056 14.8826,22.3893 15.5,22.5 Z"/></g>
<g><path style="opacity:1" fill="#f4e59e" d="M 34.5,26.5 C 34.5,27.1667 34.1667,27.5 33.5,27.5C 33.1667,27.5 32.8333,27.5 32.5,27.5C 33.4408,25.9505 34.1075,24.2838 34.5,22.5C 35.6499,21.1498 36.3166,21.3164 36.5,23C 36.0217,24.3026 35.355,25.4693 34.5,26.5 Z"/></g>
<g><path style="opacity:1" fill="#f2e195" d="M 28.5,27.5 C 24.6441,28.1186 20.9775,28.1186 17.5,27.5C 20.5879,27.6227 23.2546,26.6227 25.5,24.5C 26.8549,25.1882 27.8549,26.1882 28.5,27.5 Z"/></g>
<g><path style="opacity:1" fill="#aeafae" d="M 34.5,26.5 C 36.6348,26.147 37.9681,26.9803 38.5,29C 36.8637,30.9426 34.8637,32.4426 32.5,33.5C 31.8333,33.5 31.1667,33.5 30.5,33.5C 30.6833,31.0122 31.6833,29.0122 33.5,27.5C 34.1667,27.5 34.5,27.1667 34.5,26.5 Z"/></g>
<g><path style="opacity:1" fill="#fa810d" d="M 16.5,27.5 C 16.8333,27.5 17.1667,27.5 17.5,27.5C 20.9775,28.1186 24.6441,28.1186 28.5,27.5C 29.8333,27.5 31.1667,27.5 32.5,27.5C 32.8333,27.5 33.1667,27.5 33.5,27.5C 31.6833,29.0122 30.6833,31.0122 30.5,33.5C 29.8826,33.6107 29.3826,33.944 29,34.5C 28.79,32.9419 28.29,31.6085 27.5,30.5C 25.9652,29.2121 24.2985,29.2121 22.5,30.5C 23.3202,32.1112 24.6536,32.7778 26.5,32.5C 26.0882,34.9726 27.0882,36.3059 29.5,36.5C 27.4194,38.8995 25.0861,39.0662 22.5,37C 21.2367,34.6142 19.4033,32.7808 17,31.5C 16.51,30.2068 16.3433,28.8734 16.5,27.5 Z"/></g>
<g><path style="opacity:1" fill="#f2e195" d="M 27.5,30.5 C 24.075,30.3668 23.7417,31.0335 26.5,32.5C 24.6536,32.7778 23.3202,32.1112 22.5,30.5C 24.2985,29.2121 25.9652,29.2121 27.5,30.5 Z"/></g>
<g><path style="opacity:1" fill="#9a5836" d="M 27.5,30.5 C 28.29,31.6085 28.79,32.9419 29,34.5C 29.3826,33.944 29.8826,33.6107 30.5,33.5C 31.1667,33.5 31.8333,33.5 32.5,33.5C 32.1436,35.1898 31.1436,36.1898 29.5,36.5C 27.0882,36.3059 26.0882,34.9726 26.5,32.5C 23.7417,31.0335 24.075,30.3668 27.5,30.5 Z"/></g>
</svg>
