<?xml version="1.0" encoding="UTF-8"?>
<!DOCTYPE svg PUBLIC "-//W3C//DTD SVG 1.1//EN" "http://www.w3.org/Graphics/SVG/1.1/DTD/svg11.dtd">
<svg xmlns="http://www.w3.org/2000/svg" version="1.1" width="52px" height="52px" style="shape-rendering:geometricPrecision; text-rendering:geometricPrecision; image-rendering:optimizeQuality; fill-rule:evenodd; clip-rule:evenodd" xmlns:xlink="http://www.w3.org/1999/xlink">
<g><path style="opacity:1" fill="#f69faa" d="M 37.5,23.5 C 36.609,24.1098 35.609,24.4431 34.5,24.5C 34.1667,24.5 33.8333,24.5 33.5,24.5C 32.2502,24.5774 31.4169,25.244 31,26.5C 30,23.8333 29,23.8333 28,26.5C 27.5831,25.244 26.7498,24.5774 25.5,24.5C 24.8333,24.5 24.1667,24.5 23.5,24.5C 22.2502,24.5774 21.4169,25.244 21,26.5C 20,23.8333 19,23.8333 18,26.5C 17.5831,25.244 16.7498,24.5774 15.5,24.5C 15.1667,24.5 14.8333,24.5 14.5,24.5C 13.791,23.596 12.791,23.2627 11.5,23.5C 10.3998,22.4415 9.06644,21.6082 7.5,21C 11.1788,20.1654 14.8454,19.332 18.5,18.5C 19.7253,12.9193 21.5586,7.58598 24,2.5C 26.3672,7.46393 28.2005,12.6306 29.5,18C 34.1667,19 38.8333,20 43.5,21C 41.7128,22.3187 39.7128,23.152 37.5,23.5 Z"/></g>
<g><path style="opacity:1" fill="#c73256" d="M 21.5,15.5 C 25.8288,14.6973 27.3288,16.6973 26,21.5C 24.8668,23.2112 23.3668,23.7112 21.5,23C 25.457,20.3598 25.457,17.8598 21.5,15.5 Z"/></g>
<g><path style="opacity:1" fill="#432518" d="M 11.5,23.5 C 12.791,23.2627 13.791,23.596 14.5,24.5C 14.5467,27.5682 15.0467,30.5682 16,33.5C 21.6667,36.1667 27.3333,36.1667 33,33.5C 33.9533,30.5682 34.4533,27.5682 34.5,24.5C 35.609,24.4431 36.609,24.1098 37.5,23.5C 40.0229,28.5611 41.1896,33.8944 41,39.5C 39.4126,38.273 38.0793,38.6063 37,40.5C 35.6667,37.8333 34.3333,37.8333 33,40.5C 31.6667,37.8333 30.3333,37.8333 29,40.5C 27.6667,37.8333 26.3333,37.8333 25,40.5C 23.6667,37.8333 22.3333,37.8333 21,40.5C 19.6667,37.8333 18.3333,37.8333 17,40.5C 15.3333,37.8333 13.6667,37.8333 12,40.5C 10.9207,38.6063 9.58738,38.273 8,39.5C 7.81039,33.8944 8.97705,28.5611 11.5,23.5 Z"/></g>
<g><path style="opacity:1" fill="#915436" d="M 14.5,24.5 C 14.8333,24.5 15.1667,24.5 15.5,24.5C 15.5569,25.609 15.8902,26.609 16.5,27.5C 17.0717,30.2436 18.7383,31.0769 21.5,30C 22.2524,29.3292 22.5858,28.4959 22.5,27.5C 23.1098,26.609 23.4431,25.609 23.5,24.5C 24.1667,24.5 24.8333,24.5 25.5,24.5C 25.5569,25.609 25.8902,26.609 26.5,27.5C 27.0717,30.2436 28.7383,31.0769 31.5,30C 32.2524,29.3292 32.5858,28.4959 32.5,27.5C 33.1098,26.609 33.4431,25.609 33.5,24.5C 33.8333,24.5 34.1667,24.5 34.5,24.5C 34.4533,27.5682 33.9533,30.5682 33,33.5C 27.3333,36.1667 21.6667,36.1667 16,33.5C 15.0467,30.5682 14.5467,27.5682 14.5,24.5 Z"/></g>
<g><path style="opacity:1" fill="#120906" d="M 15.5,24.5 C 16.7498,24.5774 17.5831,25.244 18,26.5C 19,23.8333 20,23.8333 21,26.5C 21.4169,25.244 22.2502,24.5774 23.5,24.5C 23.4431,25.609 23.1098,26.609 22.5,27.5C 21.2652,27.7214 20.2652,28.3881 19.5,29.5C 18.7348,28.3881 17.7348,27.7214 16.5,27.5C 15.8902,26.609 15.5569,25.609 15.5,24.5 Z"/></g>
<g><path style="opacity:1" fill="#120906" d="M 25.5,24.5 C 26.7498,24.5774 27.5831,25.244 28,26.5C 29,23.8333 30,23.8333 31,26.5C 31.4169,25.244 32.2502,24.5774 33.5,24.5C 33.4431,25.609 33.1098,26.609 32.5,27.5C 31.2652,27.7214 30.2652,28.3881 29.5,29.5C 28.7348,28.3881 27.7348,27.7214 26.5,27.5C 25.8902,26.609 25.5569,25.609 25.5,24.5 Z"/></g>
<g><path style="opacity:1" fill="#f9faf9" d="M 16.5,27.5 C 17.7348,27.7214 18.7348,28.3881 19.5,29.5C 20.2652,28.3881 21.2652,27.7214 22.5,27.5C 22.5858,28.4959 22.2524,29.3292 21.5,30C 18.7383,31.0769 17.0717,30.2436 16.5,27.5 Z"/></g>
<g><path style="opacity:1" fill="#f9faf9" d="M 26.5,27.5 C 27.7348,27.7214 28.7348,28.3881 29.5,29.5C 30.2652,28.3881 31.2652,27.7214 32.5,27.5C 32.5858,28.4959 32.2524,29.3292 31.5,30C 28.7383,31.0769 27.0717,30.2436 26.5,27.5 Z"/></g>
<g><path style="opacity:1" fill="#f97688" d="M 21.5,31.5 C 23.5805,31.634 25.5805,32.134 27.5,33C 25.728,34.4868 23.728,34.8201 21.5,34C 20.4019,33.2303 20.4019,32.397 21.5,31.5 Z"/></g>
</svg>
