<?xml version="1.0" encoding="UTF-8"?>
<svg version="1.1" xmlns="http://www.w3.org/2000/svg" width="52" height="52" viewBox="0 -6 52 52">
<path d="M0 0 C0.66 0.33 1.32 0.66 2 1 C2.61471075 3.27821708 3.16739121 5.57334208 3.6875 7.875 C4.83155172 12.77712862 4.83155172 12.77712862 7.81640625 16.59375 C9.92010221 17.51599725 9.92010221 17.51599725 13 18 C12.67 18.66 12.34 19.32 12 20 C11.34 20 10.68 20 10 20 C10.20625 20.845625 10.4125 21.69125 10.625 22.5625 C11.05843012 26.53560946 10.2762763 29.24624618 9 33 C8.34 33 7.68 33 7 33 C7 33.66 7 34.32 7 35 C6.34 35 5.68 35 5 35 C4.67 36.32 4.34 37.64 4 39 C0.58384716 38.7071869 -0.96147783 38.03045939 -3.6875 35.875 C-7.46466744 31.1790621 -8 26.8447368 -8 21 C-8.66 20.01 -9.32 19.02 -10 18 C-8.02 17.34 -6.04 16.68 -4 16 C-3.96261719 15.43152344 -3.92523437 14.86304688 -3.88671875 14.27734375 C-3.43021378 8.91564807 -2.36510918 4.8330492 0 0 Z " fill="#EE242C" transform="translate(24,3)"/>
<path d="M0 0 C4.95 0.99 4.95 0.99 10 2 C10.33 1.34 10.66 0.68 11 0 C11.61875 0.185625 12.2375 0.37125 12.875 0.5625 C15.04160178 1.23686176 15.04160178 1.23686176 17 0 C16.67 1.65 16.34 3.3 16 5 C15.34 5 14.68 5 14 5 C14 5.66 14 6.32 14 7 C13.34 7 12.68 7 12 7 C11.67 8.32 11.34 9.64 11 11 C7.49053006 10.69918829 6.02211769 10.0180963 3.25 7.75 C1 5 1 5 0 0 Z " fill="#000000" transform="translate(17,31)"/>
<path d="M0 0 C2.45898655 -0.08076963 4.91533742 -0.14037143 7.375 -0.1875 C8.07367188 -0.21263672 8.77234375 -0.23777344 9.4921875 -0.26367188 C11.5234375 -0.29296875 11.5234375 -0.29296875 15 0 C15.66 0.99 16.32 1.98 17 3 C16.01 4.485 16.01 4.485 15 6 C12.375 6.1875 12.375 6.1875 10 6 C10 6.66 10 7.32 10 8 C8.54054712 7.91291331 7.08234132 7.80473093 5.625 7.6875 C4.81289063 7.62949219 4.00078125 7.57148437 3.1640625 7.51171875 C1 7 1 7 -1 4 C-0.625 1.8125 -0.625 1.8125 0 0 Z " fill="#414A50" transform="translate(17,25)"/>
<path d="M0 0 C0.33 0.66 0.66 1.32 1 2 C0.01 3.485 0.01 3.485 -1 5 C-3.625 5.1875 -3.625 5.1875 -6 5 C-6.33 3.35 -6.66 1.7 -7 0 C-4.30234372 -1.34882814 -2.84835666 -0.80338265 0 0 Z M-9 5 C-8.01 5 -7.02 5 -6 5 C-6 5.66 -6 6.32 -6 7 C-6.99 7 -7.98 7 -9 7 C-9 6.34 -9 5.68 -9 5 Z " fill="#3A4449" transform="translate(33,26)"/>
<path d="M0 0 C0.99 0.33 1.98 0.66 3 1 C3 1.99 3 2.98 3 4 C-1.455 4.495 -1.455 4.495 -6 5 C-4.68 4.34 -3.36 3.68 -2 3 C-1.34 2.01 -0.68 1.02 0 0 Z " fill="#FFA3B1" transform="translate(24,27)"/>
</svg>
