<?xml version="1.0" encoding="UTF-8"?>
<svg version="1.1" xmlns="http://www.w3.org/2000/svg" width="52" height="52">
<path d="M0 0 C-0.66 2.64 -1.32 5.28 -2 8 C3.61 8 9.22 8 15 8 C15.495 8.99 15.495 8.99 16 10 C11.02638346 11.75734451 6.2584002 13.32584613 1 14 C0.8041991 15.91583647 0.61867786 17.83272539 0.4375 19.75 C0.33308594 20.81734375 0.22867188 21.8846875 0.12109375 22.984375 C0.01439926 25.64141204 0.18069605 27.49960572 1 30 C0.01 29.67 -0.98 29.34 -2 29 C-2 27.35 -2 25.7 -2 24 C-6.95 24 -11.9 24 -17 24 C-17.33 20.7 -17.66 17.4 -18 14 C-22.62 13.01 -27.24 12.02 -32 11 C-27.25294723 7.83529815 -23.68228705 7.89072525 -18 8 C-18.33 5.69 -18.66 3.38 -19 1 C-12.65758005 -0.15316726 -6.43311296 -0.09507063 0 0 Z " fill="#ED1C24" transform="translate(34,12)"/>
<path d="M0 0 C3.63 0 7.26 0 11 0 C10.01 0.495 10.01 0.495 9 1 C9.33 2.65 9.66 4.3 10 6 C11.65 6 13.3 6 15 6 C15 7.32 15 8.64 15 10 C10.05 10 5.1 10 0 10 C0 6.7 0 3.4 0 0 Z " fill="#AEAEAE" transform="translate(17,26)"/>
<path d="M0 0 C-0.01160156 0.81984375 -0.02320313 1.6396875 -0.03515625 2.484375 C-0.04417969 3.56203125 -0.05320312 4.6396875 -0.0625 5.75 C-0.07410156 6.81734375 -0.08570313 7.8846875 -0.09765625 8.984375 C-0.01510087 11.53368501 0.25382442 13.57933591 1 16 C0.01 15.67 -0.98 15.34 -2 15 C-2 12.03 -2 9.06 -2 6 C-3.65 6 -5.3 6 -7 6 C-7.33 4.35 -7.66 2.7 -8 1 C-5.29120665 -0.35439668 -2.99066732 -0.06501451 0 0 Z " fill="#E6BA25" transform="translate(34,26)"/>
<path d="M0 0 C1.65 0 3.3 0 5 0 C5 1.32 5 2.64 5 4 C0.05 4 -4.9 4 -10 4 C-6.91111478 1.94074319 -6.29064073 1.7609626 -2.8125 1.875 C-0.9253125 1.936875 -0.9253125 1.936875 1 2 C0.67 1.34 0.34 0.68 0 0 Z " fill="#B4B4B4" transform="translate(27,32)"/>
<path d="M0 0 C2.02045442 0.60183749 4.02111039 1.27306096 6 2 C6.33 2.66 6.66 3.32 7 4 C3.37 4 -0.26 4 -4 4 C-2.68 2.68 -1.36 1.36 0 0 Z " fill="#9C5A3C" transform="translate(22,31)"/>
</svg>
