<?xml version="1.0" encoding="UTF-8"?>
<!DOCTYPE svg PUBLIC "-//W3C//DTD SVG 1.1//EN" "http://www.w3.org/Graphics/SVG/1.1/DTD/svg11.dtd">
<svg xmlns="http://www.w3.org/2000/svg" version="1.1" width="52px" height="52px" style="shape-rendering:geometricPrecision; text-rendering:geometricPrecision; image-rendering:optimizeQuality; fill-rule:evenodd; clip-rule:evenodd" xmlns:xlink="http://www.w3.org/1999/xlink">
<g><path style="opacity:1" fill="#95002a" d="M 33.5,27.5 C 33.1667,27.5 32.8333,27.5 32.5,27.5C 27.1858,28.6238 21.8525,28.6238 16.5,27.5C 15.4264,26.1154 14.0931,24.9487 12.5,24C 14.6147,23.4427 16.6147,22.6094 18.5,21.5C 19.7253,15.9193 21.5586,10.586 24,5.5C 26.4286,10.2013 28.0953,15.2013 29,20.5C 31.8164,21.6623 34.6497,22.8289 37.5,24C 35.6813,24.7403 34.3479,25.9069 33.5,27.5 Z"/></g>
<g><path style="opacity:1" fill="#f9ed00" d="M 21.5,18.5 C 24.414,17.1862 26.0807,18.3529 26.5,22C 26.2148,25.3012 24.5481,26.6345 21.5,26C 25.3996,23.4526 25.3996,20.9526 21.5,18.5 Z"/></g>
<g><path style="opacity:1" fill="#f9ed00" d="M 16.5,27.5 C 21.8525,28.6238 27.1858,28.6238 32.5,27.5C 32.5,27.8333 32.5,28.1667 32.5,28.5C 32.5,29.5 32.5,30.5 32.5,31.5C 32.5,31.8333 32.5,32.1667 32.5,32.5C 32.5,32.8333 32.5,33.1667 32.5,33.5C 30.8333,33.5 29.1667,33.5 27.5,33.5C 27.1667,33.5 26.8333,33.5 26.5,33.5C 25.1667,29.5 23.8333,29.5 22.5,33.5C 22.1667,33.5 21.8333,33.5 21.5,33.5C 20.1667,33.5 18.8333,33.5 17.5,33.5C 16.8333,33.5 16.5,33.1667 16.5,32.5C 16.5,32.1667 16.5,31.8333 16.5,31.5C 16.5,30.5 16.5,29.5 16.5,28.5C 16.5,28.1667 16.5,27.8333 16.5,27.5 Z"/></g>
<g><path style="opacity:1" fill="#fa9ba8" d="M 16.5,28.5 C 16.5,29.5 16.5,30.5 16.5,31.5C 14.7274,30.6857 14.2274,29.3524 15,27.5C 15.3826,28.056 15.8826,28.3893 16.5,28.5 Z"/></g>
<g><path style="opacity:1" fill="#96d4e6" d="M 21.5,30.5 C 20.1667,30.5 19.5,31.1667 19.5,32.5C 17.8235,31.8166 17.1568,30.4832 17.5,28.5C 19.4832,28.1568 20.8166,28.8235 21.5,30.5 Z"/></g>
<g><path style="opacity:1" fill="#96d4e6" d="M 31.5,30.5 C 30.1667,30.5 29.5,31.1667 29.5,32.5C 27.8235,31.8166 27.1568,30.4832 27.5,28.5C 29.4832,28.1568 30.8166,28.8235 31.5,30.5 Z"/></g>
<g><path style="opacity:1" fill="#fa9ba8" d="M 33.5,27.5 C 34.8528,29.1284 34.5195,30.4617 32.5,31.5C 32.5,30.5 32.5,29.5 32.5,28.5C 33.1667,28.5 33.5,28.1667 33.5,27.5 Z"/></g>
<g><path style="opacity:1" fill="#000000" d="M 21.5,30.5 C 21.5,31.8333 20.8333,32.5 19.5,32.5C 19.5,31.1667 20.1667,30.5 21.5,30.5 Z"/></g>
<g><path style="opacity:1" fill="#000000" d="M 31.5,30.5 C 31.5,31.8333 30.8333,32.5 29.5,32.5C 29.5,31.1667 30.1667,30.5 31.5,30.5 Z"/></g>
<g><path style="opacity:1" fill="#000000" d="M 16.5,32.5 C 16.5,33.1667 16.8333,33.5 17.5,33.5C 18.6649,36.0219 19.9982,36.0219 21.5,33.5C 21.8333,33.5 22.1667,33.5 22.5,33.5C 23.8333,33.5 25.1667,33.5 26.5,33.5C 26.8333,33.5 27.1667,33.5 27.5,33.5C 29.2855,35.9224 30.9522,35.9224 32.5,33.5C 32.5,33.1667 32.5,32.8333 32.5,32.5C 33.7349,34.017 33.7349,35.6837 32.5,37.5C 30.2147,39.877 28.048,42.2103 26,44.5C 22.8057,42.4854 19.8057,40.1521 17,37.5C 15.5456,35.7561 15.3789,34.0894 16.5,32.5 Z"/></g>
<g><path style="opacity:1" fill="#fa96a3" d="M 26.5,33.5 C 25.1667,33.5 23.8333,33.5 22.5,33.5C 23.8333,29.5 25.1667,29.5 26.5,33.5 Z"/></g>
<g><path style="opacity:1" fill="#f9a2ae" d="M 17.5,33.5 C 18.8333,33.5 20.1667,33.5 21.5,33.5C 19.9982,36.0219 18.6649,36.0219 17.5,33.5 Z"/></g>
<g><path style="opacity:1" fill="#f9a2ae" d="M 27.5,33.5 C 29.1667,33.5 30.8333,33.5 32.5,33.5C 30.9522,35.9224 29.2855,35.9224 27.5,33.5 Z"/></g>
<g><path style="opacity:1" fill="#f9a2ae" d="M 22.5,35.5 C 24.4286,35.2308 26.0953,35.7308 27.5,37C 26.0696,38.4404 24.403,38.7737 22.5,38C 21.4019,37.2303 21.4019,36.397 22.5,35.5 Z"/></g>
</svg>
