<?xml version="1.0" encoding="UTF-8"?>
<!DOCTYPE svg PUBLIC "-//W3C//DTD SVG 1.1//EN" "http://www.w3.org/Graphics/SVG/1.1/DTD/svg11.dtd">
<svg xmlns="http://www.w3.org/2000/svg" version="1.1" width="52px" height="52px" style="shape-rendering:geometricPrecision; text-rendering:geometricPrecision; image-rendering:optimizeQuality; fill-rule:evenodd; clip-rule:evenodd" xmlns:xlink="http://www.w3.org/1999/xlink">
<g><path style="opacity:1" fill="#000000" d="M 33.5,25.5 C 27.8333,25.5 22.1667,25.5 16.5,25.5C 11.645,23.8702 6.64504,22.7035 1.5,22C 6.00039,20.2079 10.6671,19.3746 15.5,19.5C 15.3259,17.139 14.9926,14.8056 14.5,12.5C 20.4836,11.9258 26.4836,11.5925 32.5,11.5C 31.9084,14.1272 31.5751,16.7938 31.5,19.5C 35.9135,20.0943 40.2468,20.0943 44.5,19.5C 46.3893,19.4363 48.0559,19.9363 49.5,21C 44.3089,23.1301 38.9755,24.6301 33.5,25.5 Z"/></g>
<g><path style="opacity:1" fill="#e6191e" d="M 22.5,12.5 C 23.4731,14.9479 23.8064,17.6146 23.5,20.5C 21.1667,20.5 18.8333,20.5 16.5,20.5C 16.7564,18.2075 16.4231,16.0408 15.5,14C 18.0356,13.8138 20.369,13.3138 22.5,12.5 Z"/></g>
<g><path style="opacity:1" fill="#2b3196" d="M 25.5,12.5 C 27.5273,12.3379 29.5273,12.5045 31.5,13C 30.565,15.3806 30.2317,17.8806 30.5,20.5C 28.8333,20.5 27.1667,20.5 25.5,20.5C 25.5,17.8333 25.5,15.1667 25.5,12.5 Z"/></g>
<g><path style="opacity:1" fill="#c0c0c0" d="M 16.5,25.5 C 22.1667,25.5 27.8333,25.5 33.5,25.5C 33.5,28.8333 33.5,32.1667 33.5,35.5C 27.8333,35.5 22.1667,35.5 16.5,35.5C 16.5,32.1667 16.5,28.8333 16.5,25.5 Z"/></g>
<g><path style="opacity:1" fill="#434443" d="M 26.5,26.5 C 27.8333,26.5 29.1667,26.5 30.5,26.5C 30.5,27.8333 30.5,29.1667 30.5,30.5C 29.1667,30.5 27.8333,30.5 26.5,30.5C 26.5,29.1667 26.5,27.8333 26.5,26.5 Z"/></g>
<g><path style="opacity:1" fill="#000000" d="M 18.5,28.5 C 19.0768,27.2267 19.7435,27.2267 20.5,28.5C 20.0302,29.463 19.3635,29.463 18.5,28.5 Z"/></g>
<g><path style="opacity:1" fill="#e6191e" d="M 27.5,27.5 C 30.0009,27.5109 30.1676,28.1776 28,29.5C 27.5357,28.9056 27.369,28.2389 27.5,27.5 Z"/></g>
<g><path style="opacity:1" fill="#000000" d="M 22.5,30.5 C 25.2733,30.8118 27.6066,31.9784 29.5,34C 26.1811,33.2749 22.8477,33.4415 19.5,34.5C 19.1667,34.3333 18.8333,34.1667 18.5,34C 19.7305,32.5952 21.0639,31.4286 22.5,30.5 Z"/></g>
</svg>
