<?xml version="1.0" encoding="UTF-8"?>
<svg version="1.1" xmlns="http://www.w3.org/2000/svg" width="52" height="52">
<path d="M0 0 C-0.66 2.64 -1.32 5.28 -2 8 C3.61 8 9.22 8 15 8 C15.495 8.99 15.495 8.99 16 10 C11.02638346 11.75734451 6.2584002 13.32584613 1 14 C0.8041991 15.91583647 0.61867786 17.83272539 0.4375 19.75 C0.33308594 20.81734375 0.22867188 21.8846875 0.12109375 22.984375 C0.01439926 25.64141204 0.18069605 27.49960572 1 30 C0.01 29.67 -0.98 29.34 -2 29 C-2 27.35 -2 25.7 -2 24 C-6.95 24 -11.9 24 -17 24 C-17.33 20.7 -17.66 17.4 -18 14 C-22.62 13.01 -27.24 12.02 -32 11 C-27.25294723 7.83529815 -23.68228705 7.89072525 -18 8 C-18.33 5.69 -18.66 3.38 -19 1 C-12.65758005 -0.15316726 -6.43311296 -0.09507063 0 0 Z " fill="#000000" transform="translate(34,12)"/>
<path d="M0 0 C5.61 0 11.22 0 17 0 C16.96744792 2.99479167 16.93489583 5.98958333 16.90234375 8.984375 C16.98489913 11.53368501 17.25382442 13.57933591 18 16 C17.01 15.67 16.02 15.34 15 15 C15 13.35 15 11.7 15 10 C10.05 10 5.1 10 0 10 C0 6.7 0 3.4 0 0 Z " fill="#AEAEAE" transform="translate(17,26)"/>
<path d="M0 0 C0.99 0 1.98 0 3 0 C2.98839844 0.81984375 2.97679687 1.6396875 2.96484375 2.484375 C2.95582031 3.56203125 2.94679688 4.6396875 2.9375 5.75 C2.92589844 6.81734375 2.91429687 7.8846875 2.90234375 8.984375 C2.98489913 11.53368501 3.25382442 13.57933591 4 16 C3.01 15.67 2.02 15.34 1 15 C1 12.03 1 9.06 1 6 C-0.65 6 -2.3 6 -4 6 C-2.68 5.34 -1.36 4.68 0 4 C0 2.68 0 1.36 0 0 Z " fill="#E9BE3C" transform="translate(31,26)"/>
<path d="M0 0 C1.65 0 3.3 0 5 0 C5 1.32 5 2.64 5 4 C0.05 4 -4.9 4 -10 4 C-5.78370866 1.89185433 -3.60209225 1.82299645 1 2 C0.67 1.34 0.34 0.68 0 0 Z " fill="#B4B4B4" transform="translate(27,32)"/>
<path d="M0 0 C0.33 0.66 0.66 1.32 1 2 C1.66 2.165 2.32 2.33 3 2.5 C3.66 2.665 4.32 2.83 5 3 C5.33 3.66 5.66 4.32 6 5 C2.37 5 -1.26 5 -5 5 C-3.35 3.35 -1.7 1.7 0 0 Z " fill="#000000" transform="translate(23,30)"/>
<path d="M0 0 C0.33 1.32 0.66 2.64 1 4 C-0.65 4.33 -2.3 4.66 -4 5 C-4.33 3.68 -4.66 2.36 -5 1 C-3 0 -3 0 0 0 Z " fill="#BBBC71" transform="translate(31,26)"/>
</svg>
