<?xml version="1.0" encoding="UTF-8"?>
<svg version="1.1" xmlns="http://www.w3.org/2000/svg" width="52" height="52" viewBox="0 -6 52 52">
<path d="M0 0 C0.66 0.33 1.32 0.66 2 1 C2.61471075 3.27821708 3.16739121 5.57334208 3.6875 7.875 C4.83155172 12.77712862 4.83155172 12.77712862 7.81640625 16.59375 C9.92010221 17.51599725 9.92010221 17.51599725 13 18 C12.67 18.66 12.34 19.32 12 20 C11.34 20 10.68 20 10 20 C10.20625 20.845625 10.4125 21.69125 10.625 22.5625 C11.05843012 26.53560946 10.2762763 29.24624618 9 33 C8.34 33 7.68 33 7 33 C7 33.66 7 34.32 7 35 C6.34 35 5.68 35 5 35 C4.67 36.32 4.34 37.64 4 39 C0.58384716 38.7071869 -0.96147783 38.03045939 -3.6875 35.875 C-7.46466744 31.1790621 -8 26.8447368 -8 21 C-8.66 20.01 -9.32 19.02 -10 18 C-8.02 17.34 -6.04 16.68 -4 16 C-3.96261719 15.43152344 -3.92523437 14.86304688 -3.88671875 14.27734375 C-3.43021378 8.91564807 -2.36510918 4.8330492 0 0 Z " fill="#ED8715" transform="translate(24,3)"/>
<path d="M0 0 C4.62 0 9.24 0 14 0 C14.33 1.32 14.66 2.64 15 4 C15.99 3.01 16.98 2.02 18 1 C17.34 4.3 16.68 7.6 16 11 C15.34 11 14.68 11 14 11 C14 11.66 14 12.32 14 13 C13.34 13 12.68 13 12 13 C11.67 14.32 11.34 15.64 11 17 C7.58384716 16.7071869 6.03852217 16.03045939 3.3125 13.875 C0.66583171 10.58454753 -0.24779481 8.13712854 -1 4 C-0.67 2.68 -0.34 1.36 0 0 Z " fill="#BDBAB0" transform="translate(17,25)"/>
<path d="M0 0 C2 1 2 1 2.88671875 3.14453125 C3.15097656 4.02496094 3.41523438 4.90539062 3.6875 5.8125 C4.09548828 7.12154297 4.09548828 7.12154297 4.51171875 8.45703125 C5.01909126 11.09942728 5.00451983 12.52181646 4 15 C1.9375 16.25 1.9375 16.25 0 17 C-1.32 16.01 -2.64 15.02 -4 14 C-3.71572583 12.41532272 -3.42225182 10.8322943 -3.125 9.25 C-2.96257813 8.36828125 -2.80015625 7.4865625 -2.6328125 6.578125 C-2.03203736 4.13052256 -1.22002883 2.19400143 0 0 Z " fill="#FF7E00" transform="translate(24,3)"/>
<path d="M0 0 C1.93166016 0.01740234 1.93166016 0.01740234 3.90234375 0.03515625 C5.19269531 0.04417969 6.48304687 0.05320312 7.8125 0.0625 C8.81152344 0.07410156 9.81054688 0.08570312 10.83984375 0.09765625 C11.16984375 1.41765625 11.49984375 2.73765625 11.83984375 4.09765625 C10.18984375 4.42765625 8.53984375 4.75765625 6.83984375 5.09765625 C6.50984375 4.43765625 6.17984375 3.77765625 5.83984375 3.09765625 C5.17984375 3.09765625 4.51984375 3.09765625 3.83984375 3.09765625 C2.84984375 4.58265625 2.84984375 4.58265625 1.83984375 6.09765625 C0.18984375 5.76765625 -1.46015625 5.43765625 -3.16015625 5.09765625 C-3.72265625 3.16015625 -3.72265625 3.16015625 -4.16015625 1.09765625 C-3.16015625 0.09765625 -3.16015625 0.09765625 0 0 Z " fill="#D5C154" transform="translate(20.16015625,24.90234375)"/>
<path d="M0 0 C0.928125 0.37125 1.85625 0.7425 2.8125 1.125 C3.864375 1.41375 4.91625 1.7025 6 2 C6.99 1.34 7.98 0.68 9 0 C9.33 0.99 9.66 1.98 10 3 C8.875 5.1875 8.875 5.1875 7 7 C4.4375 7.375 4.4375 7.375 2 7 C0 5 0 5 -0.125 2.375 C-0.08375 1.59125 -0.0425 0.8075 0 0 Z " fill="#FF7E00" transform="translate(20,17)"/>
<path d="M0 0 C0.66 0.33 1.32 0.66 2 1 C2.73075648 3.3140622 3.40138258 5.64828869 4 8 C2.02 8.99 2.02 8.99 0 10 C-0.99 9.01 -1.98 8.02 -3 7 C-2.01 4.69 -1.02 2.38 0 0 Z " fill="#FFA44B" transform="translate(24,3)"/>
<path d="M0 0 C1.485 0.99 1.485 0.99 3 2 C5.28397032 1.65394389 6.93409037 1.03295481 9 0 C8.75 1.875 8.75 1.875 8 4 C5.9375 5.25 5.9375 5.25 4 6 C2 4.6875 2 4.6875 0 3 C0 2.01 0 1.02 0 0 Z " fill="#FFFFFF" transform="translate(20,14)"/>
<path d="M0 0 C0.33 1.32 0.66 2.64 1 4 C-0.65 4.33 -2.3 4.66 -4 5 C-4.33 3.68 -4.66 2.36 -5 1 C-3 0 -3 0 0 0 Z " fill="#B8BC76" transform="translate(31,25)"/>
<path d="M0 0 C0.99 0.33 1.98 0.66 3 1 C3 1.99 3 2.98 3 4 C-1.455 4.495 -1.455 4.495 -6 5 C-4.68 4.34 -3.36 3.68 -2 3 C-1.34 2.01 -0.68 1.02 0 0 Z " fill="#F5E49C" transform="translate(24,27)"/>
</svg>
